SplineFontDB: 3.0
FontName: GentiumBasic
FullName: Gentium Basic
FamilyName: Gentium Basic
Weight: Book
Copyright: Copyright (c) SIL International, 2003-2008.
Version: 1.100
ItalicAngle: 0
UnderlinePosition: -200
UnderlineWidth: 100
Ascent: 1638
Descent: 410
sfntRevision: 0x00011999
LayerCount: 2
Layer: 0 1 "Back"  1
Layer: 1 1 "Fore"  0
XUID: [1021 288 713564382 7692870]
FSType: 0
OS2Version: 3
OS2_WeightWidthSlopeOnly: 0
OS2_UseTypoMetrics: 1
CreationTime: 1207153761
ModificationTime: 1309535531
PfmFamily: 17
TTFWeight: 400
TTFWidth: 5
LineGap: 0
VLineGap: 0
Panose: 2 0 5 3 6 0 0 2 0 4
OS2TypoAscent: 2219
OS2TypoAOffset: 0
OS2TypoDescent: -735
OS2TypoDOffset: 0
OS2TypoLinegap: 0
OS2WinAscent: 2219
OS2WinAOffset: 0
OS2WinDescent: 735
OS2WinDOffset: 0
HheadAscent: 2219
HheadAOffset: 0
HheadDescent: -735
HheadDOffset: 0
OS2SubXSize: 856
OS2SubYSize: 856
OS2SubXOff: 0
OS2SubYOff: 1200
OS2SupXSize: 856
OS2SupYSize: 856
OS2SupXOff: 0
OS2SupYOff: 1200
OS2StrikeYSize: 100
OS2StrikeYPos: 500
OS2Vendor: 'SIL '
OS2CodePages: 20000013.00000000
OS2UnicodeRanges: a000007f.4000204a.00000000.00000000
Lookup: 5 0 0 "'ccmp' Glyph Composition/Decomposition lookup 0"  {"'ccmp' Glyph Composition/Decomposition lookup 0 subtable"  } ['ccmp' ('cyrl' <'dflt' > 'latn' <'IPA ' 'VIT ' 'dflt' > ) ]
Lookup: 1 0 0 "Single Substitution lookup 1"  {"Single Substitution lookup 1 subtable"  } []
Lookup: 2 0 0 "Multiple Substitution lookup 2"  {"Multiple Substitution lookup 2 subtable"  } []
Lookup: 4 0 0 "'ccmp' Glyph Composition/Decomposition lookup 3"  {"'ccmp' Glyph Composition/Decomposition lookup 3 subtable"  } ['ccmp' ('cyrl' <'dflt' > 'latn' <'IPA ' 'VIT ' 'dflt' > ) ]
Lookup: 4 256 0 "'ccmp' Glyph Composition/Decomposition in Latin lookup 4"  {"'ccmp' Glyph Composition/Decomposition in Latin lookup 4 subtable"  } ['ccmp' ('latn' <'VIT ' > ) ]

StartChar: .notdef
Encoding: 65536 -1 0
Width: 1400
Flags: W
LayerCount: 2
Fore
SplineSet
150 50 m 1,0,-1
 1250 50 l 1,1,-1
 1250 1750 l 1,2,-1
 150 1750 l 1,3,-1
 150 50 l 1,0,-1
100 1800 m 1,4,-1
 1300 1800 l 1,5,-1
 1300 0 l 1,6,-1
 100 0 l 1,7,-1
 100 1800 l 1,4,-1
EndSplineSet
EndChar

StartChar: exclam
Encoding: 33 33 4
Width: 557
Flags: W
LayerCount: 2
Fore
SplineSet
390 123 m 0,0,1
 390 88 390 88 379.5 58.5 c 128,-1,2
 369 29 369 29 350.5 7 c 128,-1,3
 332 -15 332 -15 306.5 -27.5 c 128,-1,4
 281 -40 281 -40 252 -40 c 0,5,6
 198 -40 198 -40 175 -11 c 128,-1,7
 152 18 152 18 152 72 c 0,8,9
 152 106 152 106 163 135.5 c 128,-1,10
 174 165 174 165 193 187.5 c 128,-1,11
 212 210 212 210 237.5 223 c 128,-1,12
 263 236 263 236 291 236 c 0,13,14
 341 236 341 236 365.5 206.5 c 128,-1,15
 390 177 390 177 390 123 c 0,0,1
326 389 m 1,16,17
 307 375 307 375 292 366.5 c 128,-1,18
 277 358 277 358 252 350 c 1,19,-1
 223 371 l 1,20,-1
 176 1398 l 1,21,22
 214 1423 214 1423 256 1444.5 c 128,-1,23
 298 1466 298 1466 332 1480 c 1,24,-1
 375 1455 l 1,25,-1
 326 389 l 1,16,17
EndSplineSet
EndChar

StartChar: quotedbl
Encoding: 34 34 5
Width: 870
Flags: W
LayerCount: 2
Fore
SplineSet
309 834 m 1,0,1
 301 830 301 830 289.5 826 c 128,-1,2
 278 822 278 822 265 819 c 128,-1,3
 252 816 252 816 238.5 814.5 c 128,-1,4
 225 813 225 813 213 813 c 1,5,-1
 160 1426 l 1,6,7
 171 1432 171 1432 192 1440.5 c 128,-1,8
 213 1449 213 1449 235.5 1457 c 128,-1,9
 258 1465 258 1465 278 1471.5 c 128,-1,10
 298 1478 298 1478 309 1480 c 1,11,-1
 352 1459 l 1,12,-1
 309 834 l 1,0,1
668 834 m 1,13,14
 660 830 660 830 648.5 826 c 128,-1,15
 637 822 637 822 623.5 819 c 128,-1,16
 610 816 610 816 596.5 814.5 c 128,-1,17
 583 813 583 813 571 813 c 1,18,-1
 518 1426 l 1,19,20
 529 1432 529 1432 549.5 1440.5 c 128,-1,21
 570 1449 570 1449 593 1457 c 128,-1,22
 616 1465 616 1465 636.5 1471.5 c 128,-1,23
 657 1478 657 1478 668 1480 c 1,24,-1
 711 1459 l 1,25,-1
 668 834 l 1,13,14
EndSplineSet
EndChar

StartChar: numbersign
Encoding: 35 35 6
Width: 961
Flags: W
LayerCount: 2
Fore
SplineSet
399 590 m 1,0,-1
 588 590 l 1,1,-1
 661 846 l 1,2,-1
 473 846 l 1,3,-1
 399 590 l 1,0,-1
806 961 m 1,4,-1
 957 961 l 1,5,-1
 982 936 l 1,6,7
 977 914 977 914 968 888.5 c 128,-1,8
 959 863 959 863 951 846 c 1,9,-1
 773 846 l 1,10,-1
 700 590 l 1,11,-1
 851 590 l 1,12,-1
 873 563 l 1,13,14
 868 543 868 543 860.5 517.5 c 128,-1,15
 853 492 853 492 845 475 c 1,16,-1
 667 475 l 1,17,-1
 580 170 l 1,18,19
 562 156 562 156 538 146 c 128,-1,20
 514 136 514 136 488 127 c 1,21,-1
 462 147 l 1,22,-1
 555 475 l 1,23,-1
 366 475 l 1,24,-1
 279 170 l 1,25,26
 261 156 261 156 238 146 c 128,-1,27
 215 136 215 136 189 127 c 1,28,-1
 163 147 l 1,29,-1
 256 475 l 1,30,-1
 109 475 l 1,31,-1
 87 500 l 1,32,33
 92 520 92 520 100 545 c 128,-1,34
 108 570 108 570 117 590 c 1,35,-1
 289 590 l 1,36,-1
 362 846 l 1,37,-1
 218 846 l 1,38,-1
 193 870 l 1,39,40
 198 892 198 892 207 916.5 c 128,-1,41
 216 941 216 941 224 961 c 1,42,-1
 395 961 l 1,43,-1
 478 1251 l 1,44,45
 500 1267 500 1267 522 1275 c 128,-1,46
 544 1283 544 1283 566 1292 c 1,47,-1
 595 1270 l 1,48,-1
 506 961 l 1,49,-1
 694 961 l 1,50,-1
 777 1251 l 1,51,52
 799 1267 799 1267 821.5 1275 c 128,-1,53
 844 1283 844 1283 867 1292 c 1,54,-1
 894 1270 l 1,55,-1
 806 961 l 1,4,-1
EndSplineSet
EndChar

StartChar: dollar
Encoding: 36 36 7
Width: 961
Flags: W
LayerCount: 2
Fore
SplineSet
225 958 m 0,0,1
 225 920 225 920 241 891.5 c 128,-1,2
 257 863 257 863 285 840 c 128,-1,3
 313 817 313 817 351 798.5 c 128,-1,4
 389 780 389 780 432 763 c 1,5,-1
 432 1115 l 1,6,7
 374 1113 374 1113 334.5 1098.5 c 128,-1,8
 295 1084 295 1084 270.5 1062 c 128,-1,9
 246 1040 246 1040 235.5 1012.5 c 128,-1,10
 225 985 225 985 225 958 c 0,0,1
727 324 m 0,11,12
 727 371 727 371 711 407 c 128,-1,13
 695 443 695 443 667 470.5 c 128,-1,14
 639 498 639 498 601.5 519 c 128,-1,15
 564 540 564 540 522 558 c 1,16,-1
 522 113 l 1,17,18
 562 118 562 118 599 135.5 c 128,-1,19
 636 153 636 153 664.5 180.5 c 128,-1,20
 693 208 693 208 710 244.5 c 128,-1,21
 727 281 727 281 727 324 c 0,11,12
522 -143 m 1,22,23
 513 -151 513 -151 506.5 -155.5 c 128,-1,24
 500 -160 500 -160 493.5 -163 c 128,-1,25
 487 -166 487 -166 479 -168.5 c 128,-1,26
 471 -171 471 -171 459 -174 c 1,27,-1
 432 -152 l 1,28,-1
 432 -10 l 1,29,30
 384 -9 384 -9 343 -3 c 128,-1,31
 302 3 302 3 263 16 c 128,-1,32
 224 29 224 29 185 48.5 c 128,-1,33
 146 68 146 68 102 96 c 0,34,35
 95 101 95 101 91.5 129.5 c 128,-1,36
 88 158 88 158 88 195.5 c 128,-1,37
 88 233 88 233 91 272.5 c 128,-1,38
 94 312 94 312 102 340 c 1,39,-1
 145 336 l 1,40,41
 193 233 193 233 267 179.5 c 128,-1,42
 341 126 341 126 432 114 c 1,43,-1
 432 593 l 1,44,45
 370 616 370 616 310.5 641 c 128,-1,46
 251 666 251 666 203.5 701.5 c 128,-1,47
 156 737 156 737 127 787 c 128,-1,48
 98 837 98 837 98 911 c 0,49,50
 98 953 98 953 114.5 1001.5 c 128,-1,51
 131 1050 131 1050 170 1092.5 c 128,-1,52
 209 1135 209 1135 273 1167 c 128,-1,53
 337 1199 337 1199 432 1210 c 1,54,-1
 432 1356 l 1,55,56
 446 1364 446 1364 452 1368 c 128,-1,57
 458 1372 458 1372 463 1374.5 c 128,-1,58
 468 1377 468 1377 474.5 1378.5 c 128,-1,59
 481 1380 481 1380 496 1384 c 1,60,-1
 522 1362 l 1,61,-1
 522 1214 l 1,62,63
 568 1213 568 1213 611.5 1206.5 c 128,-1,64
 655 1200 655 1200 693 1188 c 128,-1,65
 731 1176 731 1176 761 1159.5 c 128,-1,66
 791 1143 791 1143 811 1124 c 0,67,68
 817 1117 817 1117 809.5 1098.5 c 128,-1,69
 802 1080 802 1080 788 1058.5 c 128,-1,70
 774 1037 774 1037 757 1016 c 128,-1,71
 740 995 740 995 727 983 c 1,72,-1
 688 991 l 1,73,74
 648 1037 648 1037 606 1065 c 128,-1,75
 564 1093 564 1093 522 1105 c 1,76,-1
 522 728 l 1,77,78
 584 704 584 704 645 676 c 128,-1,79
 706 648 706 648 754 607.5 c 128,-1,80
 802 567 802 567 832 511.5 c 128,-1,81
 862 456 862 456 862 377 c 0,82,83
 862 317 862 317 840.5 255 c 128,-1,84
 819 193 819 193 776 140 c 128,-1,85
 733 87 733 87 669.5 48 c 128,-1,86
 606 9 606 9 522 -4 c 1,87,-1
 522 -143 l 1,22,23
EndSplineSet
EndChar

StartChar: percent
Encoding: 37 37 8
Width: 1413
Flags: W
LayerCount: 2
Fore
SplineSet
1194 289 m 0,0,1
 1194 359 1194 359 1181.5 411 c 128,-1,2
 1169 463 1169 463 1148 497.5 c 128,-1,3
 1127 532 1127 532 1100 548.5 c 128,-1,4
 1073 565 1073 565 1044 565 c 0,5,6
 1022 565 1022 565 1000.5 550.5 c 128,-1,7
 979 536 979 536 962 507 c 128,-1,8
 945 478 945 478 934.5 434.5 c 128,-1,9
 924 391 924 391 924 332 c 0,10,11
 924 260 924 260 935 207 c 128,-1,12
 946 154 946 154 965.5 119.5 c 128,-1,13
 985 85 985 85 1012 68 c 128,-1,14
 1039 51 1039 51 1071 51 c 0,15,16
 1096 51 1096 51 1118 66 c 128,-1,17
 1140 81 1140 81 1157 111 c 128,-1,18
 1174 141 1174 141 1184 185.5 c 128,-1,19
 1194 230 1194 230 1194 289 c 0,0,1
1337 309 m 0,20,21
 1337 240 1337 240 1313 178.5 c 128,-1,22
 1289 117 1289 117 1249 70.5 c 128,-1,23
 1209 24 1209 24 1155.5 -3 c 128,-1,24
 1102 -30 1102 -30 1044 -30 c 256,25,26
 986 -30 986 -30 937 -3 c 128,-1,27
 888 24 888 24 853 70.5 c 128,-1,28
 818 117 818 117 798 178.5 c 128,-1,29
 778 240 778 240 778 309 c 256,30,31
 778 378 778 378 802.5 439.5 c 128,-1,32
 827 501 827 501 867.5 547 c 128,-1,33
 908 593 908 593 961 619.5 c 128,-1,34
 1014 646 1014 646 1071 646 c 0,35,36
 1131 646 1131 646 1180 619.5 c 128,-1,37
 1229 593 1229 593 1264 547.5 c 128,-1,38
 1299 502 1299 502 1318 440.5 c 128,-1,39
 1337 379 1337 379 1337 309 c 0,20,21
358 17 m 1,40,41
 349 10 349 10 331.5 2.5 c 128,-1,42
 314 -5 314 -5 294 -11.5 c 128,-1,43
 274 -18 274 -18 254.5 -24 c 128,-1,44
 235 -30 235 -30 223 -34 c 1,45,-1
 199 1 l 1,46,-1
 1055 1188 l 1,47,48
 1083 1205 1083 1205 1120 1217 c 128,-1,49
 1157 1229 1157 1229 1188 1237 c 1,50,-1
 1217 1204 l 1,51,-1
 358 17 l 1,40,41
492 877 m 0,52,53
 492 948 492 948 479.5 1000 c 128,-1,54
 467 1052 467 1052 446 1086 c 128,-1,55
 425 1120 425 1120 398 1136.5 c 128,-1,56
 371 1153 371 1153 342 1153 c 0,57,58
 320 1153 320 1153 298.5 1138.5 c 128,-1,59
 277 1124 277 1124 259.5 1095 c 128,-1,60
 242 1066 242 1066 231.5 1022.5 c 128,-1,61
 221 979 221 979 221 920 c 0,62,63
 221 848 221 848 232 795 c 128,-1,64
 243 742 243 742 262.5 707.5 c 128,-1,65
 282 673 282 673 309.5 656 c 128,-1,66
 337 639 337 639 369 639 c 0,67,68
 393 639 393 639 415.5 654 c 128,-1,69
 438 669 438 669 455 699 c 128,-1,70
 472 729 472 729 482 773.5 c 128,-1,71
 492 818 492 818 492 877 c 0,52,53
637 897 m 0,72,73
 637 828 637 828 613 766.5 c 128,-1,74
 589 705 589 705 548.5 658.5 c 128,-1,75
 508 612 508 612 454.5 585 c 128,-1,76
 401 558 401 558 342 558 c 256,77,78
 283 558 283 558 234.5 585 c 128,-1,79
 186 612 186 612 150.5 658.5 c 128,-1,80
 115 705 115 705 95.5 766.5 c 128,-1,81
 76 828 76 828 76 897 c 256,82,83
 76 966 76 966 100 1027.5 c 128,-1,84
 124 1089 124 1089 164.5 1134.5 c 128,-1,85
 205 1180 205 1180 258 1207 c 128,-1,86
 311 1234 311 1234 369 1234 c 0,87,88
 429 1234 429 1234 478 1207.5 c 128,-1,89
 527 1181 527 1181 562.5 1135 c 128,-1,90
 598 1089 598 1089 617.5 1028 c 128,-1,91
 637 967 637 967 637 897 c 0,72,73
EndSplineSet
EndChar

StartChar: ampersand
Encoding: 38 38 9
Width: 1366
Flags: W
LayerCount: 2
Fore
SplineSet
444 1130 m 0,0,1
 444 1072 444 1072 461 1008.5 c 128,-1,2
 478 945 478 945 508 879 c 1,3,4
 576 918 576 918 619 956 c 128,-1,5
 662 994 662 994 686.5 1031 c 128,-1,6
 711 1068 711 1068 720 1103 c 128,-1,7
 729 1138 729 1138 729 1171 c 0,8,9
 729 1206 729 1206 720 1237 c 128,-1,10
 711 1268 711 1268 693.5 1291.5 c 128,-1,11
 676 1315 676 1315 649.5 1329 c 128,-1,12
 623 1343 623 1343 588 1343 c 0,13,14
 552 1343 552 1343 525 1324.5 c 128,-1,15
 498 1306 498 1306 480 1276 c 128,-1,16
 462 1246 462 1246 453 1207.5 c 128,-1,17
 444 1169 444 1169 444 1130 c 0,0,1
528 84 m 0,18,19
 613 84 613 84 684 111 c 128,-1,20
 755 138 755 138 812 183 c 1,21,22
 762 235 762 235 709 295.5 c 128,-1,23
 656 356 656 356 605.5 422.5 c 128,-1,24
 555 489 555 489 508.5 560 c 128,-1,25
 462 631 462 631 425 703 c 1,26,27
 374 659 374 659 339 618 c 128,-1,28
 304 577 304 577 282.5 536.5 c 128,-1,29
 261 496 261 496 251.5 455.5 c 128,-1,30
 242 415 242 415 242 373 c 0,31,32
 242 303 242 303 266 249 c 128,-1,33
 290 195 290 195 330 158.5 c 128,-1,34
 370 122 370 122 421.5 103 c 128,-1,35
 473 84 473 84 528 84 c 0,18,19
1346 748 m 1,36,37
 1321 717 1321 717 1296.5 696.5 c 128,-1,38
 1272 676 1272 676 1247 659 c 1,39,40
 1229 668 1229 668 1206 675 c 128,-1,41
 1183 682 1183 682 1159.5 687.5 c 128,-1,42
 1136 693 1136 693 1114 696 c 128,-1,43
 1092 699 1092 699 1075 700 c 1,44,45
 1086 682 1086 682 1092.5 666.5 c 128,-1,46
 1099 651 1099 651 1102.5 633 c 128,-1,47
 1106 615 1106 615 1107 593.5 c 128,-1,48
 1108 572 1108 572 1108 543 c 0,49,50
 1108 472 1108 472 1077 393 c 128,-1,51
 1046 314 1046 314 989 239 c 1,52,53
 1058 173 1058 173 1116 127 c 1,54,55
 1154 95 1154 95 1198 84.5 c 128,-1,56
 1242 74 1242 74 1300 88 c 1,57,-1
 1309 45 l 1,58,59
 1222 7 1222 7 1162.5 -11.5 c 128,-1,60
 1103 -30 1103 -30 1081 -30 c 256,61,62
 1059 -30 1059 -30 1004 10 c 128,-1,63
 949 50 949 50 877 119 c 1,64,65
 799 53 799 53 703 11.5 c 128,-1,66
 607 -30 607 -30 498 -30 c 0,67,68
 405 -30 405 -30 328 -5.5 c 128,-1,69
 251 19 251 19 196 67 c 128,-1,70
 141 115 141 115 110.5 186.5 c 128,-1,71
 80 258 80 258 80 352 c 0,72,73
 80 408 80 408 100 466 c 128,-1,74
 120 524 120 524 158 581 c 128,-1,75
 196 638 196 638 252 693 c 128,-1,76
 308 748 308 748 380 799 c 1,77,78
 351 870 351 870 334 938.5 c 128,-1,79
 317 1007 317 1007 317 1073 c 0,80,81
 317 1154 317 1154 344 1223 c 128,-1,82
 371 1292 371 1292 416 1342.5 c 128,-1,83
 461 1393 461 1393 519.5 1421.5 c 128,-1,84
 578 1450 578 1450 641 1450 c 0,85,86
 705 1450 705 1450 748.5 1429.5 c 128,-1,87
 792 1409 792 1409 818.5 1375 c 128,-1,88
 845 1341 845 1341 856.5 1296.5 c 128,-1,89
 868 1252 868 1252 868 1204 c 0,90,91
 868 1099 868 1099 802.5 1007.5 c 128,-1,92
 737 916 737 916 618 842 c 0,93,94
 599 830 599 830 582 818.5 c 128,-1,95
 565 807 565 807 549 796 c 1,96,97
 584 731 584 731 627.5 666 c 128,-1,98
 671 601 671 601 719.5 538 c 128,-1,99
 768 475 768 475 819.5 416 c 128,-1,100
 871 357 871 357 922 305 c 1,101,102
 954 355 954 355 970.5 406 c 128,-1,103
 987 457 987 457 987 502 c 0,104,105
 987 544 987 544 973 581 c 128,-1,106
 959 618 959 618 936.5 645.5 c 128,-1,107
 914 673 914 673 885 689 c 128,-1,108
 856 705 856 705 827 705 c 1,109,-1
 805 733 l 1,110,111
 816 746 816 746 837.5 761 c 128,-1,112
 859 776 859 776 879 784 c 1,113,-1
 1323 784 l 1,114,-1
 1346 748 l 1,36,37
EndSplineSet
EndChar

StartChar: quotesingle
Encoding: 39 39 10
Width: 512
Flags: W
LayerCount: 2
Fore
SplineSet
309 834 m 1,0,1
 301 830 301 830 289.5 826 c 128,-1,2
 278 822 278 822 265 819 c 128,-1,3
 252 816 252 816 238.5 814.5 c 128,-1,4
 225 813 225 813 213 813 c 1,5,-1
 160 1426 l 1,6,7
 171 1432 171 1432 192 1440.5 c 128,-1,8
 213 1449 213 1449 235.5 1457 c 128,-1,9
 258 1465 258 1465 278 1471.5 c 128,-1,10
 298 1478 298 1478 309 1480 c 1,11,-1
 352 1459 l 1,12,-1
 309 834 l 1,0,1
EndSplineSet
EndChar

StartChar: parenleft
Encoding: 40 40 11
Width: 649
Flags: W
LayerCount: 2
Fore
SplineSet
578 -315 m 1,0,1
 465 -263 465 -263 379.5 -169.5 c 128,-1,2
 294 -76 294 -76 236.5 47 c 128,-1,3
 179 170 179 170 150 317 c 128,-1,4
 121 464 121 464 121 623 c 0,5,6
 121 787 121 787 153.5 940 c 128,-1,7
 186 1093 186 1093 246 1222 c 128,-1,8
 306 1351 306 1351 390.5 1448.5 c 128,-1,9
 475 1546 475 1546 578 1600 c 1,10,-1
 610 1555 l 1,11,12
 545 1501 545 1501 487 1413 c 128,-1,13
 429 1325 429 1325 385.5 1209 c 128,-1,14
 342 1093 342 1093 316.5 952 c 128,-1,15
 291 811 291 811 291 651 c 0,16,17
 291 505 291 505 312 366.5 c 128,-1,18
 333 228 333 228 374 107.5 c 128,-1,19
 415 -13 415 -13 474 -110 c 128,-1,20
 533 -207 533 -207 610 -270 c 1,21,-1
 578 -315 l 1,0,1
EndSplineSet
EndChar

StartChar: parenright
Encoding: 41 41 12
Width: 649
Flags: W
LayerCount: 2
Fore
SplineSet
530 664 m 0,0,1
 530 499 530 499 497 345.5 c 128,-1,2
 464 192 464 192 404 63 c 128,-1,3
 344 -66 344 -66 259.5 -163.5 c 128,-1,4
 175 -261 175 -261 72 -315 c 1,5,-1
 41 -270 l 1,6,7
 105 -216 105 -216 163 -128 c 128,-1,8
 221 -40 221 -40 265 76 c 128,-1,9
 309 192 309 192 334.5 333 c 128,-1,10
 360 474 360 474 360 635 c 0,11,12
 360 780 360 780 339 918.5 c 128,-1,13
 318 1057 318 1057 277.5 1178 c 128,-1,14
 237 1299 237 1299 177.5 1396 c 128,-1,15
 118 1493 118 1493 41 1555 c 1,16,-1
 72 1600 l 1,17,18
 185 1549 185 1549 270.5 1455.5 c 128,-1,19
 356 1362 356 1362 414 1239 c 128,-1,20
 472 1116 472 1116 501 969.5 c 128,-1,21
 530 823 530 823 530 664 c 0,0,1
EndSplineSet
EndChar

StartChar: asterisk
Encoding: 42 42 13
Width: 915
Flags: W
LayerCount: 2
Fore
SplineSet
489 1188 m 1,0,-1
 750 1384 l 1,1,2
 771 1370 771 1370 799.5 1352 c 128,-1,3
 828 1334 828 1334 844 1317 c 1,4,-1
 846 1276 l 1,5,-1
 520 1135 l 1,6,-1
 821 1006 l 1,7,8
 819 981 819 981 818 947 c 128,-1,9
 817 913 817 913 809 891 c 1,10,-1
 772 868 l 1,11,-1
 490 1079 l 1,12,-1
 528 756 l 1,13,14
 517 750 517 750 504 742.5 c 128,-1,15
 491 735 491 735 476.5 728.5 c 128,-1,16
 462 722 462 722 448.5 716.5 c 128,-1,17
 435 711 435 711 424 709 c 1,18,-1
 385 727 l 1,19,-1
 427 1079 l 1,20,-1
 166 883 l 1,21,22
 155 890 155 890 141.5 898.5 c 128,-1,23
 128 907 128 907 115 916 c 128,-1,24
 102 925 102 925 90.5 933.5 c 128,-1,25
 79 942 79 942 72 950 c 1,26,-1
 70 993 l 1,27,-1
 396 1133 l 1,28,-1
 94 1262 l 1,29,30
 95 1274 95 1274 95.5 1289.5 c 128,-1,31
 96 1305 96 1305 97 1321 c 128,-1,32
 98 1337 98 1337 100 1351.5 c 128,-1,33
 102 1366 102 1366 106 1376 c 1,34,-1
 141 1399 l 1,35,-1
 426 1187 l 1,36,-1
 387 1513 l 1,37,38
 398 1519 398 1519 412 1526 c 128,-1,39
 426 1533 426 1533 440.5 1540 c 128,-1,40
 455 1547 455 1547 469 1552.5 c 128,-1,41
 483 1558 483 1558 494 1561 c 1,42,-1
 530 1540 l 1,43,-1
 489 1188 l 1,0,-1
EndSplineSet
EndChar

StartChar: plus
Encoding: 43 43 14
Width: 840
Flags: W
LayerCount: 2
Fore
SplineSet
477 236 m 1,0,1
 457 226 457 226 433 218 c 128,-1,2
 409 210 409 210 387 205 c 1,3,-1
 362 227 l 1,4,-1
 362 507 l 1,5,-1
 86 507 l 1,6,-1
 61 531 l 1,7,8
 66 551 66 551 74.5 574 c 128,-1,9
 83 597 83 597 92 617 c 1,10,-1
 362 617 l 1,11,-1
 362 891 l 1,12,13
 381 897 381 897 406 906 c 128,-1,14
 431 915 431 915 453 920 c 1,15,-1
 477 897 l 1,16,-1
 477 617 l 1,17,-1
 754 617 l 1,18,-1
 778 593 l 1,19,20
 773 573 773 573 764.5 548.5 c 128,-1,21
 756 524 756 524 748 507 c 1,22,-1
 477 507 l 1,23,-1
 477 236 l 1,0,1
EndSplineSet
EndChar

StartChar: comma
Encoding: 44 44 15
Width: 469
Flags: W
LayerCount: 2
Fore
SplineSet
390 70 m 0,0,1
 390 31 390 31 374.5 -18 c 128,-1,2
 359 -67 359 -67 330 -118 c 128,-1,3
 301 -169 301 -169 259.5 -217.5 c 128,-1,4
 218 -266 218 -266 166 -305 c 1,5,-1
 121 -270 l 1,6,7
 149 -238 149 -238 168.5 -208 c 128,-1,8
 188 -178 188 -178 201 -146 c 128,-1,9
 214 -114 214 -114 220 -78.5 c 128,-1,10
 226 -43 226 -43 226 0 c 0,11,12
 226 44 226 44 197 70 c 128,-1,13
 168 96 168 96 104 92 c 1,14,-1
 88 139 l 1,15,16
 97 151 97 151 126 166.5 c 128,-1,17
 155 182 155 182 189.5 196.5 c 128,-1,18
 224 211 224 211 257.5 220.5 c 128,-1,19
 291 230 291 230 309 229 c 1,20,21
 357 206 357 206 373.5 166.5 c 128,-1,22
 390 127 390 127 390 70 c 0,0,1
EndSplineSet
EndChar

StartChar: period
Encoding: 46 46 17
Width: 469
Flags: W
LayerCount: 2
Fore
SplineSet
369 123 m 0,0,1
 369 88 369 88 358.5 58.5 c 128,-1,2
 348 29 348 29 329.5 7 c 128,-1,3
 311 -15 311 -15 285.5 -27.5 c 128,-1,4
 260 -40 260 -40 231 -40 c 0,5,6
 177 -40 177 -40 154 -11 c 128,-1,7
 131 18 131 18 131 72 c 0,8,9
 131 106 131 106 142 135.5 c 128,-1,10
 153 165 153 165 172 187.5 c 128,-1,11
 191 210 191 210 216.5 223 c 128,-1,12
 242 236 242 236 270 236 c 0,13,14
 320 236 320 236 344.5 206.5 c 128,-1,15
 369 177 369 177 369 123 c 0,0,1
EndSplineSet
EndChar

StartChar: slash
Encoding: 47 47 18
Width: 961
Flags: W
LayerCount: 2
Fore
SplineSet
211 -284 m 1,0,1
 201 -291 201 -291 185 -298.5 c 128,-1,2
 169 -306 169 -306 151 -312.5 c 128,-1,3
 133 -319 133 -319 115.5 -325 c 128,-1,4
 98 -331 98 -331 86 -335 c 1,5,-1
 49 -310 l 1,6,-1
 750 1551 l 1,7,8
 777 1568 777 1568 810 1580 c 128,-1,9
 843 1592 843 1592 872 1600 c 1,10,-1
 909 1578 l 1,11,-1
 211 -284 l 1,0,1
EndSplineSet
EndChar

StartChar: zero
Encoding: 48 48 19
Width: 961
GlyphClass: 2
Flags: W
AnchorPoint: "Anchor-4" 961 900 basechar 0
AnchorPoint: "Anchor-3" 480 -100 basechar 0
AnchorPoint: "Anchor-2" 480 -100 basechar 0
AnchorPoint: "Anchor-1" 480 -100 basechar 0
AnchorPoint: "Anchor-0" 480 1370 basechar 0
LayerCount: 2
Fore
SplineSet
721 565 m 0,0,1
 721 702 721 702 699.5 806 c 128,-1,2
 678 910 678 910 642 979.5 c 128,-1,3
 606 1049 606 1049 559 1084.5 c 128,-1,4
 512 1120 512 1120 461 1120 c 256,5,6
 410 1120 410 1120 369 1092.5 c 128,-1,7
 328 1065 328 1065 299.5 1007.5 c 128,-1,8
 271 950 271 950 255.5 860 c 128,-1,9
 240 770 240 770 240 645 c 0,10,11
 240 508 240 508 260 403 c 128,-1,12
 280 298 280 298 314.5 227.5 c 128,-1,13
 349 157 349 157 396.5 121 c 128,-1,14
 444 85 444 85 500 85 c 0,15,16
 552 85 552 85 593 112.5 c 128,-1,17
 634 140 634 140 662.5 198.5 c 128,-1,18
 691 257 691 257 706 347.5 c 128,-1,19
 721 438 721 438 721 565 c 0,0,1
885 602 m 0,20,21
 885 473 885 473 854.5 358 c 128,-1,22
 824 243 824 243 768.5 157 c 128,-1,23
 713 71 713 71 634.5 20.5 c 128,-1,24
 556 -30 556 -30 461 -30 c 256,25,26
 366 -30 366 -30 294 20.5 c 128,-1,27
 222 71 222 71 173.5 157 c 128,-1,28
 125 243 125 243 100.5 358 c 128,-1,29
 76 473 76 473 76 602 c 256,30,31
 76 731 76 731 107 846 c 128,-1,32
 138 961 138 961 193.5 1047.5 c 128,-1,33
 249 1134 249 1134 327 1184.5 c 128,-1,34
 405 1235 405 1235 500 1235 c 256,35,36
 595 1235 595 1235 667 1185 c 128,-1,37
 739 1135 739 1135 787.5 1049 c 128,-1,38
 836 963 836 963 860.5 847.5 c 128,-1,39
 885 732 885 732 885 602 c 0,20,21
EndSplineSet
EndChar

StartChar: one
Encoding: 49 49 20
Width: 961
GlyphClass: 2
Flags: W
AnchorPoint: "Anchor-4" 961 900 basechar 0
AnchorPoint: "Anchor-3" 480 -100 basechar 0
AnchorPoint: "Anchor-2" 480 -100 basechar 0
AnchorPoint: "Anchor-1" 480 -100 basechar 0
AnchorPoint: "Anchor-0" 480 1370 basechar 0
LayerCount: 2
Fore
SplineSet
170 0 m 1,0,-1
 170 53 l 1,1,2
 248 62 248 62 300 73.5 c 128,-1,3
 352 85 352 85 383 97 c 128,-1,4
 414 109 414 109 427 120.5 c 128,-1,5
 440 132 440 132 440 143 c 2,6,-1
 440 940 l 2,7,8
 440 980 440 980 437 1002 c 128,-1,9
 434 1024 434 1024 422 1038 c 0,10,11
 416 1044 416 1044 399 1048 c 128,-1,12
 382 1052 382 1052 351 1051 c 128,-1,13
 320 1050 320 1050 273 1044 c 128,-1,14
 226 1038 226 1038 160 1024 c 1,15,-1
 139 1075 l 1,16,17
 181 1087 181 1087 238.5 1108 c 128,-1,18
 296 1129 296 1129 355 1153.5 c 128,-1,19
 414 1178 414 1178 467 1202.5 c 128,-1,20
 520 1227 520 1227 553 1245 c 1,21,-1
 590 1210 l 1,22,-1
 590 143 l 2,23,24
 590 133 590 133 601 121.5 c 128,-1,25
 612 110 612 110 640 98 c 128,-1,26
 668 86 668 86 716.5 74 c 128,-1,27
 765 62 765 62 840 53 c 1,28,-1
 840 0 l 1,29,-1
 170 0 l 1,0,-1
EndSplineSet
EndChar

StartChar: two
Encoding: 50 50 21
Width: 961
GlyphClass: 2
Flags: W
AnchorPoint: "Anchor-4" 961 900 basechar 0
AnchorPoint: "Anchor-3" 480 -100 basechar 0
AnchorPoint: "Anchor-2" 480 -100 basechar 0
AnchorPoint: "Anchor-1" 480 -100 basechar 0
AnchorPoint: "Anchor-0" 480 1370 basechar 0
LayerCount: 2
Fore
SplineSet
821 0 m 1,0,-1
 127 0 l 1,1,-1
 98 74 l 1,2,3
 217 212 217 212 305.5 318 c 128,-1,4
 394 424 394 424 457 505.5 c 128,-1,5
 520 587 520 587 561 648.5 c 128,-1,6
 602 710 602 710 626 758.5 c 128,-1,7
 650 807 650 807 659 846.5 c 128,-1,8
 668 886 668 886 668 924 c 0,9,10
 668 970 668 970 657 1010.5 c 128,-1,11
 646 1051 646 1051 622 1081 c 128,-1,12
 598 1111 598 1111 559.5 1128 c 128,-1,13
 521 1145 521 1145 467 1145 c 0,14,15
 426 1145 426 1145 391.5 1125 c 128,-1,16
 357 1105 357 1105 332.5 1074.5 c 128,-1,17
 308 1044 308 1044 294 1006.5 c 128,-1,18
 280 969 280 969 280 934 c 1,19,20
 263 925 263 925 249.5 917 c 128,-1,21
 236 909 236 909 222 902.5 c 128,-1,22
 208 896 208 896 191.5 891.5 c 128,-1,23
 175 887 175 887 152 885 c 1,24,-1
 125 915 l 1,25,26
 125 967 125 967 160 1023.5 c 128,-1,27
 195 1080 195 1080 253 1127 c 128,-1,28
 311 1174 311 1174 384.5 1204.5 c 128,-1,29
 458 1235 458 1235 535 1235 c 0,30,31
 595 1235 595 1235 647.5 1218 c 128,-1,32
 700 1201 700 1201 739 1166.5 c 128,-1,33
 778 1132 778 1132 800.5 1078.5 c 128,-1,34
 823 1025 823 1025 823 952 c 0,35,36
 823 907 823 907 810 862 c 128,-1,37
 797 817 797 817 769.5 764.5 c 128,-1,38
 742 712 742 712 698.5 650 c 128,-1,39
 655 588 655 588 593 510.5 c 128,-1,40
 531 433 531 433 450 337 c 128,-1,41
 369 241 369 241 266 121 c 1,42,-1
 684 121 l 2,43,44
 701 121 701 121 714.5 128.5 c 128,-1,45
 728 136 728 136 738.5 148.5 c 128,-1,46
 749 161 749 161 756.5 177 c 128,-1,47
 764 193 764 193 769 210 c 0,48,49
 781 249 781 249 786 299 c 1,50,-1
 836 287 l 1,51,-1
 821 0 l 1,0,-1
EndSplineSet
EndChar

StartChar: three
Encoding: 51 51 22
Width: 961
GlyphClass: 2
Flags: W
AnchorPoint: "Anchor-4" 961 900 basechar 0
AnchorPoint: "Anchor-3" 480 -100 basechar 0
AnchorPoint: "Anchor-2" 480 -100 basechar 0
AnchorPoint: "Anchor-1" 480 -100 basechar 0
AnchorPoint: "Anchor-0" 480 1370 basechar 0
LayerCount: 2
Fore
SplineSet
825 381 m 0,0,1
 825 297 825 297 798 222 c 128,-1,2
 771 147 771 147 718 91 c 128,-1,3
 665 35 665 35 587 2.5 c 128,-1,4
 509 -30 509 -30 406 -30 c 0,5,6
 367 -30 367 -30 326 -23 c 128,-1,7
 285 -16 285 -16 242.5 1.5 c 128,-1,8
 200 19 200 19 156.5 47.5 c 128,-1,9
 113 76 113 76 68 119 c 1,10,-1
 102 186 l 1,11,12
 147 152 147 152 184.5 130 c 128,-1,13
 222 108 222 108 255.5 94.5 c 128,-1,14
 289 81 289 81 322 75.5 c 128,-1,15
 355 70 355 70 393 70 c 0,16,17
 454 70 454 70 504 89.5 c 128,-1,18
 554 109 554 109 590 145 c 128,-1,19
 626 181 626 181 645.5 232.5 c 128,-1,20
 665 284 665 284 665 348 c 0,21,22
 665 423 665 423 641.5 475.5 c 128,-1,23
 618 528 618 528 581.5 561 c 128,-1,24
 545 594 545 594 499.5 608.5 c 128,-1,25
 454 623 454 623 410 623 c 2,26,-1
 389 623 l 2,27,28
 383 623 383 623 377.5 622 c 128,-1,29
 372 621 372 621 364.5 620 c 128,-1,30
 357 619 357 619 342 616 c 1,31,-1
 328 676 l 1,32,33
 420 701 420 701 475 734 c 128,-1,34
 530 767 530 767 559.5 802.5 c 128,-1,35
 589 838 589 838 598.5 873.5 c 128,-1,36
 608 909 608 909 608 940 c 0,37,38
 608 974 608 974 597.5 1010.5 c 128,-1,39
 587 1047 587 1047 564.5 1077 c 128,-1,40
 542 1107 542 1107 508 1126 c 128,-1,41
 474 1145 474 1145 426 1145 c 0,42,43
 386 1145 386 1145 354.5 1131 c 128,-1,44
 323 1117 323 1117 302 1093 c 128,-1,45
 281 1069 281 1069 272.5 1038 c 128,-1,46
 264 1007 264 1007 270 973 c 1,47,48
 236 956 236 956 205 946.5 c 128,-1,49
 174 937 174 937 131 934 c 1,50,-1
 104 965 l 1,51,52
 104 1007 104 1007 135 1054.5 c 128,-1,53
 166 1102 166 1102 218 1142 c 128,-1,54
 270 1182 270 1182 338.5 1208.5 c 128,-1,55
 407 1235 407 1235 483 1235 c 0,56,57
 558 1235 558 1235 611.5 1211 c 128,-1,58
 665 1187 665 1187 700 1147.5 c 128,-1,59
 735 1108 735 1108 751.5 1058.5 c 128,-1,60
 768 1009 768 1009 768 958 c 0,61,62
 768 920 768 920 753 883 c 128,-1,63
 738 846 738 846 710.5 812 c 128,-1,64
 683 778 683 778 643.5 749 c 128,-1,65
 604 720 604 720 555 698 c 1,66,67
 612 691 612 691 661.5 663.5 c 128,-1,68
 711 636 711 636 747 593.5 c 128,-1,69
 783 551 783 551 804 496.5 c 128,-1,70
 825 442 825 442 825 381 c 0,0,1
EndSplineSet
EndChar

StartChar: four
Encoding: 52 52 23
Width: 961
GlyphClass: 2
Flags: W
AnchorPoint: "Anchor-4" 961 900 basechar 0
AnchorPoint: "Anchor-3" 480 -100 basechar 0
AnchorPoint: "Anchor-2" 480 -100 basechar 0
AnchorPoint: "Anchor-1" 480 -100 basechar 0
AnchorPoint: "Anchor-0" 480 1370 basechar 0
LayerCount: 2
Fore
SplineSet
585 1040 m 1,0,-1
 213 460 l 1,1,-1
 585 460 l 1,2,-1
 585 1040 l 1,0,-1
874 430 m 1,3,4
 853 398 853 398 835.5 382.5 c 128,-1,5
 818 367 818 367 795 350 c 1,6,-1
 725 350 l 1,7,-1
 725 104 l 2,8,9
 725 96 725 96 731 89.5 c 128,-1,10
 737 83 737 83 753 75.5 c 128,-1,11
 769 68 769 68 796 60 c 128,-1,12
 823 52 823 52 864 43 c 1,13,-1
 864 0 l 1,14,-1
 375 0 l 1,15,-1
 375 43 l 1,16,17
 440 54 440 54 481 63.5 c 128,-1,18
 522 73 522 73 545 81.5 c 128,-1,19
 568 90 568 90 576.5 98 c 128,-1,20
 585 106 585 106 585 115 c 2,21,-1
 585 350 l 1,22,-1
 88 350 l 1,23,-1
 55 383 l 1,24,-1
 551 1174 l 1,25,26
 593 1192 593 1192 626 1211 c 128,-1,27
 659 1230 659 1230 688 1245 c 1,28,-1
 725 1210 l 1,29,-1
 725 460 l 1,30,-1
 848 460 l 1,31,-1
 874 430 l 1,3,4
EndSplineSet
EndChar

StartChar: five
Encoding: 53 53 24
Width: 961
GlyphClass: 2
Flags: W
AnchorPoint: "Anchor-4" 961 900 basechar 0
AnchorPoint: "Anchor-3" 480 -100 basechar 0
AnchorPoint: "Anchor-2" 480 -100 basechar 0
AnchorPoint: "Anchor-1" 480 -100 basechar 0
AnchorPoint: "Anchor-0" 480 1370 basechar 0
LayerCount: 2
Fore
SplineSet
836 410 m 0,0,1
 836 323 836 323 809.5 243.5 c 128,-1,2
 783 164 783 164 732.5 103 c 128,-1,3
 682 42 682 42 608 6 c 128,-1,4
 534 -30 534 -30 440 -30 c 0,5,6
 347 -30 347 -30 256 4 c 128,-1,7
 165 38 165 38 78 119 c 1,8,-1
 113 186 l 1,9,10
 166 149 166 149 209.5 126.5 c 128,-1,11
 253 104 253 104 290 91.5 c 128,-1,12
 327 79 327 79 358 74.5 c 128,-1,13
 389 70 389 70 418 70 c 0,14,15
 483 70 483 70 531.5 95 c 128,-1,16
 580 120 580 120 612 161.5 c 128,-1,17
 644 203 644 203 660 256.5 c 128,-1,18
 676 310 676 310 676 367 c 0,19,20
 676 435 676 435 659.5 491 c 128,-1,21
 643 547 643 547 609.5 586.5 c 128,-1,22
 576 626 576 626 524.5 648 c 128,-1,23
 473 670 473 670 403 670 c 0,24,25
 382 670 382 670 355 665 c 128,-1,26
 328 660 328 660 298.5 650 c 128,-1,27
 269 640 269 640 239.5 625 c 128,-1,28
 210 610 210 610 184 590 c 1,29,-1
 137 623 l 1,30,31
 143 659 143 659 151 706.5 c 128,-1,32
 159 754 159 754 167.5 807 c 128,-1,33
 176 860 176 860 184.5 915.5 c 128,-1,34
 193 971 193 971 200 1023.5 c 128,-1,35
 207 1076 207 1076 212 1123 c 128,-1,36
 217 1170 217 1170 219 1205 c 1,37,-1
 655 1205 l 2,38,39
 684 1205 684 1205 706 1207.5 c 128,-1,40
 728 1210 728 1210 744 1214 c 0,41,42
 762 1218 762 1218 776 1223 c 1,43,-1
 805 1194 l 1,44,45
 794 1178 794 1178 779.5 1160.5 c 128,-1,46
 765 1143 765 1143 750 1127 c 128,-1,47
 735 1111 735 1111 720.5 1097.5 c 128,-1,48
 706 1084 706 1084 694 1075 c 1,49,-1
 307 1075 l 1,50,51
 305 1046 305 1046 300 1000.5 c 128,-1,52
 295 955 295 955 288.5 907.5 c 128,-1,53
 282 860 282 860 275 818 c 128,-1,54
 268 776 268 776 264 754 c 1,55,56
 304 766 304 766 358 773 c 128,-1,57
 412 780 412 780 463 780 c 0,58,59
 554 780 554 780 623.5 749.5 c 128,-1,60
 693 719 693 719 740 668 c 128,-1,61
 787 617 787 617 811.5 550 c 128,-1,62
 836 483 836 483 836 410 c 0,0,1
EndSplineSet
EndChar

StartChar: six
Encoding: 54 54 25
Width: 961
GlyphClass: 2
Flags: W
AnchorPoint: "Anchor-4" 961 900 basechar 0
AnchorPoint: "Anchor-3" 480 -100 basechar 0
AnchorPoint: "Anchor-2" 480 -100 basechar 0
AnchorPoint: "Anchor-1" 480 -100 basechar 0
AnchorPoint: "Anchor-0" 480 1370 basechar 0
LayerCount: 2
Fore
SplineSet
500 660 m 0,0,1
 449 660 449 660 387.5 631.5 c 128,-1,2
 326 603 326 603 270 536 c 1,3,4
 270 417 270 417 289.5 330.5 c 128,-1,5
 309 244 309 244 345 187 c 128,-1,6
 381 130 381 130 432 102.5 c 128,-1,7
 483 75 483 75 545 75 c 0,8,9
 599 75 599 75 634.5 100.5 c 128,-1,10
 670 126 670 126 691.5 165.5 c 128,-1,11
 713 205 713 205 722 253.5 c 128,-1,12
 731 302 731 302 731 348 c 0,13,14
 731 442 731 442 708.5 502.5 c 128,-1,15
 686 563 686 563 652 598 c 128,-1,16
 618 633 618 633 577.5 646.5 c 128,-1,17
 537 660 537 660 500 660 c 0,0,1
881 412 m 0,18,19
 881 365 881 365 870.5 314 c 128,-1,20
 860 263 860 263 838.5 214 c 128,-1,21
 817 165 817 165 785.5 121 c 128,-1,22
 754 77 754 77 712.5 43.5 c 128,-1,23
 671 10 671 10 619 -10 c 128,-1,24
 567 -30 567 -30 506 -30 c 0,25,26
 424 -30 424 -30 352 6.5 c 128,-1,27
 280 43 280 43 226 109 c 128,-1,28
 172 175 172 175 141 267.5 c 128,-1,29
 110 360 110 360 110 473 c 0,30,31
 110 614 110 614 150.5 743.5 c 128,-1,32
 191 873 191 873 275 977 c 128,-1,33
 359 1081 359 1081 486.5 1152.5 c 128,-1,34
 614 1224 614 1224 788 1249 c 1,35,-1
 807 1190 l 1,36,37
 689 1163 689 1163 597.5 1108.5 c 128,-1,38
 506 1054 506 1054 440.5 982 c 128,-1,39
 375 910 375 910 334.5 824.5 c 128,-1,40
 294 739 294 739 279 650 c 1,41,42
 314 684 314 684 350.5 707 c 128,-1,43
 387 730 387 730 421.5 744 c 128,-1,44
 456 758 456 758 487 764 c 128,-1,45
 518 770 518 770 541 770 c 0,46,47
 622 770 622 770 685 745 c 128,-1,48
 748 720 748 720 791.5 673.5 c 128,-1,49
 835 627 835 627 858 560.5 c 128,-1,50
 881 494 881 494 881 412 c 0,18,19
EndSplineSet
EndChar

StartChar: seven
Encoding: 55 55 26
Width: 961
GlyphClass: 2
Flags: W
AnchorPoint: "Anchor-4" 961 900 basechar 0
AnchorPoint: "Anchor-3" 480 -100 basechar 0
AnchorPoint: "Anchor-2" 480 -100 basechar 0
AnchorPoint: "Anchor-1" 480 -100 basechar 0
AnchorPoint: "Anchor-0" 480 1370 basechar 0
LayerCount: 2
Fore
SplineSet
885 1167 m 1,0,1
 839 1059 839 1059 792 949 c 128,-1,2
 745 839 745 839 700.5 732 c 128,-1,3
 656 625 656 625 615 524 c 128,-1,4
 574 423 574 423 539.5 334 c 128,-1,5
 505 245 505 245 477 171 c 128,-1,6
 449 97 449 97 432 44 c 1,7,8
 397 19 397 19 358.5 1 c 128,-1,9
 320 -17 320 -17 270 -30 c 1,10,-1
 229 3 l 1,11,12
 316 156 316 156 385 295 c 128,-1,13
 454 434 454 434 513 564.5 c 128,-1,14
 572 695 572 695 625 821 c 128,-1,15
 678 947 678 947 733 1075 c 1,16,-1
 279 1075 l 2,17,18
 264 1075 264 1075 250 1074 c 128,-1,19
 236 1073 236 1073 221 1060.5 c 128,-1,20
 206 1048 206 1048 188.5 1018 c 128,-1,21
 171 988 171 988 150 930 c 1,22,-1
 104 948 l 1,23,24
 107 971 107 971 112 1006 c 128,-1,25
 117 1041 117 1041 123 1077.5 c 128,-1,26
 129 1114 129 1114 135 1148.5 c 128,-1,27
 141 1183 141 1183 147 1205 c 1,28,-1
 852 1205 l 1,29,-1
 885 1167 l 1,0,1
EndSplineSet
EndChar

StartChar: eight
Encoding: 56 56 27
Width: 961
GlyphClass: 2
Flags: W
AnchorPoint: "Anchor-4" 961 900 basechar 0
AnchorPoint: "Anchor-3" 480 -100 basechar 0
AnchorPoint: "Anchor-2" 480 -100 basechar 0
AnchorPoint: "Anchor-1" 480 -100 basechar 0
AnchorPoint: "Anchor-0" 480 1370 basechar 0
LayerCount: 2
Fore
SplineSet
275 950 m 0,0,1
 275 906 275 906 296.5 873.5 c 128,-1,2
 318 841 318 841 354 815.5 c 128,-1,3
 390 790 390 790 436.5 768.5 c 128,-1,4
 483 747 483 747 533 725 c 1,5,6
 606 778 606 778 636.5 831 c 128,-1,7
 667 884 667 884 667 938 c 0,8,9
 667 990 667 990 651.5 1028.5 c 128,-1,10
 636 1067 636 1067 608 1092 c 128,-1,11
 580 1117 580 1117 540 1129 c 128,-1,12
 500 1141 500 1141 451 1141 c 0,13,14
 406 1141 406 1141 373 1124 c 128,-1,15
 340 1107 340 1107 318.5 1079.5 c 128,-1,16
 297 1052 297 1052 286 1018 c 128,-1,17
 275 984 275 984 275 950 c 0,0,1
707 309 m 0,18,19
 707 375 707 375 683.5 422 c 128,-1,20
 660 469 660 469 622 503 c 128,-1,21
 584 537 584 537 535 562 c 128,-1,22
 486 587 486 587 434 610 c 1,23,24
 386 575 386 575 352 541.5 c 128,-1,25
 318 508 318 508 296.5 473 c 128,-1,26
 275 438 275 438 264.5 399 c 128,-1,27
 254 360 254 360 254 315 c 0,28,29
 254 263 254 263 271 218 c 128,-1,30
 288 173 288 173 320 140 c 128,-1,31
 352 107 352 107 397.5 88.5 c 128,-1,32
 443 70 443 70 500 70 c 0,33,34
 555 70 555 70 594.5 91 c 128,-1,35
 634 112 634 112 659 146 c 128,-1,36
 684 180 684 180 695.5 222.5 c 128,-1,37
 707 265 707 265 707 309 c 0,18,19
867 352 m 0,38,39
 867 274 867 274 834 205 c 128,-1,40
 801 136 801 136 744 83.5 c 128,-1,41
 687 31 687 31 611.5 0.5 c 128,-1,42
 536 -30 536 -30 451 -30 c 0,43,44
 365 -30 365 -30 299 -4 c 128,-1,45
 233 22 233 22 187 66 c 128,-1,46
 141 110 141 110 117.5 166.5 c 128,-1,47
 94 223 94 223 94 285 c 0,48,49
 94 339 94 339 112.5 389.5 c 128,-1,50
 131 440 131 440 165.5 485.5 c 128,-1,51
 200 531 200 531 248.5 571 c 128,-1,52
 297 611 297 611 357 644 c 1,53,54
 314 664 314 664 275.5 688 c 128,-1,55
 237 712 237 712 208 744 c 128,-1,56
 179 776 179 776 162 817.5 c 128,-1,57
 145 859 145 859 145 915 c 0,58,59
 145 984 145 984 172.5 1043 c 128,-1,60
 200 1102 200 1102 248 1144.5 c 128,-1,61
 296 1187 296 1187 361.5 1211 c 128,-1,62
 427 1235 427 1235 502 1235 c 256,63,64
 577 1235 577 1235 635.5 1215 c 128,-1,65
 694 1195 694 1195 734.5 1160 c 128,-1,66
 775 1125 775 1125 796 1076 c 128,-1,67
 817 1027 817 1027 817 969 c 0,68,69
 817 927 817 927 801.5 889.5 c 128,-1,70
 786 852 786 852 759 817.5 c 128,-1,71
 732 783 732 783 694.5 751 c 128,-1,72
 657 719 657 719 613 688 c 1,73,74
 663 664 663 664 709 634.5 c 128,-1,75
 755 605 755 605 790 565 c 128,-1,76
 825 525 825 525 846 473 c 128,-1,77
 867 421 867 421 867 352 c 0,38,39
EndSplineSet
EndChar

StartChar: nine
Encoding: 57 57 28
Width: 961
GlyphClass: 2
Flags: W
AnchorPoint: "Anchor-4" 961 900 basechar 0
AnchorPoint: "Anchor-3" 480 -100 basechar 0
AnchorPoint: "Anchor-2" 480 -100 basechar 0
AnchorPoint: "Anchor-1" 480 -100 basechar 0
AnchorPoint: "Anchor-0" 480 1370 basechar 0
LayerCount: 2
Fore
SplineSet
481 555 m 0,0,1
 550 555 550 555 608.5 593.5 c 128,-1,2
 667 632 667 632 709 694 c 1,3,4
 707 819 707 819 683.5 903 c 128,-1,5
 660 987 660 987 625 1037.5 c 128,-1,6
 590 1088 590 1088 547.5 1109 c 128,-1,7
 505 1130 505 1130 465 1130 c 0,8,9
 414 1130 414 1130 374 1109.5 c 128,-1,10
 334 1089 334 1089 306.5 1052.5 c 128,-1,11
 279 1016 279 1016 264.5 965.5 c 128,-1,12
 250 915 250 915 250 856 c 0,13,14
 250 764 250 764 272.5 705.5 c 128,-1,15
 295 647 295 647 329 613.5 c 128,-1,16
 363 580 363 580 403.5 567.5 c 128,-1,17
 444 555 444 555 481 555 c 0,0,1
870 731 m 0,18,19
 870 579 870 579 829 448.5 c 128,-1,20
 788 318 788 318 704 217.5 c 128,-1,21
 620 117 620 117 492 49.5 c 128,-1,22
 364 -18 364 -18 190 -43 c 1,23,-1
 172 16 l 1,24,25
 305 49 305 49 401.5 103 c 128,-1,26
 498 157 498 157 562 228.5 c 128,-1,27
 626 300 626 300 660.5 388 c 128,-1,28
 695 476 695 476 705 577 c 1,29,30
 678 547 678 547 646 522.5 c 128,-1,31
 614 498 614 498 579.5 481 c 128,-1,32
 545 464 545 464 508.5 454.5 c 128,-1,33
 472 445 472 445 438 445 c 0,34,35
 358 445 358 445 295.5 471.5 c 128,-1,36
 233 498 233 498 189.5 545 c 128,-1,37
 146 592 146 592 123 656 c 128,-1,38
 100 720 100 720 100 795 c 0,39,40
 100 845 100 845 113.5 897.5 c 128,-1,41
 127 950 127 950 152.5 999 c 128,-1,42
 178 1048 178 1048 214.5 1091 c 128,-1,43
 251 1134 251 1134 296 1166 c 128,-1,44
 341 1198 341 1198 394 1216.5 c 128,-1,45
 447 1235 447 1235 506 1235 c 0,46,47
 576 1235 576 1235 641.5 1206 c 128,-1,48
 707 1177 707 1177 758 1115.5 c 128,-1,49
 809 1054 809 1054 839.5 959 c 128,-1,50
 870 864 870 864 870 731 c 0,18,19
EndSplineSet
EndChar

StartChar: less
Encoding: 60 60 31
Width: 899
Flags: W
LayerCount: 2
Fore
SplineSet
838 322 m 1,0,1
 827 312 827 312 818.5 304 c 128,-1,2
 810 296 810 296 800.5 288.5 c 128,-1,3
 791 281 791 281 780 273 c 128,-1,4
 769 265 769 265 754 256 c 1,5,-1
 86 506 l 1,6,-1
 61 530 l 1,7,8
 61 532 61 532 61.5 533 c 128,-1,9
 62 534 62 534 62 536 c 2,10,-1
 65 545 l 2,11,12
 65 547 65 547 67 553 c 2,13,-1
 70 566 l 1,14,-1
 73 574 l 2,15,16
 74 577 74 577 74.5 580.5 c 128,-1,17
 75 584 75 584 77 587 c 1,18,-1
 79 595 l 1,19,-1
 85 613 l 1,20,-1
 90 625 l 1,21,-1
 92 629 l 1,22,-1
 813 899 l 1,23,-1
 838 874 l 1,24,25
 835 863 835 863 831.5 850 c 128,-1,26
 828 837 828 837 824 823 c 128,-1,27
 820 809 820 809 816 796 c 128,-1,28
 812 783 812 783 809 774 c 1,29,-1
 254 568 l 1,30,-1
 821 358 l 1,31,-1
 838 322 l 1,0,1
EndSplineSet
EndChar

StartChar: equal
Encoding: 61 61 32
Width: 899
Flags: W
LayerCount: 2
Fore
SplineSet
838 440 m 1,0,1
 833 419 833 419 824 396.5 c 128,-1,2
 815 374 815 374 809 355 c 1,3,-1
 86 355 l 1,4,-1
 61 382 l 1,5,6
 66 402 66 402 74.5 423.5 c 128,-1,7
 83 445 83 445 92 465 c 1,8,-1
 813 465 l 1,9,-1
 838 440 l 1,0,1
838 740 m 1,10,11
 833 720 833 720 824 696 c 128,-1,12
 815 672 815 672 809 655 c 1,13,-1
 86 655 l 1,14,-1
 61 680 l 1,15,16
 66 700 66 700 74.5 723 c 128,-1,17
 83 746 83 746 92 765 c 1,18,-1
 813 765 l 1,19,-1
 838 740 l 1,10,11
EndSplineSet
EndChar

StartChar: greater
Encoding: 62 62 33
Width: 899
Flags: W
LayerCount: 2
Fore
SplineSet
838 625 m 1,0,1
 833 606 833 606 824.5 576.5 c 128,-1,2
 816 547 816 547 807 524 c 1,3,-1
 86 256 l 1,4,-1
 61 281 l 1,5,6
 64 291 64 291 68 304 c 128,-1,7
 72 317 72 317 76 331 c 128,-1,8
 80 345 80 345 84 357.5 c 128,-1,9
 88 370 88 370 92 379 c 1,10,-1
 643 585 l 1,11,-1
 78 795 l 1,12,-1
 61 834 l 1,13,14
 84 852 84 852 105.5 868 c 128,-1,15
 127 884 127 884 145 899 c 1,16,-1
 815 649 l 1,17,-1
 838 625 l 1,0,1
EndSplineSet
EndChar

StartChar: question
Encoding: 63 63 34
Width: 887
Flags: W
LayerCount: 2
Fore
SplineSet
806 1165 m 0,0,1
 806 1090 806 1090 782.5 1030 c 128,-1,2
 759 970 759 970 723 918 c 128,-1,3
 687 866 687 866 645 818.5 c 128,-1,4
 603 771 603 771 565.5 720.5 c 128,-1,5
 528 670 528 670 501 613 c 128,-1,6
 474 556 474 556 469 485 c 2,7,-1
 463 389 l 1,8,9
 444 375 444 375 429.5 365.5 c 128,-1,10
 415 356 415 356 387 348 c 1,11,-1
 362 369 l 1,12,-1
 354 485 l 2,13,14
 351 542 351 542 371 598.5 c 128,-1,15
 391 655 391 655 423 709.5 c 128,-1,16
 455 764 455 764 493.5 817.5 c 128,-1,17
 532 871 532 871 565 922 c 128,-1,18
 598 973 598 973 620 1022.5 c 128,-1,19
 642 1072 642 1072 642 1120 c 0,20,21
 642 1244 642 1244 585.5 1314 c 128,-1,22
 529 1384 529 1384 424 1384 c 0,23,24
 388 1384 388 1384 355.5 1367.5 c 128,-1,25
 323 1351 323 1351 298 1324 c 128,-1,26
 273 1297 273 1297 258.5 1261 c 128,-1,27
 244 1225 244 1225 244 1186 c 0,28,29
 244 1172 244 1172 247.5 1157 c 128,-1,30
 251 1142 251 1142 256 1128 c 1,31,32
 224 1111 224 1111 189 1103 c 128,-1,33
 154 1095 154 1095 109 1090 c 1,34,-1
 82 1120 l 1,35,36
 80 1128 80 1128 80 1136 c 2,37,-1
 80 1153 l 2,38,39
 80 1223 80 1223 114.5 1283 c 128,-1,40
 149 1343 149 1343 207.5 1387 c 128,-1,41
 266 1431 266 1431 342 1455.5 c 128,-1,42
 418 1480 418 1480 502 1480 c 0,43,44
 575 1480 575 1480 632 1457 c 128,-1,45
 689 1434 689 1434 727.5 1392.5 c 128,-1,46
 766 1351 766 1351 786 1293 c 128,-1,47
 806 1235 806 1235 806 1165 c 0,0,1
539 123 m 0,48,49
 539 88 539 88 528.5 58.5 c 128,-1,50
 518 29 518 29 499.5 7 c 128,-1,51
 481 -15 481 -15 455.5 -27.5 c 128,-1,52
 430 -40 430 -40 401 -40 c 0,53,54
 347 -40 347 -40 324 -11 c 128,-1,55
 301 18 301 18 301 72 c 0,56,57
 301 106 301 106 312 135.5 c 128,-1,58
 323 165 323 165 342 187.5 c 128,-1,59
 361 210 361 210 386.5 223 c 128,-1,60
 412 236 412 236 440 236 c 0,61,62
 490 236 490 236 514.5 206.5 c 128,-1,63
 539 177 539 177 539 123 c 0,48,49
EndSplineSet
EndChar

StartChar: at
Encoding: 64 64 35
Width: 1653
Flags: W
LayerCount: 2
Fore
SplineSet
1014 731 m 1,0,1
 986 787 986 787 952 818.5 c 128,-1,2
 918 850 918 850 858 850 c 0,3,4
 803 850 803 850 757.5 826.5 c 128,-1,5
 712 803 712 803 679 756 c 128,-1,6
 646 709 646 709 628 639 c 128,-1,7
 610 569 610 569 610 475 c 0,8,9
 610 390 610 390 630.5 320.5 c 128,-1,10
 651 251 651 251 682.5 202 c 128,-1,11
 714 153 714 153 752 126.5 c 128,-1,12
 790 100 790 100 825 100 c 0,13,14
 844 100 844 100 862 106.5 c 128,-1,15
 880 113 880 113 901 130 c 128,-1,16
 922 147 922 147 949 176 c 128,-1,17
 976 205 976 205 1014 250 c 1,18,-1
 1014 731 l 1,0,1
1583 549 m 0,19,20
 1583 462 1583 462 1563.5 385.5 c 128,-1,21
 1544 309 1544 309 1510.5 245 c 128,-1,22
 1477 181 1477 181 1433.5 130 c 128,-1,23
 1390 79 1390 79 1343 43.5 c 128,-1,24
 1296 8 1296 8 1248 -11 c 128,-1,25
 1200 -30 1200 -30 1157 -30 c 0,26,27
 1133 -30 1133 -30 1111 -19.5 c 128,-1,28
 1089 -9 1089 -9 1071 14 c 128,-1,29
 1053 37 1053 37 1040 73.5 c 128,-1,30
 1027 110 1027 110 1020 162 c 1,31,32
 979 105 979 105 947.5 68 c 128,-1,33
 916 31 916 31 886 9 c 128,-1,34
 856 -13 856 -13 825 -21.5 c 128,-1,35
 794 -30 794 -30 754 -30 c 0,36,37
 703 -30 703 -30 650.5 2.5 c 128,-1,38
 598 35 598 35 556 96 c 128,-1,39
 514 157 514 157 487 245 c 128,-1,40
 460 333 460 333 460 444 c 0,41,42
 460 501 460 501 473.5 562 c 128,-1,43
 487 623 487 623 513 680 c 128,-1,44
 539 737 539 737 577 788 c 128,-1,45
 615 839 615 839 662.5 877.5 c 128,-1,46
 710 916 710 916 767 938 c 128,-1,47
 824 960 824 960 889 960 c 0,48,49
 912 960 912 960 931 956.5 c 128,-1,50
 950 953 950 953 968.5 943 c 128,-1,51
 987 933 987 933 1008 915 c 128,-1,52
 1029 897 1029 897 1055 868 c 1,53,54
 1081 884 1081 884 1108 906.5 c 128,-1,55
 1135 929 1135 929 1163 960 c 1,56,-1
 1194 930 l 1,57,58
 1185 901 1185 901 1179 868 c 0,59,60
 1173 839 1173 839 1168.5 802 c 128,-1,61
 1164 765 1164 765 1164 723 c 2,62,-1
 1164 285 l 2,63,64
 1164 195 1164 195 1194 152 c 128,-1,65
 1224 109 1224 109 1272 109 c 0,66,67
 1297 109 1297 109 1330 140.5 c 128,-1,68
 1363 172 1363 172 1392.5 226.5 c 128,-1,69
 1422 281 1422 281 1442.5 354.5 c 128,-1,70
 1463 428 1463 428 1463 512 c 0,71,72
 1463 680 1463 680 1420 811 c 128,-1,73
 1377 942 1377 942 1300.5 1031 c 128,-1,74
 1224 1120 1224 1120 1118 1166.5 c 128,-1,75
 1012 1213 1012 1213 885 1213 c 0,76,77
 783 1213 783 1213 694 1187 c 128,-1,78
 605 1161 605 1161 531 1114.5 c 128,-1,79
 457 1068 457 1068 399.5 1004 c 128,-1,80
 342 940 342 940 302 863.5 c 128,-1,81
 262 787 262 787 241 700.5 c 128,-1,82
 220 614 220 614 220 524 c 0,83,84
 220 403 220 403 245.5 298.5 c 128,-1,85
 271 194 271 194 316.5 107.5 c 128,-1,86
 362 21 362 21 425.5 -46.5 c 128,-1,87
 489 -114 489 -114 565 -160.5 c 128,-1,88
 641 -207 641 -207 727 -231 c 128,-1,89
 813 -255 813 -255 903 -255 c 0,90,91
 987 -255 987 -255 1067.5 -237.5 c 128,-1,92
 1148 -220 1148 -220 1217 -194 c 128,-1,93
 1286 -168 1286 -168 1339.5 -138 c 128,-1,94
 1393 -108 1393 -108 1423 -82 c 1,95,-1
 1450 -137 l 1,96,97
 1414 -175 1414 -175 1356.5 -217 c 128,-1,98
 1299 -259 1299 -259 1223.5 -294 c 128,-1,99
 1148 -329 1148 -329 1055 -352 c 128,-1,100
 962 -375 962 -375 854 -375 c 0,101,102
 682 -375 682 -375 538 -316 c 128,-1,103
 394 -257 394 -257 290 -147.5 c 128,-1,104
 186 -38 186 -38 128 117.5 c 128,-1,105
 70 273 70 273 70 465 c 0,106,107
 70 578 70 578 100.5 686.5 c 128,-1,108
 131 795 131 795 187 891.5 c 128,-1,109
 243 988 243 988 321 1069 c 128,-1,110
 399 1150 399 1150 494 1208.5 c 128,-1,111
 589 1267 589 1267 698 1300 c 128,-1,112
 807 1333 807 1333 924 1333 c 0,113,114
 1073 1333 1073 1333 1194.5 1282.5 c 128,-1,115
 1316 1232 1316 1232 1402.5 1133 c 128,-1,116
 1489 1034 1489 1034 1536 887.5 c 128,-1,117
 1583 741 1583 741 1583 549 c 0,19,20
EndSplineSet
EndChar

StartChar: A
Encoding: 65 65 36
Width: 1219
GlyphClass: 2
Flags: W
AnchorPoint: "Anchor-4" 1219 900 basechar 0
AnchorPoint: "Anchor-3" 960 0 basechar 0
AnchorPoint: "Anchor-2" 1000 0 basechar 0
AnchorPoint: "Anchor-1" 599 -100 basechar 0
AnchorPoint: "Anchor-0" 599 1370 basechar 0
LayerCount: 2
Fore
SplineSet
758 535 m 1,0,-1
 582 1049 l 1,1,-1
 411 535 l 1,2,-1
 758 535 l 1,0,-1
381 445 m 1,3,-1
 270 111 l 2,4,5
 260 80 260 80 297 66 c 128,-1,6
 334 52 334 52 416 43 c 1,7,-1
 416 0 l 1,8,-1
 0 0 l 1,9,-1
 0 43 l 1,10,11
 68 55 68 55 108 68 c 128,-1,12
 148 81 148 81 158 111 c 2,13,-1
 530 1237 l 1,14,15
 553 1262 553 1262 587 1282.5 c 128,-1,16
 621 1303 621 1303 647 1317 c 1,17,-1
 1067 111 l 2,18,19
 1072 97 1072 97 1081 86 c 128,-1,20
 1090 75 1090 75 1105 67 c 128,-1,21
 1120 59 1120 59 1143 53 c 128,-1,22
 1166 47 1166 47 1198 43 c 1,23,-1
 1198 0 l 1,24,-1
 776 0 l 1,25,-1
 776 43 l 1,26,27
 854 48 854 48 884 63 c 128,-1,28
 914 78 914 78 903 111 c 2,29,-1
 789 445 l 1,30,-1
 381 445 l 1,3,-1
EndSplineSet
EndChar

StartChar: B
Encoding: 66 66 37
Width: 1126
GlyphClass: 2
Flags: W
AnchorPoint: "Anchor-4" 1126 900 basechar 0
AnchorPoint: "Anchor-3" 528 -100 basechar 0
AnchorPoint: "Anchor-2" 528 -100 basechar 0
AnchorPoint: "Anchor-1" 528 -100 basechar 0
AnchorPoint: "Anchor-0" 528 1370 basechar 0
LayerCount: 2
Fore
SplineSet
413 1206 m 0,0,1
 399 1206 399 1206 384.5 1205.5 c 128,-1,2
 370 1205 370 1205 355 1204 c 1,3,-1
 355 725 l 1,4,-1
 389 725 l 2,5,6
 503 725 503 725 573.5 747.5 c 128,-1,7
 644 770 644 770 683 805 c 128,-1,8
 722 840 722 840 736 884 c 128,-1,9
 750 928 750 928 750 971 c 0,10,11
 750 1021 750 1021 733.5 1064 c 128,-1,12
 717 1107 717 1107 678 1138.5 c 128,-1,13
 639 1170 639 1170 574.5 1188 c 128,-1,14
 510 1206 510 1206 413 1206 c 0,0,1
520 650 m 0,15,16
 472 650 472 650 431.5 645.5 c 128,-1,17
 391 641 391 641 355 635 c 1,18,-1
 355 104 l 2,19,20
 355 96 355 96 364 89 c 1,21,22
 381 83 381 83 403 79.5 c 128,-1,23
 425 76 425 76 448 74 c 128,-1,24
 471 72 471 72 494 71 c 128,-1,25
 517 70 517 70 537 70 c 0,26,27
 609 70 609 70 667 88.5 c 128,-1,28
 725 107 725 107 766.5 140 c 128,-1,29
 808 173 808 173 830 219.5 c 128,-1,30
 852 266 852 266 852 322 c 0,31,32
 852 377 852 377 832.5 435 c 128,-1,33
 813 493 813 493 772.5 541 c 128,-1,34
 732 589 732 589 669.5 619.5 c 128,-1,35
 607 650 607 650 520 650 c 0,15,16
1016 356 m 0,36,37
 1016 271 1016 271 982.5 202.5 c 128,-1,38
 949 134 949 134 888.5 86 c 128,-1,39
 828 38 828 38 744 12 c 128,-1,40
 660 -14 660 -14 559 -14 c 0,41,42
 537 -14 537 -14 506.5 -13.5 c 128,-1,43
 476 -13 476 -13 441 -12 c 128,-1,44
 406 -11 406 -11 369 -10 c 128,-1,45
 332 -9 332 -9 297 -7 c 0,46,47
 214 -4 214 -4 123 0 c 1,48,-1
 50 0 l 1,49,-1
 50 43 l 1,50,51
 118 57 118 57 156.5 73.5 c 128,-1,52
 195 90 195 90 195 104 c 2,53,-1
 195 1190 l 1,54,55
 157 1185 157 1185 120.5 1179.5 c 128,-1,56
 84 1174 84 1174 50 1168 c 1,57,-1
 41 1230 l 1,58,59
 80 1241 80 1241 131.5 1251.5 c 128,-1,60
 183 1262 183 1262 240 1270.5 c 128,-1,61
 297 1279 297 1279 356 1284.5 c 128,-1,62
 415 1290 415 1290 469 1290 c 0,63,64
 569 1290 569 1290 650 1271.5 c 128,-1,65
 731 1253 731 1253 787.5 1218 c 128,-1,66
 844 1183 844 1183 874.5 1133 c 128,-1,67
 905 1083 905 1083 905 1020 c 0,68,69
 905 912 905 912 854 834.5 c 128,-1,70
 803 757 803 757 715 723 c 1,71,72
 779 711 779 711 834 678 c 128,-1,73
 889 645 889 645 929.5 596.5 c 128,-1,74
 970 548 970 548 993 486.5 c 128,-1,75
 1016 425 1016 425 1016 356 c 0,36,37
EndSplineSet
EndChar

StartChar: C
Encoding: 67 67 38
Width: 1098
GlyphClass: 2
Flags: W
AnchorPoint: "Anchor-4" 1098 900 basechar 0
AnchorPoint: "Anchor-3" 614 -100 basechar 0
AnchorPoint: "Anchor-2" 584 0 basechar 0
AnchorPoint: "Anchor-1" 614 -100 basechar 0
AnchorPoint: "Anchor-0" 614 1370 basechar 0
LayerCount: 2
Fore
SplineSet
1018 211 m 1,0,1
 954 143 954 143 895.5 96.5 c 128,-1,2
 837 50 837 50 782.5 22 c 128,-1,3
 728 -6 728 -6 675.5 -18 c 128,-1,4
 623 -30 623 -30 571 -30 c 0,5,6
 478 -30 478 -30 388.5 12 c 128,-1,7
 299 54 299 54 228 133 c 128,-1,8
 157 212 157 212 113.5 326.5 c 128,-1,9
 70 441 70 441 70 586 c 0,10,11
 70 746 70 746 118.5 876 c 128,-1,12
 167 1006 167 1006 250 1098 c 128,-1,13
 333 1190 333 1190 443 1240 c 128,-1,14
 553 1290 553 1290 676 1290 c 0,15,16
 784 1290 784 1290 865.5 1261 c 128,-1,17
 947 1232 947 1232 999 1190 c 0,18,19
 1005 1185 1005 1185 996 1170 c 128,-1,20
 987 1155 987 1155 971.5 1136 c 128,-1,21
 956 1117 956 1117 938.5 1098 c 128,-1,22
 921 1079 921 1079 909 1067 c 1,23,-1
 874 1073 l 1,24,25
 823 1120 823 1120 753 1150 c 128,-1,26
 683 1180 683 1180 592 1180 c 0,27,28
 558 1180 558 1180 517.5 1167.5 c 128,-1,29
 477 1155 477 1155 436 1128 c 128,-1,30
 395 1101 395 1101 357 1057.5 c 128,-1,31
 319 1014 319 1014 289.5 952 c 128,-1,32
 260 890 260 890 242.5 808.5 c 128,-1,33
 225 727 225 727 225 623 c 0,34,35
 225 490 225 490 263.5 390 c 128,-1,36
 302 290 302 290 362.5 223.5 c 128,-1,37
 423 157 423 157 497.5 123.5 c 128,-1,38
 572 90 572 90 643 90 c 0,39,40
 697 90 697 90 784 127 c 128,-1,41
 871 164 871 164 981 256 c 1,42,43
 986 254 986 254 991.5 247.5 c 128,-1,44
 997 241 997 241 1002 234 c 128,-1,45
 1007 227 1007 227 1011 220.5 c 128,-1,46
 1015 214 1015 214 1018 211 c 1,0,1
EndSplineSet
EndChar

StartChar: D
Encoding: 68 68 39
Width: 1214
GlyphClass: 2
Flags: W
AnchorPoint: "Anchor-4" 1214 900 basechar 0
AnchorPoint: "Anchor-3" 550 -100 basechar 0
AnchorPoint: "Anchor-2" 550 -100 basechar 0
AnchorPoint: "Anchor-1" 550 -100 basechar 0
AnchorPoint: "Anchor-0" 550 1370 basechar 0
LayerCount: 2
Fore
SplineSet
453 1206 m 0,0,1
 403 1206 403 1206 355 1203 c 1,2,-1
 355 154 l 2,3,4
 355 132 355 132 365 118 c 1,5,6
 379 101 379 101 419 92.5 c 128,-1,7
 459 84 459 84 537 84 c 0,8,9
 606 84 606 84 679.5 117.5 c 128,-1,10
 753 151 753 151 814 219.5 c 128,-1,11
 875 288 875 288 914 392 c 128,-1,12
 953 496 953 496 953 637 c 0,13,14
 953 770 953 770 920 875.5 c 128,-1,15
 887 981 887 981 823.5 1054.5 c 128,-1,16
 760 1128 760 1128 666.5 1167 c 128,-1,17
 573 1206 573 1206 453 1206 c 0,0,1
1123 676 m 0,18,19
 1123 551 1123 551 1097.5 452.5 c 128,-1,20
 1072 354 1072 354 1029 278.5 c 128,-1,21
 986 203 986 203 929.5 150.5 c 128,-1,22
 873 98 873 98 810 64.5 c 128,-1,23
 747 31 747 31 682.5 15.5 c 128,-1,24
 618 0 618 0 559 0 c 2,25,-1
 50 0 l 1,26,-1
 50 43 l 1,27,28
 118 57 118 57 156.5 73.5 c 128,-1,29
 195 90 195 90 195 104 c 2,30,-1
 195 1188 l 1,31,32
 155 1183 155 1183 119 1178 c 128,-1,33
 83 1173 83 1173 50 1168 c 1,34,-1
 41 1230 l 1,35,36
 85 1242 85 1242 142.5 1253 c 128,-1,37
 200 1264 200 1264 264 1272.5 c 128,-1,38
 328 1281 328 1281 393.5 1285.5 c 128,-1,39
 459 1290 459 1290 518 1290 c 0,40,41
 657 1290 657 1290 769 1248.5 c 128,-1,42
 881 1207 881 1207 959.5 1128 c 128,-1,43
 1038 1049 1038 1049 1080.5 935 c 128,-1,44
 1123 821 1123 821 1123 676 c 0,18,19
EndSplineSet
EndChar

StartChar: E
Encoding: 69 69 40
Width: 1016
GlyphClass: 2
Flags: W
AnchorPoint: "Anchor-4" 1016 900 basechar 0
AnchorPoint: "Anchor-3" 750 0 basechar 0
AnchorPoint: "Anchor-2" 502 0 basechar 0
AnchorPoint: "Anchor-1" 502 -100 basechar 0
AnchorPoint: "Anchor-0" 502 1370 basechar 0
LayerCount: 2
Fore
SplineSet
954 244 m 1,0,1
 946 158 946 158 933.5 93.5 c 128,-1,2
 921 29 921 29 913 0 c 1,3,-1
 50 0 l 1,4,-1
 50 43 l 1,5,6
 118 57 118 57 156.5 73.5 c 128,-1,7
 195 90 195 90 195 104 c 2,8,-1
 195 1155 l 2,9,10
 195 1167 195 1167 158.5 1185 c 128,-1,11
 122 1203 122 1203 50 1217 c 1,12,-1
 50 1260 l 1,13,-1
 856 1260 l 1,14,-1
 889 1235 l 1,15,16
 887 1209 887 1209 883 1178 c 128,-1,17
 879 1147 879 1147 873 1116 c 128,-1,18
 867 1085 867 1085 860.5 1057 c 128,-1,19
 854 1029 854 1029 848 1010 c 1,20,-1
 803 1010 l 1,21,22
 801 1056 801 1056 794.5 1087 c 128,-1,23
 788 1118 788 1118 778 1136.5 c 128,-1,24
 768 1155 768 1155 753.5 1162.5 c 128,-1,25
 739 1170 739 1170 721 1170 c 2,26,-1
 355 1170 l 1,27,-1
 355 735 l 1,28,-1
 760 735 l 1,29,-1
 786 707 l 1,30,31
 778 693 778 693 766.5 677 c 128,-1,32
 755 661 755 661 742.5 645.5 c 128,-1,33
 730 630 730 630 717.5 617 c 128,-1,34
 705 604 705 604 694 596 c 1,35,36
 679 611 679 611 661.5 621 c 128,-1,37
 644 631 644 631 621.5 638 c 128,-1,38
 599 645 599 645 568.5 648 c 128,-1,39
 538 651 538 651 496 651 c 2,40,-1
 355 651 l 1,41,-1
 355 154 l 2,42,43
 355 139 355 139 362 127.5 c 128,-1,44
 369 116 369 116 391 107.5 c 128,-1,45
 413 99 413 99 453 94.5 c 128,-1,46
 493 90 493 90 559 90 c 2,47,-1
 688 90 l 2,48,49
 734 90 734 90 766.5 95 c 128,-1,50
 799 100 799 100 824 117.5 c 128,-1,51
 849 135 849 135 869.5 169 c 128,-1,52
 890 203 890 203 911 262 c 1,53,-1
 954 244 l 1,0,1
EndSplineSet
EndChar

StartChar: F
Encoding: 70 70 41
Width: 979
GlyphClass: 2
Flags: W
AnchorPoint: "Anchor-4" 979 900 basechar 0
AnchorPoint: "Anchor-3" 473 -100 basechar 0
AnchorPoint: "Anchor-2" 473 -100 basechar 0
AnchorPoint: "Anchor-1" 473 -100 basechar 0
AnchorPoint: "Anchor-0" 473 1370 basechar 0
LayerCount: 2
Fore
SplineSet
50 0 m 1,0,-1
 50 43 l 1,1,2
 118 57 118 57 156.5 73.5 c 128,-1,3
 195 90 195 90 195 104 c 2,4,-1
 195 1155 l 2,5,6
 195 1167 195 1167 158.5 1185 c 128,-1,7
 122 1203 122 1203 50 1217 c 1,8,-1
 50 1260 l 1,9,-1
 866 1260 l 1,10,-1
 897 1235 l 1,11,12
 896 1209 896 1209 892 1178 c 128,-1,13
 888 1147 888 1147 882.5 1116 c 128,-1,14
 877 1085 877 1085 870.5 1057 c 128,-1,15
 864 1029 864 1029 858 1010 c 1,16,-1
 811 1010 l 1,17,18
 809 1056 809 1056 803.5 1087 c 128,-1,19
 798 1118 798 1118 787.5 1136.5 c 128,-1,20
 777 1155 777 1155 762.5 1162.5 c 128,-1,21
 748 1170 748 1170 729 1170 c 2,22,-1
 355 1170 l 1,23,-1
 355 735 l 1,24,-1
 729 735 l 1,25,-1
 758 707 l 1,26,27
 749 693 749 693 737 677 c 128,-1,28
 725 661 725 661 712 645.5 c 128,-1,29
 699 630 699 630 686.5 617 c 128,-1,30
 674 604 674 604 664 596 c 1,31,32
 649 611 649 611 632 621 c 128,-1,33
 615 631 615 631 592.5 638 c 128,-1,34
 570 645 570 645 539.5 648 c 128,-1,35
 509 651 509 651 467 651 c 2,36,-1
 355 651 l 1,37,-1
 355 104 l 2,38,39
 355 92 355 92 393.5 77 c 128,-1,40
 432 62 432 62 530 43 c 1,41,-1
 530 0 l 1,42,-1
 50 0 l 1,0,-1
EndSplineSet
EndChar

StartChar: G
Encoding: 71 71 42
Width: 1194
GlyphClass: 2
Flags: W
AnchorPoint: "Anchor-4" 1194 900 basechar 0
AnchorPoint: "Anchor-3" 640 -100 basechar 0
AnchorPoint: "Anchor-2" 620 0 basechar 0
AnchorPoint: "Anchor-1" 640 -100 basechar 0
AnchorPoint: "Anchor-0" 640 1370 basechar 0
LayerCount: 2
Fore
SplineSet
1042 1188 m 0,0,1
 1049 1183 1049 1183 1040 1168.5 c 128,-1,2
 1031 1154 1031 1154 1014.5 1136 c 128,-1,3
 998 1118 998 1118 978.5 1100.5 c 128,-1,4
 959 1083 959 1083 946 1071 c 1,5,-1
 913 1077 l 1,6,7
 880 1108 880 1108 845 1128.5 c 128,-1,8
 810 1149 810 1149 771.5 1160 c 128,-1,9
 733 1171 733 1171 690 1175.5 c 128,-1,10
 647 1180 647 1180 598 1180 c 0,11,12
 573 1180 573 1180 535.5 1168.5 c 128,-1,13
 498 1157 498 1157 456.5 1131.5 c 128,-1,14
 415 1106 415 1106 374 1064.5 c 128,-1,15
 333 1023 333 1023 299.5 962.5 c 128,-1,16
 266 902 266 902 245.5 821.5 c 128,-1,17
 225 741 225 741 225 637 c 0,18,19
 225 498 225 498 262 395 c 128,-1,20
 299 292 299 292 359 224.5 c 128,-1,21
 419 157 419 157 494 123.5 c 128,-1,22
 569 90 569 90 645 90 c 0,23,24
 718 90 718 90 779.5 104.5 c 128,-1,25
 841 119 841 119 890 146 c 1,26,-1
 890 485 l 2,27,28
 890 496 890 496 880.5 506.5 c 128,-1,29
 871 517 871 517 847.5 527 c 128,-1,30
 824 537 824 537 784.5 547 c 128,-1,31
 745 557 745 557 684 567 c 1,32,-1
 684 610 l 1,33,-1
 1145 610 l 1,34,-1
 1145 567 l 1,35,36
 1088 553 1088 553 1064 530.5 c 128,-1,37
 1040 508 1040 508 1040 485 c 2,38,-1
 1040 154 l 1,39,40
 966 93 966 93 907.5 57 c 128,-1,41
 849 21 849 21 800 1.5 c 128,-1,42
 751 -18 751 -18 707 -24 c 128,-1,43
 663 -30 663 -30 618 -30 c 0,44,45
 517 -30 517 -30 419 7.5 c 128,-1,46
 321 45 321 45 243.5 121.5 c 128,-1,47
 166 198 166 198 118 312.5 c 128,-1,48
 70 427 70 427 70 582 c 0,49,50
 70 748 70 748 122.5 879.5 c 128,-1,51
 175 1011 175 1011 266 1102.5 c 128,-1,52
 357 1194 357 1194 478.5 1242 c 128,-1,53
 600 1290 600 1290 737 1290 c 0,54,55
 770 1290 770 1290 809.5 1283 c 128,-1,56
 849 1276 849 1276 890 1263 c 128,-1,57
 931 1250 931 1250 970.5 1231 c 128,-1,58
 1010 1212 1010 1212 1042 1188 c 0,0,1
EndSplineSet
EndChar

StartChar: H
Encoding: 72 72 43
Width: 1339
GlyphClass: 2
Flags: W
AnchorPoint: "Anchor-4" 1339 900 basechar 0
AnchorPoint: "Anchor-3" 660 -100 basechar 0
AnchorPoint: "Anchor-2" 270 0 basechar 0
AnchorPoint: "Anchor-1" 660 -100 basechar 0
AnchorPoint: "Anchor-0" 660 1370 basechar 0
LayerCount: 2
Fore
SplineSet
50 0 m 1,0,-1
 50 43 l 1,1,2
 118 57 118 57 156.5 73.5 c 128,-1,3
 195 90 195 90 195 104 c 2,4,-1
 195 1155 l 2,5,6
 195 1167 195 1167 158.5 1185 c 128,-1,7
 122 1203 122 1203 50 1217 c 1,8,-1
 50 1260 l 1,9,-1
 500 1260 l 1,10,-1
 500 1217 l 1,11,12
 432 1203 432 1203 393.5 1186 c 128,-1,13
 355 1169 355 1169 355 1155 c 2,14,-1
 355 705 l 1,15,-1
 965 705 l 1,16,-1
 965 1155 l 2,17,18
 965 1167 965 1167 928.5 1185 c 128,-1,19
 892 1203 892 1203 820 1217 c 1,20,-1
 820 1260 l 1,21,-1
 1270 1260 l 1,22,-1
 1270 1217 l 1,23,24
 1202 1203 1202 1203 1163.5 1186 c 128,-1,25
 1125 1169 1125 1169 1125 1155 c 2,26,-1
 1125 104 l 2,27,28
 1125 92 1125 92 1161.5 74.5 c 128,-1,29
 1198 57 1198 57 1270 43 c 1,30,-1
 1270 0 l 1,31,-1
 820 0 l 1,32,-1
 820 43 l 1,33,34
 888 57 888 57 926.5 73.5 c 128,-1,35
 965 90 965 90 965 104 c 2,36,-1
 965 615 l 1,37,-1
 355 615 l 1,38,-1
 355 104 l 2,39,40
 355 92 355 92 391 74.5 c 128,-1,41
 427 57 427 57 500 43 c 1,42,-1
 500 0 l 1,43,-1
 50 0 l 1,0,-1
EndSplineSet
EndChar

StartChar: I
Encoding: 73 73 44
Width: 610
GlyphClass: 2
Flags: W
AnchorPoint: "Anchor-4" 610 900 basechar 0
AnchorPoint: "Anchor-3" 345 0 basechar 0
AnchorPoint: "Anchor-2" 295 0 basechar 0
AnchorPoint: "Anchor-1" 295 -100 basechar 0
AnchorPoint: "Anchor-0" 295 1370 basechar 0
LayerCount: 2
Fore
SplineSet
70 0 m 1,0,-1
 70 43 l 1,1,2
 138 57 138 57 176.5 73.5 c 128,-1,3
 215 90 215 90 215 104 c 2,4,-1
 215 1155 l 2,5,6
 215 1167 215 1167 178.5 1185 c 128,-1,7
 142 1203 142 1203 70 1217 c 1,8,-1
 70 1260 l 1,9,-1
 520 1260 l 1,10,-1
 520 1217 l 1,11,12
 452 1203 452 1203 413.5 1186 c 128,-1,13
 375 1169 375 1169 375 1155 c 2,14,-1
 375 104 l 2,15,16
 375 92 375 92 411.5 74.5 c 128,-1,17
 448 57 448 57 520 43 c 1,18,-1
 520 0 l 1,19,-1
 70 0 l 1,0,-1
EndSplineSet
EndChar

StartChar: J
Encoding: 74 74 45
Width: 625
GlyphClass: 2
Flags: W
AnchorPoint: "Anchor-4" 625 900 basechar 0
AnchorPoint: "Anchor-3" 330 -600 basechar 0
AnchorPoint: "Anchor-2" 330 -600 basechar 0
AnchorPoint: "Anchor-1" 330 -600 basechar 0
AnchorPoint: "Anchor-0" 330 1370 basechar 0
LayerCount: 2
Fore
SplineSet
555 1217 m 1,0,1
 487 1203 487 1203 448.5 1186 c 128,-1,2
 410 1169 410 1169 410 1155 c 2,3,-1
 410 205 l 2,4,5
 410 86 410 86 393.5 6.5 c 128,-1,6
 377 -73 377 -73 349.5 -128 c 128,-1,7
 322 -183 322 -183 286 -219.5 c 128,-1,8
 250 -256 250 -256 211 -288 c 0,9,10
 184 -310 184 -310 151.5 -327 c 128,-1,11
 119 -344 119 -344 86 -356 c 128,-1,12
 53 -368 53 -368 23.5 -374 c 128,-1,13
 -6 -380 -6 -380 -25 -380 c 0,14,15
 -55 -380 -55 -380 -85 -370.5 c 128,-1,16
 -115 -361 -115 -361 -138 -348.5 c 128,-1,17
 -161 -336 -161 -336 -175.5 -322.5 c 128,-1,18
 -190 -309 -190 -309 -190 -300 c 0,19,20
 -190 -292 -190 -292 -177 -277 c 128,-1,21
 -164 -262 -164 -262 -146 -247 c 128,-1,22
 -128 -232 -128 -232 -108 -218.5 c 128,-1,23
 -88 -205 -88 -205 -74 -200 c 1,24,25
 -46 -218 -46 -218 -25 -229.5 c 128,-1,26
 -4 -241 -4 -241 14 -247 c 128,-1,27
 32 -253 32 -253 48.5 -255 c 128,-1,28
 65 -257 65 -257 84 -257 c 0,29,30
 110 -257 110 -257 139.5 -240 c 128,-1,31
 169 -223 169 -223 193.5 -179.5 c 128,-1,32
 218 -136 218 -136 234 -60 c 128,-1,33
 250 16 250 16 250 133 c 2,34,-1
 250 1155 l 2,35,36
 250 1161 250 1161 242 1168 c 128,-1,37
 234 1175 234 1175 212.5 1183 c 128,-1,38
 191 1191 191 1191 153 1199.5 c 128,-1,39
 115 1208 115 1208 55 1217 c 1,40,-1
 55 1260 l 1,41,-1
 555 1260 l 1,42,-1
 555 1217 l 1,0,1
EndSplineSet
EndChar

StartChar: K
Encoding: 75 75 46
Width: 1184
GlyphClass: 2
Flags: W
AnchorPoint: "Anchor-4" 1184 900 basechar 0
AnchorPoint: "Anchor-3" 612 -100 basechar 0
AnchorPoint: "Anchor-2" 275 0 basechar 0
AnchorPoint: "Anchor-1" 612 -100 basechar 0
AnchorPoint: "Anchor-0" 590 1370 basechar 0
LayerCount: 2
Fore
SplineSet
50 0 m 1,0,-1
 50 43 l 1,1,2
 118 57 118 57 156.5 73.5 c 128,-1,3
 195 90 195 90 195 104 c 2,4,-1
 195 1155 l 2,5,6
 195 1167 195 1167 158.5 1185 c 128,-1,7
 122 1203 122 1203 50 1217 c 1,8,-1
 50 1260 l 1,9,-1
 500 1260 l 1,10,-1
 500 1217 l 1,11,12
 432 1203 432 1203 393.5 1186 c 128,-1,13
 355 1169 355 1169 355 1155 c 2,14,-1
 355 646 l 1,15,-1
 764 1128 l 2,16,17
 787 1155 787 1155 793 1171 c 128,-1,18
 799 1187 799 1187 789 1196 c 128,-1,19
 779 1205 779 1205 754 1209.5 c 128,-1,20
 729 1214 729 1214 690 1217 c 1,21,-1
 690 1260 l 1,22,-1
 1110 1260 l 1,23,-1
 1110 1217 l 1,24,25
 1078 1213 1078 1213 1053 1209 c 128,-1,26
 1028 1205 1028 1205 1008 1198.5 c 128,-1,27
 988 1192 988 1192 971.5 1182 c 128,-1,28
 955 1172 955 1172 940 1155 c 2,29,-1
 502 671 l 1,30,-1
 985 127 l 2,31,32
 1003 107 1003 107 1023.5 96 c 128,-1,33
 1044 85 1044 85 1067.5 80.5 c 128,-1,34
 1091 76 1091 76 1116 76.5 c 128,-1,35
 1141 77 1141 77 1167 80 c 1,36,-1
 1174 37 l 1,37,38
 1115 18 1115 18 1055.5 2 c 128,-1,39
 996 -14 996 -14 948 -14 c 0,40,41
 919 -14 919 -14 896.5 -5 c 128,-1,42
 874 4 874 4 854 29 c 2,43,-1
 355 639 l 1,44,-1
 355 104 l 2,45,46
 355 92 355 92 391 74.5 c 128,-1,47
 427 57 427 57 500 43 c 1,48,-1
 500 0 l 1,49,-1
 50 0 l 1,0,-1
EndSplineSet
EndChar

StartChar: L
Encoding: 76 76 47
Width: 975
GlyphClass: 2
Flags: W
AnchorPoint: "Anchor-4" 750 900 basechar 0
AnchorPoint: "Anchor-3" 497 -100 basechar 0
AnchorPoint: "Anchor-2" 497 0 basechar 0
AnchorPoint: "Anchor-1" 497 -100 basechar 0
AnchorPoint: "Anchor-0" 467 1370 basechar 0
LayerCount: 2
Fore
SplineSet
944 244 m 1,0,1
 936 157 936 157 923.5 93 c 128,-1,2
 911 29 911 29 903 0 c 1,3,-1
 50 0 l 1,4,-1
 50 43 l 1,5,6
 118 57 118 57 156.5 73.5 c 128,-1,7
 195 90 195 90 195 104 c 2,8,-1
 195 1155 l 2,9,10
 195 1167 195 1167 158.5 1185 c 128,-1,11
 122 1203 122 1203 50 1217 c 1,12,-1
 50 1260 l 1,13,-1
 500 1260 l 1,14,-1
 500 1217 l 1,15,16
 432 1203 432 1203 393.5 1186 c 128,-1,17
 355 1169 355 1169 355 1155 c 2,18,-1
 355 164 l 2,19,20
 355 146 355 146 363.5 132.5 c 128,-1,21
 372 119 372 119 393 109.5 c 128,-1,22
 414 100 414 100 450 95 c 128,-1,23
 486 90 486 90 541 90 c 2,24,-1
 684 90 l 2,25,26
 730 90 730 90 761.5 95 c 128,-1,27
 793 100 793 100 817 117.5 c 128,-1,28
 841 135 841 135 860.5 169 c 128,-1,29
 880 203 880 203 901 262 c 1,30,-1
 944 244 l 1,0,1
EndSplineSet
EndChar

StartChar: M
Encoding: 77 77 48
Width: 1651
GlyphClass: 2
Flags: W
AnchorPoint: "Anchor-4" 1651 900 basechar 0
AnchorPoint: "Anchor-3" 815 -100 basechar 0
AnchorPoint: "Anchor-2" 815 -100 basechar 0
AnchorPoint: "Anchor-1" 815 -100 basechar 0
AnchorPoint: "Anchor-0" 815 1370 basechar 0
LayerCount: 2
Fore
SplineSet
1550 1217 m 1,0,1
 1521 1217 1521 1217 1485.5 1207.5 c 128,-1,2
 1450 1198 1450 1198 1415 1181 c 1,3,-1
 1425 104 l 2,4,5
 1425 92 1425 92 1461.5 74.5 c 128,-1,6
 1498 57 1498 57 1570 43 c 1,7,-1
 1570 0 l 1,8,-1
 1115 0 l 1,9,-1
 1115 43 l 1,10,11
 1183 57 1183 57 1226.5 73.5 c 128,-1,12
 1270 90 1270 90 1270 104 c 2,13,-1
 1261 1040 l 1,14,-1
 823 0 l 1,15,-1
 774 0 l 1,16,-1
 329 1033 l 1,17,-1
 320 104 l 2,18,19
 320 92 320 92 356.5 74.5 c 128,-1,20
 393 57 393 57 465 43 c 1,21,-1
 465 0 l 1,22,-1
 60 0 l 1,23,-1
 60 43 l 1,24,25
 129 57 129 57 167 73.5 c 128,-1,26
 205 90 205 90 205 104 c 2,27,-1
 215 1177 l 1,28,29
 177 1199 177 1199 138.5 1208 c 128,-1,30
 100 1217 100 1217 70 1217 c 1,31,-1
 70 1260 l 1,32,-1
 356 1260 l 2,33,34
 366 1260 366 1260 373 1257 c 128,-1,35
 380 1254 380 1254 386.5 1245 c 128,-1,36
 393 1236 393 1236 400.5 1219.5 c 128,-1,37
 408 1203 408 1203 420 1176 c 2,38,-1
 818 274 l 1,39,-1
 1200 1176 l 2,40,41
 1213 1206 1213 1206 1221 1223 c 128,-1,42
 1229 1240 1229 1240 1235.5 1248 c 128,-1,43
 1242 1256 1242 1256 1248.5 1258 c 128,-1,44
 1255 1260 1255 1260 1264 1260 c 2,45,-1
 1550 1260 l 1,46,-1
 1550 1217 l 1,0,1
EndSplineSet
EndChar

StartChar: N
Encoding: 78 78 49
Width: 1329
GlyphClass: 2
Flags: W
AnchorPoint: "Anchor-4" 1329 900 basechar 0
AnchorPoint: "Anchor-3" 665 -100 basechar 0
AnchorPoint: "Anchor-2" 1075 0 basechar 0
AnchorPoint: "Anchor-1" 665 -100 basechar 0
AnchorPoint: "Anchor-0" 665 1370 basechar 0
LayerCount: 2
Fore
SplineSet
50 0 m 1,0,-1
 50 43 l 1,1,2
 124 52 124 52 159.5 71 c 128,-1,3
 195 90 195 90 195 104 c 2,4,-1
 195 1149 l 1,5,6
 162 1180 162 1180 125.5 1195.5 c 128,-1,7
 89 1211 89 1211 50 1217 c 1,8,-1
 50 1260 l 1,9,-1
 262 1260 l 2,10,11
 277 1260 277 1260 286.5 1257.5 c 128,-1,12
 296 1255 296 1255 306 1247 c 128,-1,13
 316 1239 316 1239 327.5 1223.5 c 128,-1,14
 339 1208 339 1208 358 1182 c 2,15,-1
 1015 276 l 1,16,-1
 1015 1155 l 2,17,18
 1015 1167 1015 1167 982.5 1186.5 c 128,-1,19
 950 1206 950 1206 870 1217 c 1,20,-1
 870 1260 l 1,21,-1
 1280 1260 l 1,22,-1
 1280 1217 l 1,23,24
 1208 1207 1208 1207 1171.5 1188 c 128,-1,25
 1135 1169 1135 1169 1135 1155 c 2,26,-1
 1135 -30 l 1,27,28
 1085 -24 1085 -24 1056.5 -10 c 128,-1,29
 1028 4 1028 4 1016 21 c 2,30,-1
 315 993 l 1,31,-1
 315 104 l 2,32,33
 315 92 315 92 348.5 73 c 128,-1,34
 382 54 382 54 460 43 c 1,35,-1
 460 0 l 1,36,-1
 50 0 l 1,0,-1
EndSplineSet
EndChar

StartChar: O
Encoding: 79 79 50
Width: 1229
GlyphClass: 2
Flags: W
AnchorPoint: "Anchor-4" 1150 900 basechar 0
AnchorPoint: "Anchor-3" 676 0 basechar 0
AnchorPoint: "Anchor-2" 585 0 basechar 0
AnchorPoint: "Anchor-1" 615 -100 basechar 0
AnchorPoint: "Anchor-0" 615 1370 basechar 0
LayerCount: 2
Fore
SplineSet
983 629 m 0,0,1
 983 698 983 698 970.5 765.5 c 128,-1,2
 958 833 958 833 935 893.5 c 128,-1,3
 912 954 912 954 878.5 1005.5 c 128,-1,4
 845 1057 845 1057 803 1094.5 c 128,-1,5
 761 1132 761 1132 711 1153.5 c 128,-1,6
 661 1175 661 1175 604 1175 c 0,7,8
 515 1175 515 1175 444.5 1137.5 c 128,-1,9
 374 1100 374 1100 325.5 1030.5 c 128,-1,10
 277 961 277 961 251 862 c 128,-1,11
 225 763 225 763 225 641 c 0,12,13
 225 529 225 529 255.5 429 c 128,-1,14
 286 329 286 329 337.5 253.5 c 128,-1,15
 389 178 389 178 458 134 c 128,-1,16
 527 90 527 90 604 90 c 0,17,18
 687 90 687 90 756.5 124.5 c 128,-1,19
 826 159 826 159 876.5 227 c 128,-1,20
 927 295 927 295 955 396 c 128,-1,21
 983 497 983 497 983 629 c 0,0,1
1138 647 m 0,22,23
 1138 511 1138 511 1093 388.5 c 128,-1,24
 1048 266 1048 266 970.5 173 c 128,-1,25
 893 80 893 80 791 25 c 128,-1,26
 689 -30 689 -30 575 -30 c 0,27,28
 455 -30 455 -30 361 23 c 128,-1,29
 267 76 267 76 202.5 165 c 128,-1,30
 138 254 138 254 104 370 c 128,-1,31
 70 486 70 486 70 612 c 0,32,33
 70 748 70 748 114 871 c 128,-1,34
 158 994 158 994 234 1087 c 128,-1,35
 310 1180 310 1180 412.5 1235 c 128,-1,36
 515 1290 515 1290 633 1290 c 0,37,38
 757 1290 757 1290 851 1235.5 c 128,-1,39
 945 1181 945 1181 1009 1091 c 128,-1,40
 1073 1001 1073 1001 1105.5 885 c 128,-1,41
 1138 769 1138 769 1138 647 c 0,22,23
EndSplineSet
EndChar

StartChar: P
Encoding: 80 80 51
Width: 1071
GlyphClass: 2
Flags: W
AnchorPoint: "Anchor-4" 1071 900 basechar 0
AnchorPoint: "Anchor-3" 511 -100 basechar 0
AnchorPoint: "Anchor-2" 511 -100 basechar 0
AnchorPoint: "Anchor-1" 511 -100 basechar 0
AnchorPoint: "Anchor-0" 511 1370 basechar 0
LayerCount: 2
Fore
SplineSet
50 0 m 1,0,-1
 50 43 l 1,1,2
 118 57 118 57 156.5 73.5 c 128,-1,3
 195 90 195 90 195 104 c 2,4,-1
 195 1190 l 1,5,6
 158 1185 158 1185 121.5 1179.5 c 128,-1,7
 85 1174 85 1174 50 1168 c 1,8,-1
 41 1230 l 1,9,10
 89 1243 89 1243 145.5 1254 c 128,-1,11
 202 1265 202 1265 263 1273 c 128,-1,12
 324 1281 324 1281 386.5 1285.5 c 128,-1,13
 449 1290 449 1290 510 1290 c 0,14,15
 618 1290 618 1290 705 1267 c 128,-1,16
 792 1244 792 1244 853.5 1199 c 128,-1,17
 915 1154 915 1154 948.5 1088 c 128,-1,18
 982 1022 982 1022 982 936 c 0,19,20
 982 867 982 867 962.5 810 c 128,-1,21
 943 753 943 753 910.5 708.5 c 128,-1,22
 878 664 878 664 836 631.5 c 128,-1,23
 794 599 794 599 748.5 577.5 c 128,-1,24
 703 556 703 556 657.5 545.5 c 128,-1,25
 612 535 612 535 573 535 c 0,26,27
 479 535 479 535 412 565 c 1,28,-1
 389 640 l 1,29,30
 431 621 431 621 469.5 615.5 c 128,-1,31
 508 610 508 610 543 610 c 0,32,33
 589 610 589 610 639 628 c 128,-1,34
 689 646 689 646 731 682 c 128,-1,35
 773 718 773 718 800 771 c 128,-1,36
 827 824 827 824 827 895 c 0,37,38
 827 977 827 977 797.5 1036 c 128,-1,39
 768 1095 768 1095 717 1132.5 c 128,-1,40
 666 1170 666 1170 598 1188 c 128,-1,41
 530 1206 530 1206 453 1206 c 0,42,43
 428 1206 428 1206 403.5 1205.5 c 128,-1,44
 379 1205 379 1205 355 1204 c 1,45,-1
 355 104 l 2,46,47
 355 98 355 98 363 91 c 128,-1,48
 371 84 371 84 390.5 76 c 128,-1,49
 410 68 410 68 444 60 c 128,-1,50
 478 52 478 52 530 43 c 1,51,-1
 530 0 l 1,52,-1
 50 0 l 1,0,-1
EndSplineSet
EndChar

StartChar: Q
Encoding: 81 81 52
Width: 1229
GlyphClass: 2
Flags: W
AnchorPoint: "Anchor-4" 1229 900 basechar 0
AnchorPoint: "Anchor-3" 604 -270 basechar 0
AnchorPoint: "Anchor-2" 604 -270 basechar 0
AnchorPoint: "Anchor-1" 604 -270 basechar 0
AnchorPoint: "Anchor-0" 604 1370 basechar 0
LayerCount: 2
Fore
SplineSet
983 629 m 0,0,1
 983 698 983 698 970.5 765.5 c 128,-1,2
 958 833 958 833 935 893.5 c 128,-1,3
 912 954 912 954 878.5 1005.5 c 128,-1,4
 845 1057 845 1057 803 1094.5 c 128,-1,5
 761 1132 761 1132 711 1153.5 c 128,-1,6
 661 1175 661 1175 604 1175 c 0,7,8
 515 1175 515 1175 444.5 1137.5 c 128,-1,9
 374 1100 374 1100 325.5 1030.5 c 128,-1,10
 277 961 277 961 251 862 c 128,-1,11
 225 763 225 763 225 641 c 0,12,13
 225 529 225 529 255.5 429 c 128,-1,14
 286 329 286 329 337.5 253.5 c 128,-1,15
 389 178 389 178 458 134 c 128,-1,16
 527 90 527 90 604 90 c 0,17,18
 687 90 687 90 756.5 124.5 c 128,-1,19
 826 159 826 159 876.5 227 c 128,-1,20
 927 295 927 295 955 396 c 128,-1,21
 983 497 983 497 983 629 c 0,0,1
1282 -117 m 1,22,23
 1258 -161 1258 -161 1233 -195.5 c 128,-1,24
 1208 -230 1208 -230 1184 -254.5 c 128,-1,25
 1160 -279 1160 -279 1138.5 -292 c 128,-1,26
 1117 -305 1117 -305 1102 -305 c 0,27,28
 1040 -305 1040 -305 979.5 -274.5 c 128,-1,29
 919 -244 919 -244 859 -200.5 c 128,-1,30
 799 -157 799 -157 739.5 -109.5 c 128,-1,31
 680 -62 680 -62 620 -27 c 1,32,33
 597 -30 597 -30 575 -30 c 0,34,35
 465 -30 465 -30 372 21 c 128,-1,36
 279 72 279 72 212 159 c 128,-1,37
 145 246 145 246 107.5 363 c 128,-1,38
 70 480 70 480 70 612 c 0,39,40
 70 748 70 748 114 871 c 128,-1,41
 158 994 158 994 234 1087 c 128,-1,42
 310 1180 310 1180 412.5 1235 c 128,-1,43
 515 1290 515 1290 633 1290 c 0,44,45
 757 1290 757 1290 851 1235.5 c 128,-1,46
 945 1181 945 1181 1009 1091 c 128,-1,47
 1073 1001 1073 1001 1105.5 885 c 128,-1,48
 1138 769 1138 769 1138 647 c 0,49,50
 1138 541 1138 541 1110 442 c 128,-1,51
 1082 343 1082 343 1032 259.5 c 128,-1,52
 982 176 982 176 913.5 112 c 128,-1,53
 845 48 845 48 765 12 c 1,54,55
 811 -12 811 -12 856.5 -42 c 128,-1,56
 902 -72 902 -72 945.5 -98 c 128,-1,57
 989 -124 989 -124 1030 -142 c 128,-1,58
 1071 -160 1071 -160 1108 -160 c 0,59,60
 1120 -160 1120 -160 1133.5 -156 c 128,-1,61
 1147 -152 1147 -152 1164 -143 c 128,-1,62
 1181 -134 1181 -134 1203 -119 c 128,-1,63
 1225 -104 1225 -104 1255 -82 c 1,64,-1
 1282 -117 l 1,22,23
EndSplineSet
EndChar

StartChar: R
Encoding: 82 82 53
Width: 1149
GlyphClass: 2
Flags: W
AnchorPoint: "Anchor-4" 1149 900 basechar 0
AnchorPoint: "Anchor-3" 520 -100 basechar 0
AnchorPoint: "Anchor-2" 275 0 basechar 0
AnchorPoint: "Anchor-1" 520 -100 basechar 0
AnchorPoint: "Anchor-0" 520 1370 basechar 0
LayerCount: 2
Fore
SplineSet
50 0 m 1,0,-1
 50 43 l 1,1,2
 118 57 118 57 156.5 73.5 c 128,-1,3
 195 90 195 90 195 104 c 2,4,-1
 195 1189 l 1,5,6
 160 1184 160 1184 123.5 1178.5 c 128,-1,7
 87 1173 87 1173 50 1168 c 1,8,-1
 41 1230 l 1,9,10
 88 1242 88 1242 136 1252.5 c 128,-1,11
 184 1263 184 1263 236 1271.5 c 128,-1,12
 288 1280 288 1280 345.5 1285 c 128,-1,13
 403 1290 403 1290 469 1290 c 0,14,15
 585 1290 585 1290 671 1267 c 128,-1,16
 757 1244 757 1244 814 1203 c 128,-1,17
 871 1162 871 1162 899 1106.5 c 128,-1,18
 927 1051 927 1051 927 987 c 0,19,20
 927 915 927 915 906.5 856.5 c 128,-1,21
 886 798 886 798 848.5 753 c 128,-1,22
 811 708 811 708 759 676 c 128,-1,23
 707 644 707 644 645 625 c 1,24,-1
 948 139 l 1,25,26
 963 117 963 117 980.5 104 c 128,-1,27
 998 91 998 91 1019.5 84.5 c 128,-1,28
 1041 78 1041 78 1067.5 77.5 c 128,-1,29
 1094 77 1094 77 1128 80 c 1,30,-1
 1139 37 l 1,31,32
 1073 15 1073 15 1013.5 0.5 c 128,-1,33
 954 -14 954 -14 915 -14 c 0,34,35
 886 -14 886 -14 858.5 2 c 128,-1,36
 831 18 831 18 817 41 c 1,37,-1
 514 602 l 1,38,39
 501 600 501 600 488 600 c 2,40,-1
 461 600 l 2,41,42
 435 600 435 600 409 602.5 c 128,-1,43
 383 605 383 605 355 611 c 1,44,-1
 355 104 l 2,45,46
 355 92 355 92 391 74.5 c 128,-1,47
 427 57 427 57 500 43 c 1,48,-1
 500 0 l 1,49,-1
 50 0 l 1,0,-1
432 1206 m 0,50,51
 394 1206 394 1206 355 1203 c 1,52,-1
 355 691 l 1,53,54
 382 686 382 686 402 685 c 128,-1,55
 422 684 422 684 444 684 c 0,56,57
 602 684 602 684 687 753.5 c 128,-1,58
 772 823 772 823 772 956 c 0,59,60
 772 1011 772 1011 752.5 1057 c 128,-1,61
 733 1103 733 1103 691.5 1136 c 128,-1,62
 650 1169 650 1169 585.5 1187.5 c 128,-1,63
 521 1206 521 1206 432 1206 c 0,50,51
EndSplineSet
EndChar

StartChar: S
Encoding: 83 83 54
Width: 975
GlyphClass: 2
Flags: W
AnchorPoint: "Anchor-4" 975 900 basechar 0
AnchorPoint: "Anchor-3" 500 -100 basechar 0
AnchorPoint: "Anchor-2" 480 0 basechar 0
AnchorPoint: "Anchor-1" 500 -100 basechar 0
AnchorPoint: "Anchor-0" 500 1370 basechar 0
LayerCount: 2
Fore
SplineSet
885 377 m 0,0,1
 885 332 885 332 873 285 c 128,-1,2
 861 238 861 238 836.5 192.5 c 128,-1,3
 812 147 812 147 775.5 106.5 c 128,-1,4
 739 66 739 66 689.5 36 c 128,-1,5
 640 6 640 6 577.5 -12 c 128,-1,6
 515 -30 515 -30 440 -30 c 0,7,8
 407 -30 407 -30 368 -23 c 128,-1,9
 329 -16 329 -16 288 -3.5 c 128,-1,10
 247 9 247 9 206.5 27 c 128,-1,11
 166 45 166 45 131 68 c 0,12,13
 124 72 124 72 120.5 102 c 128,-1,14
 117 132 117 132 117 172.5 c 128,-1,15
 117 213 117 213 120 255 c 128,-1,16
 123 297 123 297 131 324 c 1,17,-1
 172 319 l 1,18,19
 195 260 195 260 229.5 217 c 128,-1,20
 264 174 264 174 306 145.5 c 128,-1,21
 348 117 348 117 396.5 103.5 c 128,-1,22
 445 90 445 90 496 90 c 0,23,24
 541 90 541 90 586.5 108.5 c 128,-1,25
 632 127 632 127 668 159 c 128,-1,26
 704 191 704 191 727 233.5 c 128,-1,27
 750 276 750 276 750 324 c 0,28,29
 750 385 750 385 723 429 c 128,-1,30
 696 473 696 473 652.5 507 c 128,-1,31
 609 541 609 541 553 568 c 128,-1,32
 497 595 497 595 438.5 622 c 128,-1,33
 380 649 380 649 324 679 c 128,-1,34
 268 709 268 709 224.5 749 c 128,-1,35
 181 789 181 789 154 841.5 c 128,-1,36
 127 894 127 894 127 967 c 0,37,38
 127 998 127 998 136 1034 c 128,-1,39
 145 1070 145 1070 165 1106 c 128,-1,40
 185 1142 185 1142 216.5 1175.5 c 128,-1,41
 248 1209 248 1209 292.5 1234.5 c 128,-1,42
 337 1260 337 1260 395 1275 c 128,-1,43
 453 1290 453 1290 526 1290 c 0,44,45
 571 1290 571 1290 616.5 1283 c 128,-1,46
 662 1276 662 1276 701.5 1264 c 128,-1,47
 741 1252 741 1252 773 1235 c 128,-1,48
 805 1218 805 1218 823 1198 c 1,49,50
 830 1192 830 1192 823.5 1174.5 c 128,-1,51
 817 1157 817 1157 803.5 1136.5 c 128,-1,52
 790 1116 790 1116 773.5 1096 c 128,-1,53
 757 1076 757 1076 745 1065 c 1,54,-1
 709 1071 l 1,55,56
 681 1104 681 1104 650.5 1126.5 c 128,-1,57
 620 1149 620 1149 588.5 1163.5 c 128,-1,58
 557 1178 557 1178 526 1184 c 128,-1,59
 495 1190 495 1190 467 1190 c 0,60,61
 411 1190 411 1190 371.5 1173 c 128,-1,62
 332 1156 332 1156 306.5 1130.5 c 128,-1,63
 281 1105 281 1105 269 1073.5 c 128,-1,64
 257 1042 257 1042 257 1014 c 0,65,66
 257 967 257 967 284 930.5 c 128,-1,67
 311 894 311 894 355 863.5 c 128,-1,68
 399 833 399 833 455.5 806 c 128,-1,69
 512 779 512 779 571 749.5 c 128,-1,70
 630 720 630 720 686.5 686 c 128,-1,71
 743 652 743 652 787 608 c 128,-1,72
 831 564 831 564 858 507.5 c 128,-1,73
 885 451 885 451 885 377 c 0,0,1
EndSplineSet
EndChar

StartChar: T
Encoding: 84 84 55
Width: 1128
GlyphClass: 2
Flags: W
AnchorPoint: "Anchor-4" 1128 900 basechar 0
AnchorPoint: "Anchor-3" 546 -100 basechar 0
AnchorPoint: "Anchor-2" 551 0 basechar 0
AnchorPoint: "Anchor-1" 546 -100 basechar 0
AnchorPoint: "Anchor-0" 546 1370 basechar 0
LayerCount: 2
Fore
SplineSet
307 0 m 1,0,-1
 307 43 l 1,1,2
 353 52 353 52 384.5 62 c 128,-1,3
 416 72 416 72 435 81.5 c 128,-1,4
 454 91 454 91 462.5 99.5 c 128,-1,5
 471 108 471 108 471 115 c 2,6,-1
 471 1170 l 1,7,-1
 172 1170 l 2,8,9
 157 1170 157 1170 144.5 1164.5 c 128,-1,10
 132 1159 132 1159 119.5 1141 c 128,-1,11
 107 1123 107 1123 91 1088 c 128,-1,12
 75 1053 75 1053 53 995 c 1,13,-1
 10 1014 l 1,14,15
 15 1073 15 1073 23.5 1140 c 128,-1,16
 32 1207 32 1207 43 1260 c 1,17,-1
 1053 1260 l 1,18,-1
 1083 1235 l 1,19,20
 1081 1184 1081 1184 1073 1123.5 c 128,-1,21
 1065 1063 1065 1063 1053 1000 c 1,22,-1
 1008 1000 l 1,23,24
 998 1046 998 1046 990.5 1078.5 c 128,-1,25
 983 1111 983 1111 973 1131.5 c 128,-1,26
 963 1152 963 1152 949.5 1161 c 128,-1,27
 936 1170 936 1170 915 1170 c 2,28,-1
 631 1170 l 1,29,-1
 631 115 l 2,30,31
 631 102 631 102 667 82 c 128,-1,32
 703 62 703 62 795 43 c 1,33,-1
 795 0 l 1,34,-1
 307 0 l 1,0,-1
EndSplineSet
EndChar

StartChar: U
Encoding: 85 85 56
Width: 1339
GlyphClass: 2
Flags: W
AnchorPoint: "Anchor-4" 1330 900 basechar 0
AnchorPoint: "Anchor-3" 760 0 basechar 0
AnchorPoint: "Anchor-2" 677 0 basechar 0
AnchorPoint: "Anchor-1" 677 -100 basechar 0
AnchorPoint: "Anchor-0" 677 1370 basechar 0
LayerCount: 2
Fore
SplineSet
1275 1217 m 1,0,1
 1207 1203 1207 1203 1168.5 1186 c 128,-1,2
 1130 1169 1130 1169 1130 1155 c 2,3,-1
 1130 524 l 2,4,5
 1130 393 1130 393 1098 290 c 128,-1,6
 1066 187 1066 187 1006 116 c 128,-1,7
 946 45 946 45 860 7.5 c 128,-1,8
 774 -30 774 -30 666 -30 c 0,9,10
 563 -30 563 -30 476.5 -1.5 c 128,-1,11
 390 27 390 27 327.5 85.5 c 128,-1,12
 265 144 265 144 230 233 c 128,-1,13
 195 322 195 322 195 444 c 2,14,-1
 195 1155 l 2,15,16
 195 1167 195 1167 158.5 1185 c 128,-1,17
 122 1203 122 1203 50 1217 c 1,18,-1
 50 1260 l 1,19,-1
 500 1260 l 1,20,-1
 500 1217 l 1,21,22
 432 1203 432 1203 393.5 1186 c 128,-1,23
 355 1169 355 1169 355 1155 c 2,24,-1
 355 494 l 2,25,26
 355 398 355 398 377.5 322 c 128,-1,27
 400 246 400 246 444.5 193.5 c 128,-1,28
 489 141 489 141 554 113 c 128,-1,29
 619 85 619 85 705 85 c 0,30,31
 776 85 776 85 831 119.5 c 128,-1,32
 886 154 886 154 923.5 210 c 128,-1,33
 961 266 961 266 980.5 337.5 c 128,-1,34
 1000 409 1000 409 1000 483 c 2,35,-1
 1000 1155 l 2,36,37
 1000 1167 1000 1167 963.5 1185 c 128,-1,38
 927 1203 927 1203 855 1217 c 1,39,-1
 855 1260 l 1,40,-1
 1275 1260 l 1,41,-1
 1275 1217 l 1,0,1
EndSplineSet
EndChar

StartChar: V
Encoding: 86 86 57
Width: 1331
GlyphClass: 2
Flags: W
AnchorPoint: "Anchor-4" 1331 900 basechar 0
AnchorPoint: "Anchor-3" 610 0 basechar 0
AnchorPoint: "Anchor-2" 665 0 basechar 0
AnchorPoint: "Anchor-1" 655 -100 basechar 0
AnchorPoint: "Anchor-0" 665 1370 basechar 0
LayerCount: 2
Fore
SplineSet
1290 1217 m 1,0,1
 1222 1204 1222 1204 1183.5 1191.5 c 128,-1,2
 1145 1179 1145 1179 1135 1151 c 2,3,-1
 752 59 l 2,4,5
 744 37 744 37 724.5 21.5 c 128,-1,6
 705 6 705 6 682 -4.5 c 128,-1,7
 659 -15 659 -15 637 -21 c 128,-1,8
 615 -27 615 -27 602 -30 c 1,9,-1
 162 1151 l 2,10,11
 152 1177 152 1177 117.5 1193 c 128,-1,12
 83 1209 83 1209 20 1217 c 1,13,-1
 20 1260 l 1,14,-1
 455 1260 l 1,15,-1
 455 1217 l 1,16,17
 375 1211 375 1211 345.5 1196.5 c 128,-1,18
 316 1182 316 1182 327 1153 c 2,19,-1
 680 203 l 1,20,-1
 1016 1151 l 2,21,22
 1027 1180 1027 1180 991.5 1193.5 c 128,-1,23
 956 1207 956 1207 874 1217 c 1,24,-1
 874 1260 l 1,25,-1
 1290 1260 l 1,26,-1
 1290 1217 l 1,0,1
EndSplineSet
EndChar

StartChar: W
Encoding: 87 87 58
Width: 1741
GlyphClass: 2
Flags: W
AnchorPoint: "Anchor-4" 1741 900 basechar 0
AnchorPoint: "Anchor-3" 861 -100 basechar 0
AnchorPoint: "Anchor-2" 861 -100 basechar 0
AnchorPoint: "Anchor-1" 861 -100 basechar 0
AnchorPoint: "Anchor-0" 861 1370 basechar 0
LayerCount: 2
Fore
SplineSet
1702 1217 m 1,0,1
 1658 1208 1658 1208 1629 1200 c 128,-1,2
 1600 1192 1600 1192 1583 1184.5 c 128,-1,3
 1566 1177 1566 1177 1558.5 1170 c 128,-1,4
 1551 1163 1551 1163 1550 1155 c 2,5,-1
 1321 59 l 2,6,7
 1316 38 1316 38 1299.5 22.5 c 128,-1,8
 1283 7 1283 7 1262 -3.5 c 128,-1,9
 1241 -14 1241 -14 1219 -20.5 c 128,-1,10
 1197 -27 1197 -27 1182 -30 c 1,11,-1
 856 944 l 1,12,-1
 569 59 l 2,13,14
 562 38 562 38 545 23 c 128,-1,15
 528 8 528 8 506.5 -2.5 c 128,-1,16
 485 -13 485 -13 461.5 -19.5 c 128,-1,17
 438 -26 438 -26 418 -30 c 1,18,-1
 158 1147 l 2,19,20
 153 1172 153 1172 122 1188 c 128,-1,21
 91 1204 91 1204 20 1217 c 1,22,-1
 20 1260 l 1,23,-1
 449 1260 l 1,24,-1
 449 1217 l 1,25,26
 400 1212 400 1212 372 1204.5 c 128,-1,27
 344 1197 344 1197 330 1188 c 128,-1,28
 316 1179 316 1179 313.5 1168.5 c 128,-1,29
 311 1158 311 1158 313 1147 c 2,30,-1
 512 250 l 1,31,-1
 836 1260 l 1,32,-1
 891 1260 l 1,33,-1
 1245 250 l 1,34,-1
 1432 1155 l 2,35,36
 1434 1167 1434 1167 1423 1176 c 128,-1,37
 1412 1185 1412 1185 1391 1192 c 128,-1,38
 1370 1199 1370 1199 1341 1205 c 128,-1,39
 1312 1211 1312 1211 1278 1217 c 1,40,-1
 1278 1260 l 1,41,-1
 1702 1260 l 1,42,-1
 1702 1217 l 1,0,1
EndSplineSet
EndChar

StartChar: X
Encoding: 88 88 59
Width: 1260
GlyphClass: 2
Flags: W
AnchorPoint: "Anchor-4" 1260 900 basechar 0
AnchorPoint: "Anchor-3" 630 -100 basechar 0
AnchorPoint: "Anchor-2" 630 -100 basechar 0
AnchorPoint: "Anchor-1" 630 -100 basechar 0
AnchorPoint: "Anchor-0" 630 1370 basechar 0
LayerCount: 2
Fore
SplineSet
778 0 m 1,0,-1
 778 43 l 1,1,2
 822 47 822 47 849 53.5 c 128,-1,3
 876 60 876 60 888 69.5 c 128,-1,4
 900 79 900 79 898.5 93 c 128,-1,5
 897 107 897 107 883 127 c 2,6,-1
 604 535 l 1,7,-1
 352 127 l 2,8,9
 324 83 324 83 356.5 66 c 128,-1,10
 389 49 389 49 481 43 c 1,11,-1
 481 0 l 1,12,-1
 31 0 l 1,13,-1
 31 43 l 1,14,15
 96 48 96 48 142 66.5 c 128,-1,16
 188 85 188 85 213 127 c 2,17,-1
 530 644 l 1,18,-1
 197 1133 l 2,19,20
 182 1155 182 1155 168 1169 c 128,-1,21
 154 1183 154 1183 136.5 1192 c 128,-1,22
 119 1201 119 1201 96.5 1206.5 c 128,-1,23
 74 1212 74 1212 41 1217 c 1,24,-1
 41 1260 l 1,25,-1
 492 1260 l 1,26,-1
 492 1217 l 1,27,28
 407 1209 407 1209 381 1192.5 c 128,-1,29
 355 1176 355 1176 385 1133 c 2,30,-1
 632 770 l 1,31,-1
 858 1133 l 2,32,33
 872 1156 872 1156 870 1170.5 c 128,-1,34
 868 1185 868 1185 851 1194.5 c 128,-1,35
 834 1204 834 1204 803 1209 c 128,-1,36
 772 1214 772 1214 727 1217 c 1,37,-1
 727 1260 l 1,38,-1
 1180 1260 l 1,39,-1
 1180 1217 l 1,40,41
 1144 1213 1144 1213 1115.5 1207.5 c 128,-1,42
 1087 1202 1087 1202 1065 1192.5 c 128,-1,43
 1043 1183 1043 1183 1026.5 1168.5 c 128,-1,44
 1010 1154 1010 1154 997 1133 c 2,45,-1
 706 662 l 1,46,-1
 1071 127 l 2,47,48
 1086 106 1086 106 1101.5 91.5 c 128,-1,49
 1117 77 1117 77 1135.5 67.5 c 128,-1,50
 1154 58 1154 58 1177 52.5 c 128,-1,51
 1200 47 1200 47 1229 43 c 1,52,-1
 1229 0 l 1,53,-1
 778 0 l 1,0,-1
EndSplineSet
EndChar

StartChar: Y
Encoding: 89 89 60
Width: 1217
GlyphClass: 2
Flags: W
AnchorPoint: "Anchor-4" 1217 900 basechar 0
AnchorPoint: "Anchor-3" 604 -100 basechar 0
AnchorPoint: "Anchor-2" 604 -100 basechar 0
AnchorPoint: "Anchor-1" 604 -100 basechar 0
AnchorPoint: "Anchor-0" 604 1370 basechar 0
LayerCount: 2
Fore
SplineSet
360 0 m 1,0,-1
 360 43 l 1,1,2
 451 62 451 62 487.5 81.5 c 128,-1,3
 524 101 524 101 524 115 c 2,4,-1
 524 537 l 1,5,6
 487 618 487 618 440 706 c 128,-1,7
 393 794 393 794 344 877 c 128,-1,8
 295 960 295 960 249 1031.5 c 128,-1,9
 203 1103 203 1103 168 1151 c 0,10,11
 159 1162 159 1162 147.5 1172 c 128,-1,12
 136 1182 136 1182 118 1189.5 c 128,-1,13
 100 1197 100 1197 73 1201.5 c 128,-1,14
 46 1206 46 1206 4 1206 c 1,15,-1
 0 1249 l 1,16,17
 59 1257 59 1257 118 1263.5 c 128,-1,18
 177 1270 177 1270 219 1270 c 0,19,20
 265 1270 265 1270 297 1231 c 1,21,22
 334 1183 334 1183 377 1117.5 c 128,-1,23
 420 1052 420 1052 463 979 c 128,-1,24
 506 906 506 906 547 829 c 128,-1,25
 588 752 588 752 623 680 c 1,26,-1
 891 1151 l 2,27,28
 906 1177 906 1177 881.5 1192 c 128,-1,29
 857 1207 857 1207 780 1217 c 1,30,-1
 780 1260 l 1,31,-1
 1176 1260 l 1,32,-1
 1176 1217 l 1,33,34
 1107 1204 1107 1204 1070.5 1190.5 c 128,-1,35
 1034 1177 1034 1177 1020 1151 c 2,36,-1
 684 541 l 1,37,-1
 684 115 l 2,38,39
 684 109 684 109 692.5 100.5 c 128,-1,40
 701 92 701 92 720.5 82 c 128,-1,41
 740 72 740 72 771.5 62 c 128,-1,42
 803 52 803 52 850 43 c 1,43,-1
 850 0 l 1,44,-1
 360 0 l 1,0,-1
EndSplineSet
EndChar

StartChar: Z
Encoding: 90 90 61
Width: 1071
GlyphClass: 2
Flags: W
AnchorPoint: "Anchor-4" 1071 900 basechar 0
AnchorPoint: "Anchor-3" 535 -100 basechar 0
AnchorPoint: "Anchor-2" 535 -100 basechar 0
AnchorPoint: "Anchor-1" 535 -100 basechar 0
AnchorPoint: "Anchor-0" 555 1370 basechar 0
LayerCount: 2
Fore
SplineSet
991 293 m 1,0,1
 989 261 989 261 987.5 222 c 128,-1,2
 986 183 986 183 984.5 143.5 c 128,-1,3
 983 104 983 104 981.5 66.5 c 128,-1,4
 980 29 980 29 979 0 c 1,5,-1
 88 0 l 1,6,-1
 59 45 l 1,7,-1
 770 1160 l 1,8,-1
 311 1160 l 2,9,10
 295 1160 295 1160 276 1149 c 128,-1,11
 257 1138 257 1138 239 1114 c 128,-1,12
 221 1090 221 1090 205 1052.5 c 128,-1,13
 189 1015 189 1015 178 963 c 1,14,-1
 121 975 l 1,15,-1
 150 1276 l 1,16,17
 177 1270 177 1270 199.5 1266.5 c 128,-1,18
 222 1263 222 1263 243.5 1261.5 c 128,-1,19
 265 1260 265 1260 288 1260 c 2,20,-1
 956 1260 l 1,21,-1
 981 1217 l 1,22,-1
 276 100 l 1,23,-1
 799 100 l 2,24,25
 820 100 820 100 837 109.5 c 128,-1,26
 854 119 854 119 869.5 142 c 128,-1,27
 885 165 885 165 901 205 c 128,-1,28
 917 245 917 245 936 307 c 1,29,-1
 991 293 l 1,0,1
EndSplineSet
EndChar

StartChar: bracketleft
Encoding: 91 91 62
Width: 631
Flags: W
LayerCount: 2
Fore
SplineSet
590 -249 m 1,0,1
 585 -269 585 -269 577 -293.5 c 128,-1,2
 569 -318 569 -318 561 -335 c 1,3,-1
 140 -335 l 1,4,-1
 140 1600 l 1,5,-1
 555 1600 l 1,6,-1
 588 1574 l 1,7,8
 583 1549 583 1549 575 1523 c 128,-1,9
 567 1497 567 1497 561 1485 c 1,10,-1
 280 1485 l 1,11,-1
 280 -220 l 1,12,-1
 555 -220 l 1,13,-1
 590 -249 l 1,0,1
EndSplineSet
EndChar

StartChar: backslash
Encoding: 92 92 63
Width: 961
Flags: W
LayerCount: 2
Fore
SplineSet
870 -335 m 1,0,1
 858 -331 858 -331 842 -325 c 128,-1,2
 826 -319 826 -319 810 -312.5 c 128,-1,3
 794 -306 794 -306 779.5 -298.5 c 128,-1,4
 765 -291 765 -291 756 -284 c 1,5,-1
 55 1578 l 1,6,-1
 92 1600 l 1,7,8
 150 1585 150 1585 205 1551 c 1,9,-1
 905 -310 l 1,10,-1
 870 -335 l 1,0,1
EndSplineSet
EndChar

StartChar: bracketright
Encoding: 93 93 64
Width: 631
Flags: W
LayerCount: 2
Fore
SplineSet
76 -335 m 1,0,-1
 43 -306 l 1,1,2
 46 -283 46 -283 53.5 -258 c 128,-1,3
 61 -233 61 -233 68 -220 c 1,4,-1
 350 -220 l 1,5,-1
 350 1485 l 1,6,-1
 76 1485 l 1,7,-1
 41 1511 l 1,8,9
 44 1533 44 1533 52.5 1558 c 128,-1,10
 61 1583 61 1583 68 1600 c 1,11,-1
 490 1600 l 1,12,-1
 490 -335 l 1,13,-1
 76 -335 l 1,0,-1
EndSplineSet
EndChar

StartChar: asciicircum
Encoding: 94 94 65
Width: 1008
Flags: W
LayerCount: 2
Fore
SplineSet
907 635 m 1,0,1
 882 612 882 612 858.5 596.5 c 128,-1,2
 835 581 835 581 801 565 c 1,3,-1
 764 592 l 1,4,-1
 481 1315 l 1,5,-1
 231 635 l 1,6,7
 220 625 220 625 206 614.5 c 128,-1,8
 192 604 192 604 177 594.5 c 128,-1,9
 162 585 162 585 147.5 577.5 c 128,-1,10
 133 570 133 570 123 565 c 1,11,-1
 100 592 l 1,12,-1
 422 1462 l 1,13,14
 434 1474 434 1474 451.5 1486.5 c 128,-1,15
 469 1499 469 1499 487 1511 c 128,-1,16
 505 1523 505 1523 523 1533 c 128,-1,17
 541 1543 541 1543 555 1550 c 1,18,-1
 907 635 l 1,0,1
EndSplineSet
EndChar

StartChar: underscore
Encoding: 95 95 66
Width: 961
Flags: W
LayerCount: 2
Fore
SplineSet
897 -156 m 1,0,1
 892 -177 892 -177 884 -202 c 128,-1,2
 876 -227 876 -227 868 -246 c 1,3,-1
 86 -246 l 1,4,-1
 61 -219 l 1,5,6
 66 -199 66 -199 74.5 -175 c 128,-1,7
 83 -151 83 -151 92 -131 c 1,8,-1
 874 -131 l 1,9,-1
 897 -156 l 1,0,1
EndSplineSet
EndChar

StartChar: grave
Encoding: 96 96 67
Width: 653
Flags: W
LayerCount: 2
Fore
SplineSet
438 1078 m 1,0,1
 429 1070 429 1070 414 1061 c 128,-1,2
 399 1052 399 1052 382 1047 c 1,3,-1
 30 1424 l 1,4,-1
 52 1465 l 1,5,6
 62 1467 62 1467 81.5 1470.5 c 128,-1,7
 101 1474 101 1474 122.5 1478 c 128,-1,8
 144 1482 144 1482 165 1485 c 128,-1,9
 186 1488 186 1488 198 1489 c 1,10,-1
 438 1078 l 1,0,1
EndSplineSet
EndChar

StartChar: a
Encoding: 97 97 68
Width: 940
GlyphClass: 2
Flags: W
AnchorPoint: "Anchor-4" 940 900 basechar 0
AnchorPoint: "Anchor-3" 715 0 basechar 0
AnchorPoint: "Anchor-2" 700 0 basechar 0
AnchorPoint: "Anchor-1" 460 -100 basechar 0
AnchorPoint: "Anchor-0" 480 1050 basechar 0
LayerCount: 2
Fore
SplineSet
352 100 m 0,0,1
 412 100 412 100 479.5 130.5 c 128,-1,2
 547 161 547 161 623 227 c 1,3,-1
 623 486 l 1,4,5
 539 472 539 472 484.5 459 c 128,-1,6
 430 446 430 446 395 432.5 c 128,-1,7
 360 419 360 419 339 404 c 128,-1,8
 318 389 318 389 302 372 c 0,9,10
 276 345 276 345 260 310.5 c 128,-1,11
 244 276 244 276 244 229 c 0,12,13
 244 189 244 189 256 164 c 128,-1,14
 268 139 268 139 285 124.5 c 128,-1,15
 302 110 302 110 320.5 105 c 128,-1,16
 339 100 339 100 352 100 c 0,0,1
926 82 m 1,17,18
 841 23 841 23 785.5 -3.5 c 128,-1,19
 730 -30 730 -30 702 -30 c 0,20,21
 669 -30 669 -30 647 16 c 128,-1,22
 625 62 625 62 623 143 c 1,23,24
 578 98 578 98 533 65 c 128,-1,25
 488 32 488 32 445 11 c 128,-1,26
 402 -10 402 -10 363.5 -20 c 128,-1,27
 325 -30 325 -30 293 -30 c 0,28,29
 257 -30 257 -30 219 -18 c 128,-1,30
 181 -6 181 -6 150.5 20 c 128,-1,31
 120 46 120 46 100 87 c 128,-1,32
 80 128 80 128 80 186 c 0,33,34
 80 262 80 262 106.5 313 c 128,-1,35
 133 364 133 364 170 401 c 0,36,37
 194 425 194 425 224.5 446.5 c 128,-1,38
 255 468 255 468 305.5 488 c 128,-1,39
 356 508 356 508 432 526 c 128,-1,40
 508 544 508 544 623 561 c 1,41,-1
 623 702 l 2,42,43
 623 736 623 736 615 765.5 c 128,-1,44
 607 795 607 795 588 816.5 c 128,-1,45
 569 838 569 838 536.5 849.5 c 128,-1,46
 504 861 504 861 455 860 c 0,47,48
 423 859 423 859 392 849 c 128,-1,49
 361 839 361 839 338 821 c 128,-1,50
 315 803 315 803 302 778.5 c 128,-1,51
 289 754 289 754 292 724 c 0,52,53
 293 715 293 715 271.5 703.5 c 128,-1,54
 250 692 250 692 220.5 683 c 128,-1,55
 191 674 191 674 162.5 669 c 128,-1,56
 134 664 134 664 122 667 c 1,57,-1
 108 706 l 1,58,59
 131 756 131 756 178 802 c 128,-1,60
 225 848 225 848 285.5 883 c 128,-1,61
 346 918 346 918 413.5 939 c 128,-1,62
 481 960 481 960 544 960 c 0,63,64
 654 960 654 960 713.5 902.5 c 128,-1,65
 773 845 773 845 773 742 c 2,66,-1
 773 178 l 2,67,68
 773 136 773 136 784 118 c 128,-1,69
 795 100 795 100 813 100 c 0,70,71
 827 100 827 100 849 105 c 128,-1,72
 871 110 871 110 911 127 c 1,73,-1
 926 82 l 1,17,18
EndSplineSet
Substitution2: "'aalt' Access All Alternates lookup 7 subtable" a.SngStory
EndChar

StartChar: b
Encoding: 98 98 69
Width: 1040
GlyphClass: 2
Flags: W
AnchorPoint: "Anchor-4" 1040 900 basechar 0
AnchorPoint: "Anchor-3" 479 -100 basechar 0
AnchorPoint: "Anchor-2" 479 0 basechar 0
AnchorPoint: "Anchor-1" 479 -100 basechar 0
AnchorPoint: "Anchor-0" 520 1620 basechar 0
LayerCount: 2
Fore
SplineSet
950 492 m 0,0,1
 950 434 950 434 935 373 c 128,-1,2
 920 312 920 312 891 254 c 128,-1,3
 862 196 862 196 820 144 c 128,-1,4
 778 92 778 92 724.5 53.5 c 128,-1,5
 671 15 671 15 607 -7.5 c 128,-1,6
 543 -30 543 -30 469 -30 c 0,7,8
 450 -30 450 -30 416.5 -21.5 c 128,-1,9
 383 -13 383 -13 339.5 3 c 128,-1,10
 296 19 296 19 245 42.5 c 128,-1,11
 194 66 194 66 140 96 c 1,12,-1
 140 1296 l 2,13,14
 140 1342 140 1342 135 1367 c 128,-1,15
 130 1392 130 1392 116 1404.5 c 128,-1,16
 102 1417 102 1417 76.5 1421 c 128,-1,17
 51 1425 51 1425 10 1430 c 1,18,-1
 10 1470 l 1,19,20
 76 1486 76 1486 136 1502.5 c 128,-1,21
 196 1519 196 1519 253 1550 c 1,22,-1
 263 1540 l 2,23,24
 269 1534 269 1534 275 1529 c 0,25,26
 282 1523 282 1523 290 1516 c 1,27,-1
 290 727 l 1,28,29
 340 787 340 787 389.5 831 c 128,-1,30
 439 875 439 875 484.5 903.5 c 128,-1,31
 530 932 530 932 569 946 c 128,-1,32
 608 960 608 960 637 960 c 0,33,34
 705 960 705 960 762.5 928 c 128,-1,35
 820 896 820 896 861.5 835.5 c 128,-1,36
 903 775 903 775 926.5 688 c 128,-1,37
 950 601 950 601 950 492 c 0,0,1
815 408 m 0,38,39
 815 508 815 508 794.5 585.5 c 128,-1,40
 774 663 774 663 739.5 716 c 128,-1,41
 705 769 705 769 660 797 c 128,-1,42
 615 825 615 825 567 825 c 0,43,44
 549 825 549 825 519.5 814.5 c 128,-1,45
 490 804 490 804 453 779.5 c 128,-1,46
 416 755 416 755 374 713.5 c 128,-1,47
 332 672 332 672 290 610 c 1,48,-1
 290 203 l 1,49,50
 330 173 330 173 371.5 153 c 128,-1,51
 413 133 413 133 450.5 121.5 c 128,-1,52
 488 110 488 110 518.5 105 c 128,-1,53
 549 100 549 100 567 100 c 0,54,55
 628 100 628 100 674 126.5 c 128,-1,56
 720 153 720 153 751.5 196.5 c 128,-1,57
 783 240 783 240 799 295 c 128,-1,58
 815 350 815 350 815 408 c 0,38,39
EndSplineSet
EndChar

StartChar: c
Encoding: 99 99 70
Width: 895
GlyphClass: 2
Flags: W
AnchorPoint: "Anchor-4" 895 900 basechar 0
AnchorPoint: "Anchor-3" 490 -100 basechar 0
AnchorPoint: "Anchor-2" 490 0 basechar 0
AnchorPoint: "Anchor-1" 490 -100 basechar 0
AnchorPoint: "Anchor-0" 490 1050 basechar 0
LayerCount: 2
Fore
SplineSet
840 190 m 1,0,1
 775 113 775 113 725.5 69.5 c 128,-1,2
 676 26 676 26 634 3.5 c 128,-1,3
 592 -19 592 -19 552 -24.5 c 128,-1,4
 512 -30 512 -30 465 -30 c 0,5,6
 392 -30 392 -30 322.5 2.5 c 128,-1,7
 253 35 253 35 199 96 c 128,-1,8
 145 157 145 157 112.5 245 c 128,-1,9
 80 333 80 333 80 444 c 0,10,11
 80 552 80 552 119.5 646 c 128,-1,12
 159 740 159 740 227.5 809.5 c 128,-1,13
 296 879 296 879 389 919.5 c 128,-1,14
 482 960 482 960 590 960 c 0,15,16
 623 960 623 960 657.5 954.5 c 128,-1,17
 692 949 692 949 723.5 938.5 c 128,-1,18
 755 928 755 928 781.5 913.5 c 128,-1,19
 808 899 808 899 825 881 c 1,20,21
 827 869 827 869 822 847 c 128,-1,22
 817 825 817 825 808 800.5 c 128,-1,23
 799 776 799 776 788 753.5 c 128,-1,24
 777 731 777 731 768 717 c 1,25,-1
 731 727 l 1,26,27
 723 745 723 745 705 766 c 128,-1,28
 687 787 687 787 658.5 806 c 128,-1,29
 630 825 630 825 590.5 837.5 c 128,-1,30
 551 850 551 850 500 850 c 0,31,32
 447 850 447 850 398.5 826.5 c 128,-1,33
 350 803 350 803 312.5 756 c 128,-1,34
 275 709 275 709 252.5 639 c 128,-1,35
 230 569 230 569 230 475 c 0,36,37
 230 390 230 390 255.5 320.5 c 128,-1,38
 281 251 281 251 323.5 202 c 128,-1,39
 366 153 366 153 421.5 126.5 c 128,-1,40
 477 100 477 100 537 100 c 0,41,42
 565 100 565 100 589 102.5 c 128,-1,43
 613 105 613 105 641.5 118 c 128,-1,44
 670 131 670 131 707.5 157 c 128,-1,45
 745 183 745 183 801 231 c 1,46,-1
 840 190 l 1,0,1
EndSplineSet
EndChar

StartChar: d
Encoding: 100 100 71
Width: 1065
GlyphClass: 2
Flags: W
AnchorPoint: "Anchor-4" 1065 900 basechar 0
AnchorPoint: "Anchor-3" 525 -100 basechar 0
AnchorPoint: "Anchor-2" 820 0 basechar 0
AnchorPoint: "Anchor-1" 525 -100 basechar 0
AnchorPoint: "Anchor-0" 335 1050 basechar 0
LayerCount: 2
Fore
SplineSet
1051 84 m 1,0,1
 1005 53 1005 53 969.5 31.5 c 128,-1,2
 934 10 934 10 907.5 -3.5 c 128,-1,3
 881 -17 881 -17 862 -23.5 c 128,-1,4
 843 -30 843 -30 829 -30 c 0,5,6
 796 -30 796 -30 775 15 c 128,-1,7
 754 60 754 60 747 169 c 1,8,9
 709 123 709 123 671.5 86 c 128,-1,10
 634 49 634 49 594.5 23.5 c 128,-1,11
 555 -2 555 -2 511 -16 c 128,-1,12
 467 -30 467 -30 416 -30 c 0,13,14
 360 -30 360 -30 301 2.5 c 128,-1,15
 242 35 242 35 192.5 96 c 128,-1,16
 143 157 143 157 111.5 245 c 128,-1,17
 80 333 80 333 80 444 c 0,18,19
 80 501 80 501 95.5 562 c 128,-1,20
 111 623 111 623 140 680 c 128,-1,21
 169 737 169 737 211 788 c 128,-1,22
 253 839 253 839 305 877.5 c 128,-1,23
 357 916 357 916 419 938 c 128,-1,24
 481 960 481 960 551 960 c 0,25,26
 598 960 598 960 644.5 948.5 c 128,-1,27
 691 937 691 937 745 897 c 1,28,-1
 745 1274 l 2,29,30
 745 1329 745 1329 742 1361.5 c 128,-1,31
 739 1394 739 1394 725 1411.5 c 128,-1,32
 711 1429 711 1429 682 1435.5 c 128,-1,33
 653 1442 653 1442 600 1446 c 1,34,-1
 600 1485 l 1,35,36
 682 1496 682 1496 747 1514.5 c 128,-1,37
 812 1533 812 1533 864 1550 c 1,38,-1
 895 1520 l 1,39,-1
 895 254 l 2,40,41
 895 219 895 219 896.5 194 c 128,-1,42
 898 169 898 169 901 152 c 128,-1,43
 904 135 904 135 908 124 c 128,-1,44
 912 113 912 113 918 106 c 0,45,46
 927 95 927 95 952.5 99.5 c 128,-1,47
 978 104 978 104 1038 127 c 1,48,-1
 1051 84 l 1,0,1
745 261 m 1,49,-1
 745 730 l 1,50,51
 712 787 712 787 652 818.5 c 128,-1,52
 592 850 592 850 520 850 c 0,53,54
 456 850 456 850 403 826.5 c 128,-1,55
 350 803 350 803 311.5 756 c 128,-1,56
 273 709 273 709 251.5 639 c 128,-1,57
 230 569 230 569 230 475 c 0,58,59
 230 390 230 390 254.5 320.5 c 128,-1,60
 279 251 279 251 317 202 c 128,-1,61
 355 153 355 153 400.5 126.5 c 128,-1,62
 446 100 446 100 487 100 c 0,63,64
 521 100 521 100 554 114 c 128,-1,65
 587 128 587 128 619 150.5 c 128,-1,66
 651 173 651 173 682.5 202 c 128,-1,67
 714 231 714 231 745 261 c 1,49,-1
EndSplineSet
EndChar

StartChar: e
Encoding: 101 101 72
Width: 946
GlyphClass: 2
Flags: W
AnchorPoint: "Anchor-4" 946 900 basechar 0
AnchorPoint: "Anchor-3" 700 0 basechar 0
AnchorPoint: "Anchor-2" 500 0 basechar 0
AnchorPoint: "Anchor-1" 500 -100 basechar 0
AnchorPoint: "Anchor-0" 510 1050 basechar 0
LayerCount: 2
Fore
SplineSet
496 855 m 0,0,1
 444 855 444 855 400.5 835 c 128,-1,2
 357 815 357 815 323.5 778.5 c 128,-1,3
 290 742 290 742 267.5 691.5 c 128,-1,4
 245 641 245 641 236 580 c 1,5,-1
 664 580 l 2,6,7
 687 580 687 580 694.5 587.5 c 128,-1,8
 702 595 702 595 702 616 c 0,9,10
 702 643 702 643 694.5 683.5 c 128,-1,11
 687 724 687 724 664.5 762.5 c 128,-1,12
 642 801 642 801 601.5 828 c 128,-1,13
 561 855 561 855 496 855 c 0,0,1
866 557 m 1,14,15
 848 537 848 537 818 520 c 128,-1,16
 788 503 788 503 756 490 c 1,17,-1
 230 490 l 1,18,19
 231 412 231 412 251.5 341.5 c 128,-1,20
 272 271 272 271 310.5 217.5 c 128,-1,21
 349 164 349 164 403.5 132 c 128,-1,22
 458 100 458 100 526 100 c 0,23,24
 557 100 557 100 586.5 104 c 128,-1,25
 616 108 616 108 650 122 c 128,-1,26
 684 136 684 136 725.5 163 c 128,-1,27
 767 190 767 190 823 236 c 1,28,29
 836 229 836 229 845.5 216 c 128,-1,30
 855 203 855 203 860 195 c 1,31,32
 793 122 793 122 742.5 77.5 c 128,-1,33
 692 33 692 33 647.5 9 c 128,-1,34
 603 -15 603 -15 559.5 -22.5 c 128,-1,35
 516 -30 516 -30 465 -30 c 0,36,37
 388 -30 388 -30 318.5 3 c 128,-1,38
 249 36 249 36 196 96.5 c 128,-1,39
 143 157 143 157 111.5 242.5 c 128,-1,40
 80 328 80 328 80 434 c 0,41,42
 80 501 80 501 95 566 c 128,-1,43
 110 631 110 631 138.5 689 c 128,-1,44
 167 747 167 747 208 796 c 128,-1,45
 249 845 249 845 301 881 c 0,46,47
 323 896 323 896 350.5 910.5 c 128,-1,48
 378 925 378 925 408 936 c 128,-1,49
 438 947 438 947 467.5 953.5 c 128,-1,50
 497 960 497 960 524 960 c 0,51,52
 589 960 589 960 640 942 c 128,-1,53
 691 924 691 924 729 893.5 c 128,-1,54
 767 863 767 863 793 822.5 c 128,-1,55
 819 782 819 782 835.5 737 c 128,-1,56
 852 692 852 692 859 645.5 c 128,-1,57
 866 599 866 599 866 557 c 1,14,15
EndSplineSet
EndChar

StartChar: f
Encoding: 102 102 73
Width: 637
GlyphClass: 2
Flags: W
AnchorPoint: "Anchor-4" 637 900 basechar 0
AnchorPoint: "Anchor-3" 325 -100 basechar 0
AnchorPoint: "Anchor-2" 275 0 basechar 0
AnchorPoint: "Anchor-1" 325 -100 basechar 0
AnchorPoint: "Anchor-0" 420 1620 basechar 0
LayerCount: 2
Fore
SplineSet
817 1454 m 0,0,1
 817 1446 817 1446 802.5 1430 c 128,-1,2
 788 1414 788 1414 768 1397 c 128,-1,3
 748 1380 748 1380 726.5 1365 c 128,-1,4
 705 1350 705 1350 690 1343 c 1,5,6
 666 1364 666 1364 641.5 1379.5 c 128,-1,7
 617 1395 617 1395 594.5 1405 c 128,-1,8
 572 1415 572 1415 552.5 1420 c 128,-1,9
 533 1425 533 1425 520 1425 c 0,10,11
 494 1425 494 1425 464.5 1407.5 c 128,-1,12
 435 1390 435 1390 409.5 1344 c 128,-1,13
 384 1298 384 1298 367 1219 c 128,-1,14
 350 1140 350 1140 350 1016 c 2,15,-1
 350 930 l 1,16,-1
 608 930 l 1,17,-1
 637 901 l 1,18,19
 628 887 628 887 614.5 871 c 128,-1,20
 601 855 601 855 587.5 841 c 128,-1,21
 574 827 574 827 561 815.5 c 128,-1,22
 548 804 548 804 539 800 c 1,23,24
 516 812 516 812 473 823.5 c 128,-1,25
 430 835 430 835 350 835 c 1,26,-1
 350 102 l 2,27,28
 350 96 350 96 360.5 90 c 128,-1,29
 371 84 371 84 396 77.5 c 128,-1,30
 421 71 421 71 460.5 62.5 c 128,-1,31
 500 54 500 54 559 43 c 1,32,-1
 559 0 l 1,33,-1
 60 0 l 1,34,-1
 60 43 l 1,35,36
 129 55 129 55 164.5 72.5 c 128,-1,37
 200 90 200 90 200 102 c 2,38,-1
 200 835 l 1,39,-1
 66 835 l 1,40,-1
 45 863 l 1,41,-1
 123 930 l 1,42,-1
 200 930 l 1,43,-1
 200 961 l 2,44,45
 200 1079 200 1079 216 1159.5 c 128,-1,46
 232 1240 232 1240 259.5 1295.5 c 128,-1,47
 287 1351 287 1351 323 1388.5 c 128,-1,48
 359 1426 359 1426 399 1458 c 0,49,50
 426 1480 426 1480 458 1497 c 128,-1,51
 490 1514 490 1514 521.5 1526 c 128,-1,52
 553 1538 553 1538 581.5 1544 c 128,-1,53
 610 1550 610 1550 629 1550 c 0,54,55
 660 1550 660 1550 693 1538 c 128,-1,56
 726 1526 726 1526 753.5 1510.5 c 128,-1,57
 781 1495 781 1495 799 1479 c 128,-1,58
 817 1463 817 1463 817 1454 c 0,0,1
EndSplineSet
EndChar

StartChar: g
Encoding: 103 103 74
Width: 999
GlyphClass: 2
Flags: W
AnchorPoint: "Anchor-4" 999 900 basechar 0
AnchorPoint: "Anchor-3" 500 -600 basechar 0
AnchorPoint: "Anchor-2" 500 -470 basechar 0
AnchorPoint: "Anchor-1" 500 -600 basechar 0
AnchorPoint: "Anchor-0" 500 1050 basechar 0
LayerCount: 2
Fore
SplineSet
690 600 m 0,0,1
 690 653 690 653 672.5 700.5 c 128,-1,2
 655 748 655 748 620.5 783.5 c 128,-1,3
 586 819 586 819 534.5 839.5 c 128,-1,4
 483 860 483 860 416 860 c 0,5,6
 391 860 391 860 360.5 847 c 128,-1,7
 330 834 330 834 303 809 c 128,-1,8
 276 784 276 784 258 746 c 128,-1,9
 240 708 240 708 240 659 c 0,10,11
 240 606 240 606 256.5 558.5 c 128,-1,12
 273 511 273 511 306.5 476 c 128,-1,13
 340 441 340 441 391.5 420.5 c 128,-1,14
 443 400 443 400 514 400 c 0,15,16
 543 400 543 400 574.5 412.5 c 128,-1,17
 606 425 606 425 631.5 450.5 c 128,-1,18
 657 476 657 476 673.5 513 c 128,-1,19
 690 550 690 550 690 600 c 0,0,1
518 -4 m 0,20,21
 480 0 480 0 448 5 c 128,-1,22
 416 10 416 10 388 16 c 1,23,24
 316 -23 316 -23 274.5 -54 c 128,-1,25
 233 -85 233 -85 212 -109.5 c 128,-1,26
 191 -134 191 -134 185.5 -154 c 128,-1,27
 180 -174 180 -174 180 -190 c 0,28,29
 180 -232 180 -232 208 -269.5 c 128,-1,30
 236 -307 236 -307 283 -334.5 c 128,-1,31
 330 -362 330 -362 392 -378.5 c 128,-1,32
 454 -395 454 -395 522 -395 c 0,33,34
 589 -395 589 -395 644 -377 c 128,-1,35
 699 -359 699 -359 738 -327.5 c 128,-1,36
 777 -296 777 -296 798.5 -252.5 c 128,-1,37
 820 -209 820 -209 820 -157 c 0,38,39
 820 -129 820 -129 807 -105.5 c 128,-1,40
 794 -82 794 -82 760 -63 c 128,-1,41
 726 -44 726 -44 667.5 -29 c 128,-1,42
 609 -14 609 -14 518 -4 c 0,20,21
830 641 m 0,43,44
 830 564 830 564 795.5 500.5 c 128,-1,45
 761 437 761 437 705 391.5 c 128,-1,46
 649 346 649 346 578 320.5 c 128,-1,47
 507 295 507 295 434 295 c 2,48,-1
 430 295 l 1,49,50
 382 255 382 255 364 228.5 c 128,-1,51
 346 202 346 202 346 196 c 0,52,53
 346 184 346 184 356.5 172.5 c 128,-1,54
 367 161 367 161 395.5 150.5 c 128,-1,55
 424 140 424 140 474 129.5 c 128,-1,56
 524 119 524 119 602 110 c 0,57,58
 711 98 711 98 782 74 c 128,-1,59
 853 50 853 50 895 18.5 c 128,-1,60
 937 -13 937 -13 953.5 -49 c 128,-1,61
 970 -85 970 -85 970 -120 c 0,62,63
 970 -175 970 -175 949 -224.5 c 128,-1,64
 928 -274 928 -274 892 -316 c 128,-1,65
 856 -358 856 -358 807 -392 c 128,-1,66
 758 -426 758 -426 702 -450 c 128,-1,67
 646 -474 646 -474 586 -487 c 128,-1,68
 526 -500 526 -500 467 -500 c 0,69,70
 420 -500 420 -500 370 -493.5 c 128,-1,71
 320 -487 320 -487 271 -473 c 128,-1,72
 222 -459 222 -459 178.5 -437.5 c 128,-1,73
 135 -416 135 -416 102 -385.5 c 128,-1,74
 69 -355 69 -355 49.5 -316.5 c 128,-1,75
 30 -278 30 -278 30 -229 c 0,76,77
 30 -203 30 -203 39.5 -174.5 c 128,-1,78
 49 -146 49 -146 78 -113 c 128,-1,79
 107 -80 107 -80 159 -42 c 128,-1,80
 211 -4 211 -4 297 42 c 1,81,82
 232 65 232 65 207 94 c 128,-1,83
 182 123 182 123 182 153 c 0,84,85
 182 161 182 161 187 174.5 c 128,-1,86
 192 188 192 188 207.5 207.5 c 128,-1,87
 223 227 223 227 251.5 252 c 128,-1,88
 280 277 280 277 326 309 c 1,89,90
 275 323 275 323 233.5 349.5 c 128,-1,91
 192 376 192 376 162.5 413.5 c 128,-1,92
 133 451 133 451 116.5 498.5 c 128,-1,93
 100 546 100 546 100 602 c 0,94,95
 100 675 100 675 133 740.5 c 128,-1,96
 166 806 166 806 220 854.5 c 128,-1,97
 274 903 274 903 343 931.5 c 128,-1,98
 412 960 412 960 485 960 c 0,99,100
 545 960 545 960 597.5 943 c 128,-1,101
 650 926 650 926 693 895 c 1,102,103
 745 900 745 900 787 908 c 128,-1,104
 829 916 829 916 862.5 925 c 128,-1,105
 896 934 896 934 922 943 c 128,-1,106
 948 952 948 952 969 960 c 1,107,-1
 989 930 l 1,108,109
 977 902 977 902 966 878.5 c 128,-1,110
 955 855 955 855 932 830 c 1,111,112
 894 823 894 823 857.5 819 c 128,-1,113
 821 815 821 815 775 813 c 1,114,115
 801 775 801 775 815.5 732 c 128,-1,116
 830 689 830 689 830 641 c 0,43,44
EndSplineSet
Substitution2: "'aalt' Access All Alternates lookup 7 subtable" g.SngBowl
EndChar

StartChar: h
Encoding: 104 104 75
Width: 1130
GlyphClass: 2
Flags: W
AnchorPoint: "Anchor-4" 1130 900 basechar 0
AnchorPoint: "Anchor-3" 577 -100 basechar 0
AnchorPoint: "Anchor-2" 257 0 basechar 0
AnchorPoint: "Anchor-1" 577 -100 basechar 0
AnchorPoint: "Anchor-0" 577 1620 basechar 0
LayerCount: 2
Fore
SplineSet
670 0 m 1,0,-1
 670 43 l 1,1,2
 742 62 742 62 776 76 c 128,-1,3
 810 90 810 90 810 104 c 2,4,-1
 810 633 l 2,5,6
 810 694 810 694 802.5 732 c 128,-1,7
 795 770 795 770 779 792 c 128,-1,8
 763 814 763 814 739 822 c 128,-1,9
 715 830 715 830 682 830 c 0,10,11
 647 830 647 830 606.5 812 c 128,-1,12
 566 794 566 794 522 759 c 128,-1,13
 478 724 478 724 433 671.5 c 128,-1,14
 388 619 388 619 345 549 c 1,15,-1
 345 104 l 2,16,17
 345 89 345 89 382.5 73 c 128,-1,18
 420 57 420 57 485 43 c 1,19,-1
 485 0 l 1,20,-1
 55 0 l 1,21,-1
 55 43 l 1,22,23
 121 60 121 60 158 73.5 c 128,-1,24
 195 87 195 87 195 104 c 2,25,-1
 195 1298 l 2,26,27
 195 1340 195 1340 191.5 1363.5 c 128,-1,28
 188 1387 188 1387 173.5 1400 c 128,-1,29
 159 1413 159 1413 131 1418.5 c 128,-1,30
 103 1424 103 1424 55 1430 c 1,31,-1
 55 1470 l 1,32,33
 97 1478 97 1478 131.5 1486 c 128,-1,34
 166 1494 166 1494 195.5 1503.5 c 128,-1,35
 225 1513 225 1513 252 1524 c 128,-1,36
 279 1535 279 1535 308 1550 c 1,37,-1
 345 1516 l 1,38,-1
 345 684 l 1,39,40
 388 748 388 748 440.5 799 c 128,-1,41
 493 850 493 850 546 886 c 128,-1,42
 599 922 599 922 649.5 941 c 128,-1,43
 700 960 700 960 739 960 c 0,44,45
 782 960 782 960 822 947 c 128,-1,46
 862 934 862 934 892.5 907 c 128,-1,47
 923 880 923 880 941.5 838.5 c 128,-1,48
 960 797 960 797 960 741 c 2,49,-1
 960 104 l 2,50,51
 960 90 960 90 990.5 76.5 c 128,-1,52
 1021 63 1021 63 1100 43 c 1,53,-1
 1100 0 l 1,54,-1
 670 0 l 1,0,-1
EndSplineSet
EndChar

StartChar: i
Encoding: 105 105 76
Width: 555
GlyphClass: 2
Flags: W
AnchorPoint: "Anchor-4" 555 900 basechar 0
AnchorPoint: "Anchor-3" 335 0 basechar 0
AnchorPoint: "Anchor-2" 285 0 basechar 0
AnchorPoint: "Anchor-1" 285 -100 basechar 0
AnchorPoint: "Anchor-0" 285 1050 basechar 0
LayerCount: 2
Fore
SplineSet
70 0 m 1,0,-1
 70 43 l 1,1,2
 138 57 138 57 174 73.5 c 128,-1,3
 210 90 210 90 210 104 c 2,4,-1
 210 670 l 2,5,6
 210 721 210 721 208 752.5 c 128,-1,7
 206 784 206 784 193 801.5 c 128,-1,8
 180 819 180 819 151.5 827 c 128,-1,9
 123 835 123 835 70 840 c 1,10,-1
 70 880 l 1,11,12
 101 886 101 886 135.5 894.5 c 128,-1,13
 170 903 170 903 204 913.5 c 128,-1,14
 238 924 238 924 269 936 c 128,-1,15
 300 948 300 948 326 960 c 1,16,-1
 360 960 l 1,17,-1
 360 104 l 2,18,19
 360 92 360 92 393.5 74.5 c 128,-1,20
 427 57 427 57 500 43 c 1,21,-1
 500 0 l 1,22,-1
 70 0 l 1,0,-1
390 1261 m 0,23,24
 390 1233 390 1233 381 1208 c 128,-1,25
 372 1183 372 1183 356.5 1164.5 c 128,-1,26
 341 1146 341 1146 320 1135 c 128,-1,27
 299 1124 299 1124 274 1124 c 0,28,29
 229 1124 229 1124 209.5 1149 c 128,-1,30
 190 1174 190 1174 190 1220 c 0,31,32
 190 1248 190 1248 199 1273 c 128,-1,33
 208 1298 208 1298 224 1316.5 c 128,-1,34
 240 1335 240 1335 260.5 1345.5 c 128,-1,35
 281 1356 281 1356 305 1356 c 0,36,37
 390 1356 390 1356 390 1261 c 0,23,24
EndSplineSet
Substitution2: "Single Substitution lookup 1 subtable" i.Dotless
EndChar

StartChar: j
Encoding: 106 106 77
Width: 530
GlyphClass: 2
Flags: W
AnchorPoint: "Anchor-4" 530 900 basechar 0
AnchorPoint: "Anchor-3" 280 -600 basechar 0
AnchorPoint: "Anchor-2" 280 -600 basechar 0
AnchorPoint: "Anchor-1" 280 -600 basechar 0
AnchorPoint: "Anchor-0" 281 1050 basechar 0
LayerCount: 2
Fore
SplineSet
355 99 m 2,0,1
 355 -16 355 -16 340.5 -96.5 c 128,-1,2
 326 -177 326 -177 300.5 -233.5 c 128,-1,3
 275 -290 275 -290 240 -329 c 128,-1,4
 205 -368 205 -368 165 -400 c 0,5,6
 138 -421 138 -421 108 -439.5 c 128,-1,7
 78 -458 78 -458 48 -471.5 c 128,-1,8
 18 -485 18 -485 -8.5 -492.5 c 128,-1,9
 -35 -500 -35 -500 -54 -500 c 0,10,11
 -85 -500 -85 -500 -114.5 -492.5 c 128,-1,12
 -144 -485 -144 -485 -167.5 -474 c 128,-1,13
 -191 -463 -191 -463 -205.5 -451 c 128,-1,14
 -220 -439 -220 -439 -220 -431 c 0,15,16
 -220 -422 -220 -422 -205.5 -406.5 c 128,-1,17
 -191 -391 -191 -391 -171 -374 c 128,-1,18
 -151 -357 -151 -357 -129.5 -342 c 128,-1,19
 -108 -327 -108 -327 -93 -320 c 1,20,21
 -61 -348 -61 -348 -27 -356.5 c 128,-1,22
 7 -365 7 -365 45 -365 c 0,23,24
 74 -365 74 -365 102.5 -346.5 c 128,-1,25
 131 -328 131 -328 154 -282 c 128,-1,26
 177 -236 177 -236 191 -157 c 128,-1,27
 205 -78 205 -78 205 43 c 2,28,-1
 205 670 l 2,29,30
 205 721 205 721 202.5 752 c 128,-1,31
 200 783 200 783 187 800.5 c 128,-1,32
 174 818 174 818 145.5 826 c 128,-1,33
 117 834 117 834 65 840 c 1,34,-1
 65 880 l 1,35,36
 107 887 107 887 139.5 896 c 128,-1,37
 172 905 172 905 201.5 914.5 c 128,-1,38
 231 924 231 924 258.5 935.5 c 128,-1,39
 286 947 286 947 318 960 c 1,40,-1
 355 960 l 1,41,-1
 355 99 l 2,0,1
385 1261 m 0,42,43
 385 1233 385 1233 376 1208 c 128,-1,44
 367 1183 367 1183 351.5 1164.5 c 128,-1,45
 336 1146 336 1146 315 1135 c 128,-1,46
 294 1124 294 1124 270 1124 c 0,47,48
 225 1124 225 1124 205 1149 c 128,-1,49
 185 1174 185 1174 185 1220 c 0,50,51
 185 1248 185 1248 194 1273 c 128,-1,52
 203 1298 203 1298 218.5 1316.5 c 128,-1,53
 234 1335 234 1335 255 1345.5 c 128,-1,54
 276 1356 276 1356 300 1356 c 0,55,56
 385 1356 385 1356 385 1261 c 0,42,43
EndSplineSet
Substitution2: "Single Substitution lookup 1 subtable" j.Dotless
EndChar

StartChar: k
Encoding: 107 107 78
Width: 1024
GlyphClass: 2
Flags: W
AnchorPoint: "Anchor-4" 1024 900 basechar 0
AnchorPoint: "Anchor-3" 539 -100 basechar 0
AnchorPoint: "Anchor-2" 275 0 basechar 0
AnchorPoint: "Anchor-1" 539 -100 basechar 0
AnchorPoint: "Anchor-0" 539 1620 basechar 0
LayerCount: 2
Fore
SplineSet
55 0 m 1,0,-1
 55 43 l 1,1,2
 121 60 121 60 158 73 c 128,-1,3
 195 86 195 86 195 104 c 2,4,-1
 195 1296 l 2,5,6
 195 1342 195 1342 189.5 1367 c 128,-1,7
 184 1392 184 1392 168.5 1404.5 c 128,-1,8
 153 1417 153 1417 125.5 1421 c 128,-1,9
 98 1425 98 1425 55 1430 c 1,10,-1
 55 1470 l 1,11,12
 124 1484 124 1484 190.5 1502.5 c 128,-1,13
 257 1521 257 1521 308 1550 c 1,14,-1
 345 1516 l 1,15,-1
 345 530 l 1,16,-1
 653 799 l 2,17,18
 686 828 686 828 693 845.5 c 128,-1,19
 700 863 700 863 690.5 872 c 128,-1,20
 681 881 681 881 658.5 884 c 128,-1,21
 636 887 636 887 610 887 c 1,22,-1
 610 930 l 1,23,-1
 989 930 l 1,24,-1
 989 887 l 1,25,26
 945 882 945 882 908 870.5 c 128,-1,27
 871 859 871 859 829 825 c 2,28,-1
 488 552 l 1,29,-1
 864 111 l 2,30,31
 878 95 878 95 893 84.5 c 128,-1,32
 908 74 908 74 926 68 c 128,-1,33
 944 62 944 62 966.5 60.5 c 128,-1,34
 989 59 989 59 1018 61 c 1,35,-1
 1024 18 l 1,36,37
 995 11 995 11 966.5 6 c 128,-1,38
 938 1 938 1 913.5 -2.5 c 128,-1,39
 889 -6 889 -6 869.5 -8 c 128,-1,40
 850 -10 850 -10 840 -10 c 0,41,42
 798 -10 798 -10 772.5 2 c 128,-1,43
 747 14 747 14 725 43 c 2,44,-1
 345 522 l 1,45,-1
 345 104 l 2,46,47
 345 96 345 96 348.5 90 c 128,-1,48
 352 84 352 84 363 77.5 c 128,-1,49
 374 71 374 71 396 63 c 128,-1,50
 418 55 418 55 455 43 c 1,51,-1
 455 0 l 1,52,-1
 55 0 l 1,0,-1
EndSplineSet
EndChar

StartChar: l
Encoding: 108 108 79
Width: 555
GlyphClass: 2
Flags: W
AnchorPoint: "Anchor-4" 535 900 basechar 0
AnchorPoint: "Anchor-3" 285 -100 basechar 0
AnchorPoint: "Anchor-2" 285 0 basechar 0
AnchorPoint: "Anchor-1" 285 -100 basechar 0
AnchorPoint: "Anchor-0" 285 1690 basechar 0
LayerCount: 2
Fore
SplineSet
60 0 m 1,0,-1
 60 43 l 1,1,2
 103 50 103 50 132 57.5 c 128,-1,3
 161 65 161 65 178 72.5 c 128,-1,4
 195 80 195 80 202.5 88 c 128,-1,5
 210 96 210 96 210 104 c 2,6,-1
 210 1296 l 2,7,8
 210 1341 210 1341 204 1366 c 128,-1,9
 198 1391 198 1391 182 1403.5 c 128,-1,10
 166 1416 166 1416 139 1420.5 c 128,-1,11
 112 1425 112 1425 70 1430 c 1,12,-1
 70 1470 l 1,13,14
 142 1484 142 1484 202 1501 c 128,-1,15
 262 1518 262 1518 324 1550 c 1,16,-1
 360 1516 l 1,17,-1
 360 104 l 2,18,19
 360 89 360 89 394 73 c 128,-1,20
 428 57 428 57 510 43 c 1,21,-1
 510 0 l 1,22,-1
 60 0 l 1,0,-1
EndSplineSet
EndChar

StartChar: m
Encoding: 109 109 80
Width: 1645
GlyphClass: 2
Flags: W
AnchorPoint: "Anchor-4" 1645 900 basechar 0
AnchorPoint: "Anchor-3" 835 -100 basechar 0
AnchorPoint: "Anchor-2" 1400 0 basechar 0
AnchorPoint: "Anchor-1" 835 -100 basechar 0
AnchorPoint: "Anchor-0" 835 1050 basechar 0
LayerCount: 2
Fore
SplineSet
1186 0 m 1,0,-1
 1186 43 l 1,1,2
 1258 62 1258 62 1291.5 76 c 128,-1,3
 1325 90 1325 90 1325 104 c 2,4,-1
 1325 633 l 2,5,6
 1325 694 1325 694 1318.5 734.5 c 128,-1,7
 1312 775 1312 775 1298.5 798 c 128,-1,8
 1285 821 1285 821 1263.5 830.5 c 128,-1,9
 1242 840 1242 840 1212 840 c 0,10,11
 1179 840 1179 840 1142 821.5 c 128,-1,12
 1105 803 1105 803 1066 768.5 c 128,-1,13
 1027 734 1027 734 987.5 684.5 c 128,-1,14
 948 635 948 635 910 573 c 1,15,-1
 910 104 l 2,16,17
 910 90 910 90 941 76.5 c 128,-1,18
 972 63 972 63 1051 43 c 1,19,-1
 1051 0 l 1,20,-1
 621 0 l 1,21,-1
 621 43 l 1,22,23
 693 62 693 62 726.5 76 c 128,-1,24
 760 90 760 90 760 104 c 2,25,-1
 760 633 l 2,26,27
 760 694 760 694 754 734.5 c 128,-1,28
 748 775 748 775 734.5 798 c 128,-1,29
 721 821 721 821 699.5 830.5 c 128,-1,30
 678 840 678 840 647 840 c 0,31,32
 579 840 579 840 504.5 770 c 128,-1,33
 430 700 430 700 345 573 c 1,34,-1
 345 104 l 2,35,36
 345 89 345 89 382.5 73 c 128,-1,37
 420 57 420 57 485 43 c 1,38,-1
 485 0 l 1,39,-1
 55 0 l 1,40,-1
 55 43 l 1,41,42
 121 60 121 60 158 73.5 c 128,-1,43
 195 87 195 87 195 104 c 2,44,-1
 195 711 l 2,45,46
 195 751 195 751 191.5 774 c 128,-1,47
 188 797 188 797 173.5 809.5 c 128,-1,48
 159 822 159 822 131 828 c 128,-1,49
 103 834 103 834 55 840 c 1,50,-1
 55 880 l 1,51,52
 93 886 93 886 125 894.5 c 128,-1,53
 157 903 157 903 186 913 c 128,-1,54
 215 923 215 923 241.5 935 c 128,-1,55
 268 947 268 947 295 960 c 1,56,-1
 330 925 l 1,57,-1
 341 696 l 1,58,59
 386 762 386 762 432 811.5 c 128,-1,60
 478 861 478 861 523 894 c 128,-1,61
 568 927 568 927 610 943.5 c 128,-1,62
 652 960 652 960 688 960 c 0,63,64
 736 960 736 960 776.5 948.5 c 128,-1,65
 817 937 817 937 846.5 909.5 c 128,-1,66
 876 882 876 882 893 837 c 128,-1,67
 910 792 910 792 910 725 c 2,68,-1
 910 704 l 1,69,70
 952 767 952 767 997 814.5 c 128,-1,71
 1042 862 1042 862 1086.5 894.5 c 128,-1,72
 1131 927 1131 927 1173.5 943.5 c 128,-1,73
 1216 960 1216 960 1253 960 c 0,74,75
 1301 960 1301 960 1341.5 947 c 128,-1,76
 1382 934 1382 934 1411.5 907 c 128,-1,77
 1441 880 1441 880 1458 838.5 c 128,-1,78
 1475 797 1475 797 1475 741 c 2,79,-1
 1475 104 l 2,80,81
 1475 90 1475 90 1506 76.5 c 128,-1,82
 1537 63 1537 63 1616 43 c 1,83,-1
 1616 0 l 1,84,-1
 1186 0 l 1,0,-1
EndSplineSet
EndChar

StartChar: n
Encoding: 110 110 81
Width: 1130
GlyphClass: 2
Flags: W
AnchorPoint: "Anchor-4" 1130 900 basechar 0
AnchorPoint: "Anchor-3" 577 -100 basechar 0
AnchorPoint: "Anchor-2" 885 0 basechar 0
AnchorPoint: "Anchor-1" 577 -100 basechar 0
AnchorPoint: "Anchor-0" 577 1050 basechar 0
LayerCount: 2
Fore
SplineSet
670 0 m 1,0,-1
 670 43 l 1,1,2
 742 62 742 62 776 76 c 128,-1,3
 810 90 810 90 810 104 c 2,4,-1
 810 633 l 2,5,6
 810 694 810 694 803 732 c 128,-1,7
 796 770 796 770 781 792 c 128,-1,8
 766 814 766 814 741.5 822 c 128,-1,9
 717 830 717 830 682 830 c 0,10,11
 651 830 651 830 613 815 c 128,-1,12
 575 800 575 800 531.5 767 c 128,-1,13
 488 734 488 734 440.5 680.5 c 128,-1,14
 393 627 393 627 345 549 c 1,15,-1
 345 104 l 2,16,17
 345 89 345 89 382.5 73 c 128,-1,18
 420 57 420 57 485 43 c 1,19,-1
 485 0 l 1,20,-1
 55 0 l 1,21,-1
 55 43 l 1,22,23
 121 60 121 60 158 73.5 c 128,-1,24
 195 87 195 87 195 104 c 2,25,-1
 195 711 l 2,26,27
 195 750 195 750 192 773 c 128,-1,28
 189 796 189 796 175.5 809 c 128,-1,29
 162 822 162 822 134 828 c 128,-1,30
 106 834 106 834 55 840 c 1,31,-1
 55 880 l 1,32,33
 123 891 123 891 181 911.5 c 128,-1,34
 239 932 239 932 295 960 c 1,35,-1
 330 925 l 1,36,-1
 341 676 l 1,37,38
 385 743 385 743 438 795.5 c 128,-1,39
 491 848 491 848 545 884.5 c 128,-1,40
 599 921 599 921 649.5 940.5 c 128,-1,41
 700 960 700 960 739 960 c 0,42,43
 782 960 782 960 822 947 c 128,-1,44
 862 934 862 934 892.5 907 c 128,-1,45
 923 880 923 880 941.5 838.5 c 128,-1,46
 960 797 960 797 960 741 c 2,47,-1
 960 104 l 2,48,49
 960 90 960 90 990.5 76.5 c 128,-1,50
 1021 63 1021 63 1100 43 c 1,51,-1
 1100 0 l 1,52,-1
 670 0 l 1,0,-1
EndSplineSet
EndChar

StartChar: o
Encoding: 111 111 82
Width: 1030
GlyphClass: 2
Flags: W
AnchorPoint: "Anchor-4" 1030 900 basechar 0
AnchorPoint: "Anchor-3" 575 0 basechar 0
AnchorPoint: "Anchor-2" 535 0 basechar 0
AnchorPoint: "Anchor-1" 535 -100 basechar 0
AnchorPoint: "Anchor-0" 535 1050 basechar 0
LayerCount: 2
Fore
SplineSet
795 455 m 0,0,1
 795 534 795 534 769 605.5 c 128,-1,2
 743 677 743 677 702 731.5 c 128,-1,3
 661 786 661 786 609 818 c 128,-1,4
 557 850 557 850 506 850 c 0,5,6
 430 850 430 850 378 821 c 128,-1,7
 326 792 326 792 294.5 741.5 c 128,-1,8
 263 691 263 691 249 622 c 128,-1,9
 235 553 235 553 235 473 c 0,10,11
 235 394 235 394 263 322.5 c 128,-1,12
 291 251 291 251 333.5 197 c 128,-1,13
 376 143 376 143 427 111.5 c 128,-1,14
 478 80 478 80 524 80 c 0,15,16
 595 80 595 80 646 106.5 c 128,-1,17
 697 133 697 133 730 182 c 128,-1,18
 763 231 763 231 779 300 c 128,-1,19
 795 369 795 369 795 455 c 0,0,1
950 485 m 0,20,21
 950 418 950 418 933 354 c 128,-1,22
 916 290 916 290 886 233 c 128,-1,23
 856 176 856 176 814 127.5 c 128,-1,24
 772 79 772 79 721.5 44 c 128,-1,25
 671 9 671 9 614 -10.5 c 128,-1,26
 557 -30 557 -30 496 -30 c 0,27,28
 401 -30 401 -30 324.5 6 c 128,-1,29
 248 42 248 42 193.5 105 c 128,-1,30
 139 168 139 168 109.5 255 c 128,-1,31
 80 342 80 342 80 444 c 0,32,33
 80 510 80 510 96.5 574 c 128,-1,34
 113 638 113 638 142.5 695.5 c 128,-1,35
 172 753 172 753 213.5 801.5 c 128,-1,36
 255 850 255 850 305.5 885 c 128,-1,37
 356 920 356 920 414.5 940 c 128,-1,38
 473 960 473 960 535 960 c 0,39,40
 629 960 629 960 705.5 924 c 128,-1,41
 782 888 782 888 836.5 824.5 c 128,-1,42
 891 761 891 761 920.5 674 c 128,-1,43
 950 587 950 587 950 485 c 0,20,21
EndSplineSet
EndChar

StartChar: p
Encoding: 112 112 83
Width: 1085
GlyphClass: 2
Flags: W
AnchorPoint: "Anchor-4" 1085 900 basechar 0
AnchorPoint: "Anchor-3" 529 -600 basechar 0
AnchorPoint: "Anchor-2" 625 -470 basechar 0
AnchorPoint: "Anchor-1" 529 -600 basechar 0
AnchorPoint: "Anchor-0" 529 1050 basechar 0
LayerCount: 2
Fore
SplineSet
870 426 m 0,0,1
 870 513 870 513 849.5 588 c 128,-1,2
 829 663 829 663 795 718 c 128,-1,3
 761 773 761 773 716 804 c 128,-1,4
 671 835 671 835 623 835 c 0,5,6
 605 835 605 835 576 824 c 128,-1,7
 547 813 547 813 510 787 c 128,-1,8
 473 761 473 761 431 717.5 c 128,-1,9
 389 674 389 674 345 610 c 1,10,-1
 345 213 l 1,11,12
 390 179 390 179 428.5 157 c 128,-1,13
 467 135 467 135 500.5 122.5 c 128,-1,14
 534 110 534 110 564 105 c 128,-1,15
 594 100 594 100 621 100 c 0,16,17
 675 100 675 100 720.5 121 c 128,-1,18
 766 142 766 142 799 183 c 128,-1,19
 832 224 832 224 851 285 c 128,-1,20
 870 346 870 346 870 426 c 0,0,1
1005 492 m 0,21,22
 1005 434 1005 434 990 373 c 128,-1,23
 975 312 975 312 949 254 c 128,-1,24
 923 196 923 196 887 144 c 128,-1,25
 851 92 851 92 808.5 53.5 c 128,-1,26
 766 15 766 15 719 -7.5 c 128,-1,27
 672 -30 672 -30 623 -30 c 0,28,29
 564 -30 564 -30 490 3 c 128,-1,30
 416 36 416 36 345 98 c 1,31,-1
 345 -375 l 2,32,33
 345 -391 345 -391 382.5 -407 c 128,-1,34
 420 -423 420 -423 514 -437 c 1,35,-1
 514 -480 l 1,36,-1
 55 -480 l 1,37,-1
 55 -437 l 1,38,39
 121 -421 121 -421 158 -406.5 c 128,-1,40
 195 -392 195 -392 195 -375 c 2,41,-1
 195 711 l 2,42,43
 195 748 195 748 191 772 c 128,-1,44
 187 796 187 796 172.5 810.5 c 128,-1,45
 158 825 158 825 130.5 831.5 c 128,-1,46
 103 838 103 838 55 840 c 1,47,-1
 55 880 l 1,48,49
 89 887 89 887 120 895.5 c 128,-1,50
 151 904 151 904 180 913.5 c 128,-1,51
 209 923 209 923 237.5 934.5 c 128,-1,52
 266 946 266 946 295 960 c 1,53,-1
 330 925 l 1,54,-1
 339 727 l 1,55,56
 389 787 389 787 439.5 831 c 128,-1,57
 490 875 490 875 536 903.5 c 128,-1,58
 582 932 582 932 621.5 946 c 128,-1,59
 661 960 661 960 690 960 c 0,60,61
 758 960 758 960 816 928 c 128,-1,62
 874 896 874 896 916 835.5 c 128,-1,63
 958 775 958 775 981.5 688 c 128,-1,64
 1005 601 1005 601 1005 492 c 0,21,22
EndSplineSet
EndChar

StartChar: q
Encoding: 113 113 84
Width: 1055
GlyphClass: 2
Flags: W
AnchorPoint: "Anchor-4" 1055 900 basechar 0
AnchorPoint: "Anchor-3" 557 -600 basechar 0
AnchorPoint: "Anchor-2" 557 -600 basechar 0
AnchorPoint: "Anchor-1" 557 -600 basechar 0
AnchorPoint: "Anchor-0" 557 1050 basechar 0
LayerCount: 2
Fore
SplineSet
487 100 m 0,0,1
 521 100 521 100 554 114 c 128,-1,2
 587 128 587 128 619 150.5 c 128,-1,3
 651 173 651 173 682.5 202 c 128,-1,4
 714 231 714 231 745 261 c 1,5,-1
 745 730 l 1,6,7
 712 787 712 787 652 818.5 c 128,-1,8
 592 850 592 850 520 850 c 0,9,10
 464 850 464 850 412 826.5 c 128,-1,11
 360 803 360 803 319.5 756 c 128,-1,12
 279 709 279 709 254.5 639 c 128,-1,13
 230 569 230 569 230 475 c 0,14,15
 230 390 230 390 254.5 320.5 c 128,-1,16
 279 251 279 251 317 202 c 128,-1,17
 355 153 355 153 400.5 126.5 c 128,-1,18
 446 100 446 100 487 100 c 0,0,1
575 -480 m 1,19,-1
 575 -437 l 1,20,21
 669 -423 669 -423 707 -407.5 c 128,-1,22
 745 -392 745 -392 745 -375 c 2,23,-1
 745 166 l 1,24,25
 707 120 707 120 670 84 c 128,-1,26
 633 48 633 48 593.5 22.5 c 128,-1,27
 554 -3 554 -3 510.5 -16.5 c 128,-1,28
 467 -30 467 -30 416 -30 c 0,29,30
 360 -30 360 -30 301 2.5 c 128,-1,31
 242 35 242 35 192.5 96 c 128,-1,32
 143 157 143 157 111.5 245 c 128,-1,33
 80 333 80 333 80 444 c 0,34,35
 80 532 80 532 108 606 c 128,-1,36
 136 680 136 680 176.5 737.5 c 128,-1,37
 217 795 217 795 263 835 c 128,-1,38
 309 875 309 875 344 895 c 0,39,40
 401 926 401 926 457 943 c 128,-1,41
 513 960 513 960 551 960 c 0,42,43
 578 960 578 960 605 956.5 c 128,-1,44
 632 953 632 953 660 943 c 128,-1,45
 688 933 688 933 718 915 c 128,-1,46
 748 897 748 897 782 867 c 1,47,48
 797 876 797 876 813 888.5 c 128,-1,49
 829 901 829 901 844 913.5 c 128,-1,50
 859 926 859 926 872.5 938.5 c 128,-1,51
 886 951 886 951 895 960 c 1,52,-1
 926 930 l 1,53,54
 917 902 917 902 910 869 c 0,55,56
 904 840 904 840 899.5 801 c 128,-1,57
 895 762 895 762 895 717 c 2,58,-1
 895 -375 l 2,59,60
 895 -391 895 -391 926 -407 c 128,-1,61
 957 -423 957 -423 1034 -437 c 1,62,-1
 1034 -480 l 1,63,-1
 575 -480 l 1,19,-1
EndSplineSet
EndChar

StartChar: r
Encoding: 114 114 85
Width: 811
GlyphClass: 2
Flags: W
AnchorPoint: "Anchor-4" 811 900 basechar 0
AnchorPoint: "Anchor-3" 270 -100 basechar 0
AnchorPoint: "Anchor-2" 270 0 basechar 0
AnchorPoint: "Anchor-1" 270 -100 basechar 0
AnchorPoint: "Anchor-0" 450 1050 basechar 0
LayerCount: 2
Fore
SplineSet
770 923 m 0,0,1
 779 917 779 917 778.5 888 c 128,-1,2
 778 859 778 859 770.5 821 c 128,-1,3
 763 783 763 783 751 743 c 128,-1,4
 739 703 739 703 727 676 c 1,5,-1
 684 676 l 1,6,7
 678 716 678 716 667 744 c 128,-1,8
 656 772 656 772 641.5 788.5 c 128,-1,9
 627 805 627 805 609.5 812.5 c 128,-1,10
 592 820 592 820 573 820 c 0,11,12
 551 820 551 820 521.5 801.5 c 128,-1,13
 492 783 492 783 461 743.5 c 128,-1,14
 430 704 430 704 399.5 642.5 c 128,-1,15
 369 581 369 581 345 496 c 1,16,-1
 345 104 l 2,17,18
 345 89 345 89 382.5 73 c 128,-1,19
 420 57 420 57 514 43 c 1,20,-1
 514 0 l 1,21,-1
 55 0 l 1,22,-1
 55 43 l 1,23,24
 121 58 121 58 158 72.5 c 128,-1,25
 195 87 195 87 195 104 c 2,26,-1
 195 686 l 2,27,28
 195 719 195 719 193 741.5 c 128,-1,29
 191 764 191 764 188 778 c 128,-1,30
 185 792 185 792 180.5 800 c 128,-1,31
 176 808 176 808 172 813 c 0,32,33
 165 820 165 820 156.5 824.5 c 128,-1,34
 148 829 148 829 134.5 832 c 128,-1,35
 121 835 121 835 102 836.5 c 128,-1,36
 83 838 83 838 55 840 c 1,37,-1
 55 880 l 1,38,39
 120 897 120 897 182.5 914.5 c 128,-1,40
 245 932 245 932 295 960 c 1,41,-1
 330 925 l 1,42,-1
 343 698 l 1,43,44
 370 753 370 753 401.5 801 c 128,-1,45
 433 849 433 849 469 884.5 c 128,-1,46
 505 920 505 920 544.5 940 c 128,-1,47
 584 960 584 960 627 960 c 0,48,49
 659 960 659 960 696 952 c 128,-1,50
 733 944 733 944 770 923 c 0,0,1
EndSplineSet
EndChar

StartChar: s
Encoding: 115 115 86
Width: 791
GlyphClass: 2
Flags: W
AnchorPoint: "Anchor-4" 791 900 basechar 0
AnchorPoint: "Anchor-3" 397 -100 basechar 0
AnchorPoint: "Anchor-2" 385 0 basechar 0
AnchorPoint: "Anchor-1" 397 -100 basechar 0
AnchorPoint: "Anchor-0" 397 1050 basechar 0
LayerCount: 2
Fore
SplineSet
700 283 m 0,0,1
 700 212 700 212 680 161.5 c 128,-1,2
 660 111 660 111 628 76 c 128,-1,3
 596 41 596 41 557 20 c 128,-1,4
 518 -1 518 -1 480 -12 c 128,-1,5
 442 -23 442 -23 408.5 -26.5 c 128,-1,6
 375 -30 375 -30 356 -30 c 0,7,8
 308 -30 308 -30 240.5 -12 c 128,-1,9
 173 6 173 6 106 43 c 0,10,11
 99 46 99 46 96.5 75.5 c 128,-1,12
 94 105 94 105 95.5 143.5 c 128,-1,13
 97 182 97 182 101.5 221 c 128,-1,14
 106 260 106 260 113 283 c 1,15,-1
 156 272 l 1,16,17
 158 230 158 230 178 193 c 128,-1,18
 198 156 198 156 231.5 129 c 128,-1,19
 265 102 265 102 309.5 86 c 128,-1,20
 354 70 354 70 406 70 c 0,21,22
 442 70 442 70 472 81.5 c 128,-1,23
 502 93 502 93 524 113.5 c 128,-1,24
 546 134 546 134 558 163 c 128,-1,25
 570 192 570 192 570 227 c 0,26,27
 570 267 570 267 548.5 298 c 128,-1,28
 527 329 527 329 492 354.5 c 128,-1,29
 457 380 457 380 412.5 402.5 c 128,-1,30
 368 425 368 425 322 449 c 0,31,32
 280 470 280 470 241 494 c 128,-1,33
 202 518 202 518 171.5 548 c 128,-1,34
 141 578 141 578 122.5 615 c 128,-1,35
 104 652 104 652 104 700 c 0,36,37
 104 762 104 762 129 810.5 c 128,-1,38
 154 859 154 859 195.5 892 c 128,-1,39
 237 925 237 925 290.5 942.5 c 128,-1,40
 344 960 344 960 401 960 c 0,41,42
 432 960 432 960 469.5 954.5 c 128,-1,43
 507 949 507 949 543.5 939 c 128,-1,44
 580 929 580 929 612 915 c 128,-1,45
 644 901 644 901 664 883 c 0,46,47
 670 877 670 877 665.5 856 c 128,-1,48
 661 835 661 835 651.5 810 c 128,-1,49
 642 785 642 785 631 763 c 128,-1,50
 620 741 620 741 614 733 c 1,51,-1
 575 741 l 1,52,53
 527 813 527 813 475.5 841.5 c 128,-1,54
 424 870 424 870 375 870 c 0,55,56
 342 870 342 870 316 859 c 128,-1,57
 290 848 290 848 271.5 830.5 c 128,-1,58
 253 813 253 813 243.5 792 c 128,-1,59
 234 771 234 771 234 750 c 0,60,61
 234 718 234 718 253 692.5 c 128,-1,62
 272 667 272 667 303 644.5 c 128,-1,63
 334 622 334 622 373.5 601.5 c 128,-1,64
 413 581 413 581 455 559 c 0,65,66
 498 537 498 537 542 512 c 128,-1,67
 586 487 586 487 621 454.5 c 128,-1,68
 656 422 656 422 678 380.5 c 128,-1,69
 700 339 700 339 700 283 c 0,0,1
EndSplineSet
EndChar

StartChar: t
Encoding: 116 116 87
Width: 705
GlyphClass: 2
Flags: W
AnchorPoint: "Anchor-4" 500 900 basechar 0
AnchorPoint: "Anchor-3" 348 -100 basechar 0
AnchorPoint: "Anchor-2" 348 0 basechar 0
AnchorPoint: "Anchor-1" 348 -100 basechar 0
AnchorPoint: "Anchor-0" 348 1320 basechar 0
LayerCount: 2
Fore
SplineSet
676 117 m 1,0,1
 627 81 627 81 579 53.5 c 128,-1,2
 531 26 531 26 487.5 7.5 c 128,-1,3
 444 -11 444 -11 407 -20.5 c 128,-1,4
 370 -30 370 -30 344 -30 c 0,5,6
 309 -30 309 -30 277.5 -17 c 128,-1,7
 246 -4 246 -4 222 25.5 c 128,-1,8
 198 55 198 55 184 103 c 128,-1,9
 170 151 170 151 170 221 c 2,10,-1
 170 835 l 1,11,-1
 41 835 l 1,12,-1
 20 863 l 1,13,-1
 98 930 l 1,14,-1
 170 930 l 1,15,-1
 170 1176 l 1,16,-1
 289 1280 l 1,17,-1
 320 1255 l 1,18,-1
 320 930 l 1,19,-1
 647 930 l 1,20,-1
 676 901 l 1,21,22
 667 887 667 887 653.5 871 c 128,-1,23
 640 855 640 855 626 841 c 128,-1,24
 612 827 612 827 598.5 815.5 c 128,-1,25
 585 804 585 804 575 800 c 1,26,27
 551 812 551 812 502 823.5 c 128,-1,28
 453 835 453 835 372 835 c 2,29,-1
 320 835 l 1,30,-1
 320 307 l 2,31,32
 320 247 320 247 325.5 207 c 128,-1,33
 331 167 331 167 344 143.5 c 128,-1,34
 357 120 357 120 377.5 110 c 128,-1,35
 398 100 398 100 428 100 c 0,36,37
 463 100 463 100 516 114 c 128,-1,38
 569 128 569 128 647 168 c 1,39,-1
 676 117 l 1,0,1
EndSplineSet
EndChar

StartChar: u
Encoding: 117 117 88
Width: 1085
GlyphClass: 2
Flags: W
AnchorPoint: "Anchor-4" 1185 900 basechar 0
AnchorPoint: "Anchor-3" 860 0 basechar 0
AnchorPoint: "Anchor-2" 840 0 basechar 0
AnchorPoint: "Anchor-1" 545 -100 basechar 0
AnchorPoint: "Anchor-0" 545 1050 basechar 0
LayerCount: 2
Fore
SplineSet
1069 82 m 1,0,1
 1032 58 1032 58 998 37.5 c 128,-1,2
 964 17 964 17 935 2 c 128,-1,3
 906 -13 906 -13 884 -21.5 c 128,-1,4
 862 -30 862 -30 850 -30 c 0,5,6
 815 -30 815 -30 793 16.5 c 128,-1,7
 771 63 771 63 765 166 c 1,8,9
 703 104 703 104 651.5 65.5 c 128,-1,10
 600 27 600 27 556.5 6 c 128,-1,11
 513 -15 513 -15 476.5 -22.5 c 128,-1,12
 440 -30 440 -30 408 -30 c 0,13,14
 361 -30 361 -30 318 -17 c 128,-1,15
 275 -4 275 -4 242 30.5 c 128,-1,16
 209 65 209 65 189.5 125 c 128,-1,17
 170 185 170 185 170 279 c 2,18,-1
 170 711 l 2,19,20
 170 759 170 759 167 785.5 c 128,-1,21
 164 812 164 812 151.5 825.5 c 128,-1,22
 139 839 139 839 113 844 c 128,-1,23
 87 849 87 849 41 854 c 1,24,-1
 41 894 l 1,25,26
 77 898 77 898 108.5 904 c 128,-1,27
 140 910 140 910 169.5 918 c 128,-1,28
 199 926 199 926 229 936.5 c 128,-1,29
 259 947 259 947 292 960 c 1,30,-1
 320 921 l 1,31,-1
 320 334 l 2,32,33
 320 264 320 264 330.5 217 c 128,-1,34
 341 170 341 170 360.5 142 c 128,-1,35
 380 114 380 114 408.5 102 c 128,-1,36
 437 90 437 90 473 90 c 0,37,38
 505 90 505 90 538.5 99.5 c 128,-1,39
 572 109 572 109 607.5 129.5 c 128,-1,40
 643 150 643 150 682 182.5 c 128,-1,41
 721 215 721 215 765 262 c 1,42,-1
 765 711 l 2,43,44
 765 756 765 756 760.5 783 c 128,-1,45
 756 810 756 810 741 825 c 128,-1,46
 726 840 726 840 698.5 846 c 128,-1,47
 671 852 671 852 625 854 c 1,48,-1
 625 894 l 1,49,50
 697 903 697 903 763 922 c 128,-1,51
 829 941 829 941 885 960 c 1,52,-1
 915 921 l 1,53,-1
 915 254 l 2,54,55
 915 192 915 192 919.5 153 c 128,-1,56
 924 114 924 114 938 104 c 0,57,58
 950 96 950 96 979 100.5 c 128,-1,59
 1008 105 1008 105 1059 127 c 1,60,-1
 1069 82 l 1,0,1
EndSplineSet
EndChar

StartChar: v
Encoding: 118 118 89
Width: 1010
GlyphClass: 2
Flags: W
AnchorPoint: "Anchor-4" 1010 900 basechar 0
AnchorPoint: "Anchor-3" 460 0 basechar 0
AnchorPoint: "Anchor-2" 516 0 basechar 0
AnchorPoint: "Anchor-1" 516 -100 basechar 0
AnchorPoint: "Anchor-0" 536 1050 basechar 0
LayerCount: 2
Fore
SplineSet
989 887 m 1,0,1
 959 880 959 880 940 874 c 128,-1,2
 921 868 921 868 909 860.5 c 128,-1,3
 897 853 897 853 890.5 843.5 c 128,-1,4
 884 834 884 834 879 819 c 2,5,-1
 596 59 l 2,6,7
 587 37 587 37 570 21.5 c 128,-1,8
 553 6 553 6 533 -4.5 c 128,-1,9
 513 -15 513 -15 493.5 -21 c 128,-1,10
 474 -27 474 -27 461 -30 c 1,11,-1
 131 819 l 1,12,13
 122 847 122 847 96 861.5 c 128,-1,14
 70 876 70 876 20 887 c 1,15,-1
 20 930 l 1,16,-1
 406 930 l 1,17,-1
 406 887 l 1,18,19
 367 882 367 882 342.5 877 c 128,-1,20
 318 872 318 872 304.5 864.5 c 128,-1,21
 291 857 291 857 289 846 c 128,-1,22
 287 835 287 835 293 819 c 2,23,-1
 539 178 l 1,24,-1
 770 819 l 2,25,26
 775 834 775 834 773.5 844.5 c 128,-1,27
 772 855 772 855 760 862.5 c 128,-1,28
 748 870 748 870 725.5 875.5 c 128,-1,29
 703 881 703 881 666 887 c 1,30,-1
 666 930 l 1,31,-1
 989 930 l 1,32,-1
 989 887 l 1,0,1
EndSplineSet
EndChar

StartChar: w
Encoding: 119 119 90
Width: 1446
GlyphClass: 2
Flags: W
AnchorPoint: "Anchor-4" 1446 900 basechar 0
AnchorPoint: "Anchor-3" 730 -100 basechar 0
AnchorPoint: "Anchor-2" 730 -100 basechar 0
AnchorPoint: "Anchor-1" 730 -100 basechar 0
AnchorPoint: "Anchor-0" 750 1050 basechar 0
LayerCount: 2
Fore
SplineSet
1425 887 m 1,0,1
 1394 880 1394 880 1376 873.5 c 128,-1,2
 1358 867 1358 867 1347.5 860.5 c 128,-1,3
 1337 854 1337 854 1332.5 845.5 c 128,-1,4
 1328 837 1328 837 1325 825 c 2,5,-1
 1104 59 l 2,6,7
 1098 37 1098 37 1080.5 21.5 c 128,-1,8
 1063 6 1063 6 1042 -4.5 c 128,-1,9
 1021 -15 1021 -15 1000.5 -21 c 128,-1,10
 980 -27 980 -27 967 -30 c 1,11,-1
 729 648 l 1,12,-1
 524 59 l 2,13,14
 516 36 516 36 499.5 20.5 c 128,-1,15
 483 5 483 5 463 -5.5 c 128,-1,16
 443 -16 443 -16 423.5 -21.5 c 128,-1,17
 404 -27 404 -27 391 -30 c 1,18,-1
 129 825 l 1,19,20
 120 864 120 864 20 887 c 1,21,-1
 20 930 l 1,22,-1
 406 930 l 1,23,-1
 406 887 l 1,24,25
 357 882 357 882 330 875.5 c 128,-1,26
 303 869 303 869 291 860.5 c 128,-1,27
 279 852 279 852 278.5 843 c 128,-1,28
 278 834 278 834 281 825 c 2,29,-1
 469 190 l 1,30,-1
 715 930 l 1,31,-1
 784 930 l 1,32,-1
 1044 190 l 1,33,-1
 1217 825 l 2,34,35
 1223 848 1223 848 1196 862 c 128,-1,36
 1169 876 1169 876 1100 887 c 1,37,-1
 1100 930 l 1,38,-1
 1425 930 l 1,39,-1
 1425 887 l 1,0,1
EndSplineSet
EndChar

StartChar: x
Encoding: 120 120 91
Width: 1030
GlyphClass: 2
Flags: W
AnchorPoint: "Anchor-4" 1030 900 basechar 0
AnchorPoint: "Anchor-3" 518 -100 basechar 0
AnchorPoint: "Anchor-2" 800 0 basechar 0
AnchorPoint: "Anchor-1" 518 -100 basechar 0
AnchorPoint: "Anchor-0" 518 1050 basechar 0
LayerCount: 2
Fore
SplineSet
614 0 m 1,0,-1
 614 43 l 1,1,2
 639 45 639 45 661 49 c 128,-1,3
 683 53 683 53 695.5 62 c 128,-1,4
 708 71 708 71 708 87.5 c 128,-1,5
 708 104 708 104 688 131 c 2,6,-1
 490 400 l 1,7,-1
 301 131 l 2,8,9
 282 104 282 104 286 87.5 c 128,-1,10
 290 71 290 71 307 62 c 128,-1,11
 324 53 324 53 349.5 49 c 128,-1,12
 375 45 375 45 399 43 c 1,13,-1
 399 0 l 1,14,-1
 20 0 l 1,15,-1
 20 43 l 1,16,17
 60 49 60 49 88 58.5 c 128,-1,18
 116 68 116 68 135.5 80.5 c 128,-1,19
 155 93 155 93 168.5 107.5 c 128,-1,20
 182 122 182 122 193 137 c 2,21,-1
 436 475 l 1,22,-1
 201 797 l 2,23,24
 188 815 188 815 175 830.5 c 128,-1,25
 162 846 162 846 143.5 857.5 c 128,-1,26
 125 869 125 869 98 876.5 c 128,-1,27
 71 884 71 884 31 887 c 1,28,-1
 31 930 l 1,29,-1
 451 930 l 1,30,-1
 451 887 l 1,31,32
 420 884 420 884 397.5 878.5 c 128,-1,33
 375 873 375 873 363.5 863.5 c 128,-1,34
 352 854 352 854 353.5 838.5 c 128,-1,35
 355 823 355 823 373 799 c 2,36,-1
 534 577 l 1,37,-1
 688 799 l 1,38,39
 706 823 706 823 708 839 c 128,-1,40
 710 855 710 855 699.5 864.5 c 128,-1,41
 689 874 689 874 667 879 c 128,-1,42
 645 884 645 884 614 887 c 1,43,-1
 614 930 l 1,44,-1
 995 930 l 1,45,-1
 995 887 l 1,46,47
 914 881 914 881 869.5 857.5 c 128,-1,48
 825 834 825 834 799 797 c 2,49,-1
 589 502 l 1,50,-1
 856 137 l 2,51,52
 868 122 868 122 882 107.5 c 128,-1,53
 896 93 896 93 914.5 80 c 128,-1,54
 933 67 933 67 958 57 c 128,-1,55
 983 47 983 47 1016 43 c 1,56,-1
 1016 0 l 1,57,-1
 614 0 l 1,0,-1
EndSplineSet
EndChar

StartChar: y
Encoding: 121 121 92
Width: 1010
GlyphClass: 2
Flags: W
AnchorPoint: "Anchor-4" 1010 900 basechar 0
AnchorPoint: "Anchor-3" 770 -100 basechar 0
AnchorPoint: "Anchor-2" 770 -100 basechar 0
AnchorPoint: "Anchor-1" 770 -100 basechar 0
AnchorPoint: "Anchor-0" 530 1050 basechar 0
LayerCount: 2
Fore
SplineSet
989 887 m 1,0,1
 959 880 959 880 940 874 c 128,-1,2
 921 868 921 868 909 860.5 c 128,-1,3
 897 853 897 853 890.5 843.5 c 128,-1,4
 884 834 884 834 879 819 c 2,5,-1
 545 -82 l 2,6,7
 503 -193 503 -193 451.5 -272 c 128,-1,8
 400 -351 400 -351 344.5 -401.5 c 128,-1,9
 289 -452 289 -452 233 -476 c 128,-1,10
 177 -500 177 -500 127 -500 c 0,11,12
 89 -500 89 -500 57 -495 c 128,-1,13
 25 -490 25 -490 2 -482.5 c 128,-1,14
 -21 -475 -21 -475 -34 -465.5 c 128,-1,15
 -47 -456 -47 -456 -47 -447 c 0,16,17
 -47 -441 -47 -441 -35 -423 c 128,-1,18
 -23 -405 -23 -405 -5 -383.5 c 128,-1,19
 13 -362 13 -362 33.5 -342 c 128,-1,20
 54 -322 54 -322 70 -312 c 1,21,22
 118 -340 118 -340 165.5 -342 c 128,-1,23
 213 -344 213 -344 250 -330 c 0,24,25
 268 -324 268 -324 292 -302 c 128,-1,26
 316 -280 316 -280 340.5 -248 c 128,-1,27
 365 -216 365 -216 388.5 -175.5 c 128,-1,28
 412 -135 412 -135 430 -92 c 2,29,-1
 459 -23 l 1,30,-1
 131 819 l 1,31,32
 122 847 122 847 96 861.5 c 128,-1,33
 70 876 70 876 20 887 c 1,34,-1
 20 930 l 1,35,-1
 406 930 l 1,36,-1
 406 887 l 1,37,38
 367 882 367 882 342.5 877 c 128,-1,39
 318 872 318 872 304.5 864.5 c 128,-1,40
 291 857 291 857 289 846 c 128,-1,41
 287 835 287 835 293 819 c 2,42,-1
 539 182 l 1,43,-1
 770 819 l 2,44,45
 775 834 775 834 771.5 844.5 c 128,-1,46
 768 855 768 855 754.5 862.5 c 128,-1,47
 741 870 741 870 716.5 875.5 c 128,-1,48
 692 881 692 881 655 887 c 1,49,-1
 655 930 l 1,50,-1
 989 930 l 1,51,-1
 989 887 l 1,0,1
EndSplineSet
EndChar

StartChar: z
Encoding: 122 122 93
Width: 905
GlyphClass: 2
Flags: W
AnchorPoint: "Anchor-4" 905 900 basechar 0
AnchorPoint: "Anchor-3" 452 -100 basechar 0
AnchorPoint: "Anchor-2" 750 0 basechar 0
AnchorPoint: "Anchor-1" 452 -100 basechar 0
AnchorPoint: "Anchor-0" 480 1050 basechar 0
LayerCount: 2
Fore
SplineSet
829 248 m 1,0,1
 829 216 829 216 828 180 c 128,-1,2
 827 144 827 144 825.5 110 c 128,-1,3
 824 76 824 76 822 47 c 128,-1,4
 820 18 820 18 817 0 c 1,5,-1
 102 0 l 1,6,-1
 76 45 l 1,7,-1
 631 840 l 1,8,-1
 285 840 l 2,9,10
 269 840 269 840 252.5 834 c 128,-1,11
 236 828 236 828 220.5 811.5 c 128,-1,12
 205 795 205 795 191.5 765.5 c 128,-1,13
 178 736 178 736 168 690 c 1,14,-1
 119 702 l 1,15,-1
 137 946 l 1,16,17
 159 940 159 940 177 936.5 c 128,-1,18
 195 933 195 933 214.5 931.5 c 128,-1,19
 234 930 234 930 257 930 c 2,20,-1
 805 930 l 1,21,-1
 827 887 l 1,22,-1
 270 90 l 1,23,-1
 692 90 l 2,24,25
 717 90 717 90 738 128.5 c 128,-1,26
 759 167 759 167 782 258 c 1,27,-1
 829 248 l 1,0,1
EndSplineSet
EndChar

StartChar: braceleft
Encoding: 123 123 94
Width: 688
Flags: W
LayerCount: 2
Fore
SplineSet
649 1553 m 1,0,1
 610 1529 610 1529 576.5 1498 c 128,-1,2
 543 1467 543 1467 518 1429.5 c 128,-1,3
 493 1392 493 1392 479 1348 c 128,-1,4
 465 1304 465 1304 465 1252 c 0,5,6
 465 1194 465 1194 471.5 1157 c 128,-1,7
 478 1120 478 1120 485.5 1087.5 c 128,-1,8
 493 1055 493 1055 499.5 1018 c 128,-1,9
 506 981 506 981 506 923 c 0,10,11
 506 881 506 881 493.5 840.5 c 128,-1,12
 481 800 481 800 458 764.5 c 128,-1,13
 435 729 435 729 401.5 700 c 128,-1,14
 368 671 368 671 326 653 c 1,15,16
 376 644 376 644 410.5 621.5 c 128,-1,17
 445 599 445 599 466 565 c 128,-1,18
 487 531 487 531 496.5 485.5 c 128,-1,19
 506 440 506 440 506 385 c 0,20,21
 506 325 506 325 499.5 283 c 128,-1,22
 493 241 493 241 485.5 204 c 128,-1,23
 478 167 478 167 471.5 130 c 128,-1,24
 465 93 465 93 465 43 c 0,25,26
 465 -12 465 -12 472.5 -54.5 c 128,-1,27
 480 -97 480 -97 499.5 -131.5 c 128,-1,28
 519 -166 519 -166 552.5 -195.5 c 128,-1,29
 586 -225 586 -225 639 -254 c 1,30,-1
 616 -315 l 1,31,32
 532 -281 532 -281 472 -243.5 c 128,-1,33
 412 -206 412 -206 373.5 -160 c 128,-1,34
 335 -114 335 -114 317 -57 c 128,-1,35
 299 0 299 0 299 72 c 0,36,37
 299 131 299 131 305.5 169.5 c 128,-1,38
 312 208 312 208 319.5 243.5 c 128,-1,39
 327 279 327 279 333.5 319.5 c 128,-1,40
 340 360 340 360 340 422 c 0,41,42
 340 503 340 503 299.5 544.5 c 128,-1,43
 259 586 259 586 184 586 c 2,44,-1
 163 586 l 2,45,46
 157 586 157 586 152 585.5 c 128,-1,47
 147 585 147 585 140.5 583.5 c 128,-1,48
 134 582 134 582 119 580 c 1,49,-1
 102 633 l 1,50,51
 220 664 220 664 280 726 c 128,-1,52
 340 788 340 788 340 863 c 0,53,54
 340 903 340 903 337 932 c 128,-1,55
 334 961 334 961 329.5 984.5 c 128,-1,56
 325 1008 325 1008 319.5 1028.5 c 128,-1,57
 314 1049 314 1049 309.5 1072 c 128,-1,58
 305 1095 305 1095 302 1124.5 c 128,-1,59
 299 1154 299 1154 299 1195 c 0,60,61
 299 1262 299 1262 321.5 1321.5 c 128,-1,62
 344 1381 344 1381 386 1431.5 c 128,-1,63
 428 1482 428 1482 488 1524 c 128,-1,64
 548 1566 548 1566 623 1600 c 1,65,-1
 649 1553 l 1,0,1
EndSplineSet
EndChar

StartChar: bar
Encoding: 124 124 95
Width: 469
Flags: W
LayerCount: 2
Fore
SplineSet
320 -353 m 1,0,1
 302 -369 302 -369 271 -383 c 128,-1,2
 240 -397 240 -397 215 -405 c 1,3,-1
 180 -382 l 1,4,-1
 180 1621 l 1,5,6
 208 1638 208 1638 231.5 1650 c 128,-1,7
 255 1662 255 1662 284 1670 c 1,8,-1
 320 1648 l 1,9,-1
 320 -353 l 1,0,1
EndSplineSet
EndChar

StartChar: braceright
Encoding: 125 125 96
Width: 688
Flags: W
LayerCount: 2
Fore
SplineSet
588 651 m 1,0,1
 469 620 469 620 409.5 559.5 c 128,-1,2
 350 499 350 499 350 422 c 0,3,4
 350 381 350 381 353 352.5 c 128,-1,5
 356 324 356 324 360 301 c 128,-1,6
 364 278 364 278 369.5 258 c 128,-1,7
 375 238 375 238 379 214.5 c 128,-1,8
 383 191 383 191 386 162 c 128,-1,9
 389 133 389 133 389 92 c 0,10,11
 389 24 389 24 366.5 -35 c 128,-1,12
 344 -94 344 -94 302 -145 c 128,-1,13
 260 -196 260 -196 200 -238.5 c 128,-1,14
 140 -281 140 -281 66 -315 c 1,15,-1
 39 -266 l 1,16,17
 78 -242 78 -242 111.5 -211.5 c 128,-1,18
 145 -181 145 -181 170 -143.5 c 128,-1,19
 195 -106 195 -106 209 -61.5 c 128,-1,20
 223 -17 223 -17 223 35 c 0,21,22
 223 93 223 93 217 129.5 c 128,-1,23
 211 166 211 166 203.5 198.5 c 128,-1,24
 196 231 196 231 190 268.5 c 128,-1,25
 184 306 184 306 184 365 c 0,26,27
 184 406 184 406 196 446 c 128,-1,28
 208 486 208 486 231.5 521 c 128,-1,29
 255 556 255 556 288.5 584.5 c 128,-1,30
 322 613 322 613 365 631 c 1,31,32
 314 641 314 641 279.5 663.5 c 128,-1,33
 245 686 245 686 223.5 720.5 c 128,-1,34
 202 755 202 755 193 800.5 c 128,-1,35
 184 846 184 846 184 902 c 0,36,37
 184 961 184 961 190 1003 c 128,-1,38
 196 1045 196 1045 203.5 1082 c 128,-1,39
 211 1119 211 1119 217 1156 c 128,-1,40
 223 1193 223 1193 223 1242 c 0,41,42
 223 1298 223 1298 215.5 1341 c 128,-1,43
 208 1384 208 1384 188.5 1418.5 c 128,-1,44
 169 1453 169 1453 135 1481.5 c 128,-1,45
 101 1510 101 1510 49 1539 c 1,46,-1
 72 1600 l 1,47,48
 156 1567 156 1567 216.5 1529.5 c 128,-1,49
 277 1492 277 1492 315 1446 c 128,-1,50
 353 1400 353 1400 371 1343.5 c 128,-1,51
 389 1287 389 1287 389 1215 c 0,52,53
 389 1156 389 1156 383 1117 c 128,-1,54
 377 1078 377 1078 369.5 1042.5 c 128,-1,55
 362 1007 362 1007 356 966.5 c 128,-1,56
 350 926 350 926 350 865 c 0,57,58
 350 784 350 784 390.5 742 c 128,-1,59
 431 700 431 700 506 700 c 2,60,-1
 525 700 l 2,61,62
 531 700 531 700 536 700.5 c 128,-1,63
 541 701 541 701 548 702 c 2,64,-1
 571 707 l 1,65,-1
 588 651 l 1,0,1
EndSplineSet
EndChar

StartChar: asciitilde
Encoding: 126 126 97
Width: 999
Flags: W
LayerCount: 2
Fore
SplineSet
950 774 m 1,0,1
 929 725 929 725 897 672.5 c 128,-1,2
 865 620 865 620 825.5 576.5 c 128,-1,3
 786 533 786 533 740.5 505 c 128,-1,4
 695 477 695 477 647 477 c 0,5,6
 605 477 605 477 558 502 c 128,-1,7
 511 527 511 527 462.5 557 c 128,-1,8
 414 587 414 587 366.5 612 c 128,-1,9
 319 637 319 637 276 637 c 0,10,11
 227 637 227 637 185.5 598 c 128,-1,12
 144 559 144 559 102 475 c 1,13,-1
 49 502 l 1,14,15
 70 551 70 551 102.5 603.5 c 128,-1,16
 135 656 135 656 174.5 699.5 c 128,-1,17
 214 743 214 743 259 771 c 128,-1,18
 304 799 304 799 352 799 c 0,19,20
 398 799 398 799 446.5 774 c 128,-1,21
 495 749 495 749 542.5 719 c 128,-1,22
 590 689 590 689 635.5 664 c 128,-1,23
 681 639 681 639 721 639 c 0,24,25
 769 639 769 639 812 678 c 128,-1,26
 855 717 855 717 897 799 c 1,27,-1
 950 774 l 1,0,1
EndSplineSet
EndChar

StartChar: Ccedilla
Encoding: 199 199 100
Width: 1098
GlyphClass: 2
Flags: W
AnchorPoint: "Anchor-4" 1098 900 basechar 0
AnchorPoint: "Anchor-3" 584 -600 basechar 0
AnchorPoint: "Anchor-2" 584 -600 basechar 0
AnchorPoint: "Anchor-1" 584 -600 basechar 0
AnchorPoint: "Anchor-0" 614 1370 basechar 0
LayerCount: 2
Fore
SplineSet
749 -229 m 0,0,1
 749 -266 749 -266 731.5 -300 c 128,-1,2
 714 -334 714 -334 677 -362 c 128,-1,3
 640 -390 640 -390 581.5 -411 c 128,-1,4
 523 -432 523 -432 441 -444 c 1,5,-1
 419 -395 l 1,6,7
 471 -386 471 -386 507.5 -372.5 c 128,-1,8
 544 -359 544 -359 567 -343 c 128,-1,9
 590 -327 590 -327 600.5 -309.5 c 128,-1,10
 611 -292 611 -292 611 -276 c 0,11,12
 611 -242 611 -242 585 -228.5 c 128,-1,13
 559 -215 559 -215 497 -209 c 1,14,15
 499 -206 499 -206 507 -181 c 0,16,17
 514 -160 514 -160 528 -115 c 0,18,19
 539 -82 539 -82 556 -30 c 1,20,21
 471 -26 471 -26 388 12 c 1,22,23
 299 54 299 54 228 133 c 128,-1,24
 157 212 157 212 113.5 326.5 c 128,-1,25
 70 441 70 441 70 586 c 0,26,27
 70 746 70 746 118.5 876 c 128,-1,28
 167 1006 167 1006 250 1098 c 128,-1,29
 333 1190 333 1190 443 1240 c 128,-1,30
 553 1290 553 1290 676 1290 c 0,31,32
 784 1290 784 1290 865.5 1261 c 128,-1,33
 947 1232 947 1232 999 1190 c 0,34,35
 1005 1185 1005 1185 996 1170 c 128,-1,36
 987 1155 987 1155 971.5 1136 c 128,-1,37
 956 1117 956 1117 938.5 1098 c 128,-1,38
 921 1079 921 1079 909 1067 c 1,39,-1
 874 1073 l 1,40,41
 823 1120 823 1120 753 1150 c 128,-1,42
 683 1180 683 1180 592 1180 c 0,43,44
 558 1180 558 1180 517.5 1167.5 c 128,-1,45
 477 1155 477 1155 436 1128 c 128,-1,46
 395 1101 395 1101 357 1057.5 c 128,-1,47
 319 1014 319 1014 289.5 952 c 128,-1,48
 260 890 260 890 242.5 808.5 c 128,-1,49
 225 727 225 727 225 623 c 0,50,51
 225 490 225 490 263.5 390 c 128,-1,52
 302 290 302 290 362.5 223.5 c 128,-1,53
 423 157 423 157 497.5 123.5 c 128,-1,54
 572 90 572 90 643 90 c 0,55,56
 697 90 697 90 784 127 c 128,-1,57
 871 164 871 164 981 256 c 1,58,59
 986 254 986 254 991.5 247.5 c 128,-1,60
 997 241 997 241 1002 234 c 128,-1,61
 1007 227 1007 227 1011 220.5 c 128,-1,62
 1015 214 1015 214 1018 211 c 1,63,64
 954 143 954 143 895.5 96.5 c 128,-1,65
 837 50 837 50 782.5 22 c 128,-1,66
 728 -6 728 -6 675 -18 c 0,67,68
 655 -22 655 -22 635 -25 c 1,69,-1
 609 -104 l 1,70,71
 635 -110 635 -110 660.5 -119.5 c 128,-1,72
 686 -129 686 -129 705.5 -144 c 128,-1,73
 725 -159 725 -159 737 -180 c 128,-1,74
 749 -201 749 -201 749 -229 c 0,0,1
EndSplineSet
Ligature2: "'ccmp' Glyph Composition/Decomposition lookup 3 subtable" C uni0327
EndChar

StartChar: ccedilla
Encoding: 231 231 111
Width: 895
GlyphClass: 2
Flags: W
AnchorPoint: "Anchor-4" 895 900 basechar 0
AnchorPoint: "Anchor-3" 490 -600 basechar 0
AnchorPoint: "Anchor-2" 490 -600 basechar 0
AnchorPoint: "Anchor-1" 490 -600 basechar 0
AnchorPoint: "Anchor-0" 490 1050 basechar 0
LayerCount: 2
Fore
SplineSet
655 -229 m 0,0,1
 655 -266 655 -266 637.5 -300 c 128,-1,2
 620 -334 620 -334 583 -362 c 128,-1,3
 546 -390 546 -390 487.5 -411 c 128,-1,4
 429 -432 429 -432 347 -444 c 1,5,-1
 325 -395 l 1,6,7
 377 -386 377 -386 413.5 -372.5 c 128,-1,8
 450 -359 450 -359 473 -343 c 128,-1,9
 496 -327 496 -327 506.5 -309.5 c 128,-1,10
 517 -292 517 -292 517 -276 c 0,11,12
 517 -242 517 -242 491 -228.5 c 128,-1,13
 465 -215 465 -215 403 -209 c 1,14,15
 405 -206 405 -206 413 -181 c 0,16,17
 420 -160 420 -160 434 -115 c 0,18,19
 445 -82 445 -82 462 -30 c 1,20,21
 390 -29 390 -29 322 2 c 1,22,23
 253 35 253 35 199 96 c 128,-1,24
 145 157 145 157 112.5 245 c 128,-1,25
 80 333 80 333 80 444 c 0,26,27
 80 552 80 552 119.5 646 c 128,-1,28
 159 740 159 740 227.5 809.5 c 128,-1,29
 296 879 296 879 389 919.5 c 128,-1,30
 482 960 482 960 590 960 c 0,31,32
 623 960 623 960 657.5 954.5 c 128,-1,33
 692 949 692 949 723.5 938.5 c 128,-1,34
 755 928 755 928 781.5 913.5 c 128,-1,35
 808 899 808 899 825 881 c 1,36,37
 827 869 827 869 822 847 c 128,-1,38
 817 825 817 825 808 800.5 c 128,-1,39
 799 776 799 776 788 753.5 c 128,-1,40
 777 731 777 731 768 717 c 1,41,-1
 731 727 l 1,42,43
 723 745 723 745 705 766 c 128,-1,44
 687 787 687 787 658.5 806 c 128,-1,45
 630 825 630 825 590.5 837.5 c 128,-1,46
 551 850 551 850 500 850 c 0,47,48
 447 850 447 850 398.5 826.5 c 128,-1,49
 350 803 350 803 312.5 756 c 128,-1,50
 275 709 275 709 252.5 639 c 128,-1,51
 230 569 230 569 230 475 c 0,52,53
 230 390 230 390 255.5 320.5 c 128,-1,54
 281 251 281 251 323.5 202 c 128,-1,55
 366 153 366 153 421.5 126.5 c 128,-1,56
 477 100 477 100 537 100 c 0,57,58
 565 100 565 100 589 102.5 c 128,-1,59
 613 105 613 105 641.5 118 c 128,-1,60
 670 131 670 131 707.5 157 c 128,-1,61
 745 183 745 183 801 231 c 1,62,-1
 840 190 l 1,63,64
 775 113 775 113 725.5 69.5 c 128,-1,65
 676 26 676 26 634 3.5 c 128,-1,66
 592 -19 592 -19 552 -24 c 0,67,68
 547 -25 547 -25 541 -26 c 1,69,-1
 515 -104 l 1,70,71
 541 -110 541 -110 566.5 -119.5 c 128,-1,72
 592 -129 592 -129 611.5 -144 c 128,-1,73
 631 -159 631 -159 643 -180 c 128,-1,74
 655 -201 655 -201 655 -229 c 0,0,1
EndSplineSet
Ligature2: "'ccmp' Glyph Composition/Decomposition lookup 3 subtable" c uni0327
EndChar

StartChar: dagger
Encoding: 8224 8224 130
Width: 977
Flags: W
LayerCount: 2
Fore
SplineSet
907 1074 m 1,0,1
 893 1040 893 1040 871.5 997.5 c 128,-1,2
 850 955 850 955 825 917 c 1,3,4
 757 941 757 941 687.5 951.5 c 128,-1,5
 618 962 618 962 534 967 c 1,6,7
 535 897 535 897 543.5 823 c 128,-1,8
 552 749 552 749 571 680 c 1,9,10
 551 569 551 569 543.5 457.5 c 128,-1,11
 536 346 536 346 534 250 c 0,12,13
 533 192 533 192 537.5 126 c 128,-1,14
 542 60 542 60 547 -1 c 1,15,16
 528 -15 528 -15 503 -23.5 c 128,-1,17
 478 -32 478 -32 453 -40 c 1,18,-1
 424 -19 l 1,19,20
 430 48 430 48 434.5 118.5 c 128,-1,21
 439 189 439 189 438 250 c 0,22,23
 436 349 436 349 428.5 459.5 c 128,-1,24
 421 570 421 570 401 680 c 1,25,26
 420 749 420 749 427.5 823.5 c 128,-1,27
 435 898 435 898 437 967 c 1,28,29
 391 965 391 965 348.5 961 c 128,-1,30
 306 957 306 957 264.5 951 c 128,-1,31
 223 945 223 945 181.5 936.5 c 128,-1,32
 140 928 140 928 95 917 c 1,33,-1
 70 960 l 1,34,35
 84 994 84 994 105.5 1036.5 c 128,-1,36
 127 1079 127 1079 152 1117 c 1,37,38
 219 1093 219 1093 287 1082 c 128,-1,39
 355 1071 355 1071 437 1067 c 1,40,41
 435 1158 435 1158 423.5 1241 c 128,-1,42
 412 1324 412 1324 386 1398 c 1,43,44
 424 1423 424 1423 466.5 1444.5 c 128,-1,45
 509 1466 509 1466 543 1480 c 1,46,-1
 586 1455 l 1,47,48
 563 1361 563 1361 551 1262 c 128,-1,49
 539 1163 539 1163 535 1068 c 1,50,51
 581 1070 581 1070 624.5 1073.5 c 128,-1,52
 668 1077 668 1077 710 1083 c 128,-1,53
 752 1089 752 1089 794.5 1097.5 c 128,-1,54
 837 1106 837 1106 882 1117 c 1,55,-1
 907 1074 l 1,0,1
EndSplineSet
EndChar

StartChar: degree
Encoding: 176 176 131
Width: 733
Flags: W
LayerCount: 2
Fore
SplineSet
484 995 m 0,0,1
 484 1024 484 1024 476.5 1050.5 c 128,-1,2
 469 1077 469 1077 455.5 1097.5 c 128,-1,3
 442 1118 442 1118 422 1130 c 128,-1,4
 402 1142 402 1142 378 1142 c 0,5,6
 353 1142 353 1142 330 1132 c 128,-1,7
 307 1122 307 1122 289 1103 c 128,-1,8
 271 1084 271 1084 260.5 1057.5 c 128,-1,9
 250 1031 250 1031 250 998 c 0,10,11
 250 970 250 970 257 943.5 c 128,-1,12
 264 917 264 917 277.5 896.5 c 128,-1,13
 291 876 291 876 310.5 863.5 c 128,-1,14
 330 851 330 851 355 851 c 0,15,16
 379 851 379 851 402 860.5 c 128,-1,17
 425 870 425 870 443.5 888.5 c 128,-1,18
 462 907 462 907 473 933.5 c 128,-1,19
 484 960 484 960 484 995 c 0,0,1
593 1045 m 0,20,21
 593 983 593 983 569 931 c 128,-1,22
 545 879 545 879 507 840.5 c 128,-1,23
 469 802 469 802 422 780.5 c 128,-1,24
 375 759 375 759 329 759 c 0,25,26
 288 759 288 759 253 774 c 128,-1,27
 218 789 218 789 193 815 c 128,-1,28
 168 841 168 841 154 875 c 128,-1,29
 140 909 140 909 140 948 c 0,30,31
 140 1010 140 1010 163.5 1062.5 c 128,-1,32
 187 1115 187 1115 225 1153.5 c 128,-1,33
 263 1192 263 1192 310 1213.5 c 128,-1,34
 357 1235 357 1235 404 1235 c 0,35,36
 443 1235 443 1235 477.5 1219.5 c 128,-1,37
 512 1204 512 1204 537.5 1178 c 128,-1,38
 563 1152 563 1152 578 1117.5 c 128,-1,39
 593 1083 593 1083 593 1045 c 0,20,21
EndSplineSet
EndChar

StartChar: cent
Encoding: 162 162 132
Width: 961
Flags: W
LayerCount: 2
Fore
SplineSet
256 616 m 0,0,1
 256 546 256 546 273 489 c 128,-1,2
 290 432 290 432 319.5 389 c 128,-1,3
 349 346 349 346 389 317.5 c 128,-1,4
 429 289 429 289 475 275 c 1,5,-1
 475 966 l 1,6,7
 430 957 430 957 390.5 932 c 128,-1,8
 351 907 351 907 321 864 c 128,-1,9
 291 821 291 821 273.5 759.5 c 128,-1,10
 256 698 256 698 256 616 c 0,0,1
565 -8 m 1,11,12
 556 -16 556 -16 549 -20.5 c 128,-1,13
 542 -25 542 -25 535.5 -28.5 c 128,-1,14
 529 -32 529 -32 520.5 -34.5 c 128,-1,15
 512 -37 512 -37 500 -41 c 1,16,-1
 475 -16 l 1,17,-1
 475 129 l 1,18,19
 404 132 404 132 337.5 163 c 128,-1,20
 271 194 271 194 219 251.5 c 128,-1,21
 167 309 167 309 135.5 393 c 128,-1,22
 104 477 104 477 104 586 c 0,23,24
 104 674 104 674 131.5 752 c 128,-1,25
 159 830 159 830 208 891.5 c 128,-1,26
 257 953 257 953 325.5 996.5 c 128,-1,27
 394 1040 394 1040 475 1061 c 1,28,-1
 475 1214 l 1,29,30
 489 1223 489 1223 495 1227.5 c 128,-1,31
 501 1232 501 1232 505.5 1234.5 c 128,-1,32
 510 1237 510 1237 517 1239 c 128,-1,33
 524 1241 524 1241 539 1245 c 1,34,-1
 565 1223 l 1,35,-1
 565 1077 l 1,36,37
 577 1078 577 1078 589 1078.5 c 128,-1,38
 601 1079 601 1079 614 1079 c 0,39,40
 647 1079 647 1079 681.5 1073.5 c 128,-1,41
 716 1068 716 1068 748 1057.5 c 128,-1,42
 780 1047 780 1047 806.5 1032.5 c 128,-1,43
 833 1018 833 1018 850 999 c 1,44,45
 852 988 852 988 847 966 c 128,-1,46
 842 944 842 944 833 920 c 128,-1,47
 824 896 824 896 813 873.5 c 128,-1,48
 802 851 802 851 793 838 c 1,49,-1
 758 848 l 1,50,51
 749 864 749 864 733.5 883 c 128,-1,52
 718 902 718 902 694.5 919 c 128,-1,53
 671 936 671 936 639 949.5 c 128,-1,54
 607 963 607 963 565 968 c 1,55,-1
 565 262 l 1,56,57
 592 262 592 262 616 264.5 c 128,-1,58
 640 267 640 267 668.5 279.5 c 128,-1,59
 697 292 697 292 734 318 c 128,-1,60
 771 344 771 344 825 391 c 1,61,-1
 864 350 l 1,62,63
 813 290 813 290 772 250 c 128,-1,64
 731 210 731 210 695.5 185.5 c 128,-1,65
 660 161 660 161 628.5 149 c 128,-1,66
 597 137 597 137 565 133 c 1,67,-1
 565 -8 l 1,11,12
EndSplineSet
EndChar

StartChar: sterling
Encoding: 163 163 133
Width: 961
Flags: W
LayerCount: 2
Fore
SplineSet
615 536 m 1,0,-1
 373 536 l 1,1,2
 376 468 376 468 368 405 c 128,-1,3
 360 342 360 342 344.5 286.5 c 128,-1,4
 329 231 329 231 306.5 184 c 128,-1,5
 284 137 284 137 258 101 c 1,6,7
 303 105 303 105 338 106 c 128,-1,8
 373 107 373 107 402 106.5 c 128,-1,9
 431 106 431 106 456 105 c 128,-1,10
 481 104 481 104 507.5 102.5 c 128,-1,11
 534 101 534 101 563 100.5 c 128,-1,12
 592 100 592 100 629 101 c 0,13,14
 675 102 675 102 708 107 c 128,-1,15
 741 112 741 112 766.5 129 c 128,-1,16
 792 146 792 146 813 179.5 c 128,-1,17
 834 213 834 213 855 272 c 1,18,-1
 898 254 l 1,19,20
 894 211 894 211 888.5 171.5 c 128,-1,21
 883 132 883 132 877.5 98.5 c 128,-1,22
 872 65 872 65 866.5 40 c 128,-1,23
 861 15 861 15 857 0 c 1,24,25
 812 -25 812 -25 751.5 -28 c 128,-1,26
 691 -31 691 -31 621.5 -24 c 128,-1,27
 552 -17 552 -17 478.5 -5.5 c 128,-1,28
 405 6 405 6 334 11 c 128,-1,29
 263 16 263 16 199.5 8.5 c 128,-1,30
 136 1 136 1 87 -30 c 1,31,-1
 64 19 l 1,32,33
 95 44 95 44 119 66 c 128,-1,34
 143 88 143 88 160 113.5 c 128,-1,35
 177 139 177 139 188 172.5 c 128,-1,36
 199 206 199 206 204 255 c 128,-1,37
 209 304 209 304 208 372.5 c 128,-1,38
 207 441 207 441 200 536 c 1,39,-1
 86 536 l 1,40,-1
 64 561 l 1,41,42
 69 576 69 576 74.5 593.5 c 128,-1,43
 80 611 80 611 86 627 c 1,44,-1
 194 627 l 1,45,46
 188 769 188 769 210 882 c 128,-1,47
 232 995 232 995 283.5 1073.5 c 128,-1,48
 335 1152 335 1152 417.5 1193.5 c 128,-1,49
 500 1235 500 1235 614 1235 c 0,50,51
 640 1235 640 1235 664.5 1233 c 128,-1,52
 689 1231 689 1231 717 1223.5 c 128,-1,53
 745 1216 745 1216 779.5 1202.5 c 128,-1,54
 814 1189 814 1189 861 1165 c 1,55,56
 860 1139 860 1139 856 1102 c 128,-1,57
 852 1065 852 1065 846.5 1026.5 c 128,-1,58
 841 988 841 988 834.5 953.5 c 128,-1,59
 828 919 828 919 822 900 c 1,60,-1
 775 900 l 1,61,62
 761 1024 761 1024 700.5 1080 c 128,-1,63
 640 1136 640 1136 540 1136 c 0,64,65
 513 1136 513 1136 486.5 1130.5 c 128,-1,66
 460 1125 460 1125 436.5 1107.5 c 128,-1,67
 413 1090 413 1090 394 1056.5 c 128,-1,68
 375 1023 375 1023 364.5 966.5 c 128,-1,69
 354 910 354 910 353 826.5 c 128,-1,70
 352 743 352 743 364 627 c 1,71,-1
 615 627 l 1,72,-1
 640 604 l 1,73,-1
 615 536 l 1,0,-1
EndSplineSet
EndChar

StartChar: section
Encoding: 167 167 134
Width: 961
Flags: W
LayerCount: 2
Fore
SplineSet
538 529 m 0,0,1
 564 515 564 515 590.5 501.5 c 128,-1,2
 617 488 617 488 642 473 c 1,3,4
 674 493 674 493 692.5 524.5 c 128,-1,5
 711 556 711 556 711 594 c 0,6,7
 711 640 711 640 692.5 677.5 c 128,-1,8
 674 715 674 715 636 750.5 c 128,-1,9
 598 786 598 786 540.5 821.5 c 128,-1,10
 483 857 483 857 405 899 c 0,11,12
 382 911 382 911 361 924.5 c 128,-1,13
 340 938 340 938 320 952 c 1,14,15
 302 946 302 946 289 931 c 128,-1,16
 276 916 276 916 267.5 897 c 128,-1,17
 259 878 259 878 254.5 858 c 128,-1,18
 250 838 250 838 250 822 c 0,19,20
 250 776 250 776 267 740.5 c 128,-1,21
 284 705 284 705 319 672.5 c 128,-1,22
 354 640 354 640 408.5 606 c 128,-1,23
 463 572 463 572 538 529 c 0,0,1
842 656 m 0,24,25
 842 612 842 612 832.5 574 c 128,-1,26
 823 536 823 536 806.5 504.5 c 128,-1,27
 790 473 790 473 769 449 c 128,-1,28
 748 425 748 425 726 408 c 1,29,30
 752 380 752 380 767.5 345 c 128,-1,31
 783 310 783 310 783 263 c 0,32,33
 783 192 783 192 763 143 c 128,-1,34
 743 94 743 94 711 61.5 c 128,-1,35
 679 29 679 29 640 10.5 c 128,-1,36
 601 -8 601 -8 563 -17 c 128,-1,37
 525 -26 525 -26 492 -28 c 128,-1,38
 459 -30 459 -30 439 -30 c 0,39,40
 415 -30 415 -30 385.5 -24 c 128,-1,41
 356 -18 356 -18 323.5 -7 c 128,-1,42
 291 4 291 4 256.5 19.5 c 128,-1,43
 222 35 222 35 189 53 c 0,44,45
 182 56 182 56 179.5 85.5 c 128,-1,46
 177 115 177 115 178.5 153.5 c 128,-1,47
 180 192 180 192 184.5 231 c 128,-1,48
 189 270 189 270 196 293 c 1,49,-1
 239 282 l 1,50,51
 241 240 241 240 261 201.5 c 128,-1,52
 281 163 281 163 314.5 133 c 128,-1,53
 348 103 348 103 392.5 85.5 c 128,-1,54
 437 68 437 68 489 68 c 0,55,56
 561 68 561 68 607 102 c 128,-1,57
 653 136 653 136 653 207 c 0,58,59
 653 247 653 247 631.5 276 c 128,-1,60
 610 305 610 305 574.5 328.5 c 128,-1,61
 539 352 539 352 494.5 373 c 128,-1,62
 450 394 450 394 405 419 c 0,63,64
 339 455 339 455 286 491.5 c 128,-1,65
 233 528 233 528 196 569.5 c 128,-1,66
 159 611 159 611 139 661 c 128,-1,67
 119 711 119 711 119 775 c 0,68,69
 119 812 119 812 130.5 846.5 c 128,-1,70
 142 881 142 881 161.5 911.5 c 128,-1,71
 181 942 181 942 206.5 966.5 c 128,-1,72
 232 991 232 991 260 1009 c 1,73,74
 225 1049 225 1049 206 1096 c 128,-1,75
 187 1143 187 1143 187 1200 c 0,76,77
 187 1262 187 1262 212 1307.5 c 128,-1,78
 237 1353 237 1353 278.5 1382.5 c 128,-1,79
 320 1412 320 1412 373.5 1426 c 128,-1,80
 427 1440 427 1440 484 1440 c 0,81,82
 515 1440 515 1440 552.5 1433 c 128,-1,83
 590 1426 590 1426 626.5 1414 c 128,-1,84
 663 1402 663 1402 695 1386.5 c 128,-1,85
 727 1371 727 1371 747 1353 c 0,86,87
 753 1347 753 1347 748.5 1326 c 128,-1,88
 744 1305 744 1305 734.5 1280 c 128,-1,89
 725 1255 725 1255 714 1233 c 128,-1,90
 703 1211 703 1211 697 1203 c 1,91,-1
 658 1211 l 1,92,93
 610 1283 610 1283 558.5 1316.5 c 128,-1,94
 507 1350 507 1350 458 1350 c 0,95,96
 392 1350 392 1350 354.5 1321.5 c 128,-1,97
 317 1293 317 1293 317 1240 c 0,98,99
 317 1205 317 1205 331 1176.5 c 128,-1,100
 345 1148 345 1148 372.5 1121 c 128,-1,101
 400 1094 400 1094 441.5 1067 c 128,-1,102
 483 1040 483 1040 538 1009 c 0,103,104
 605 971 605 971 660.5 936.5 c 128,-1,105
 716 902 716 902 756.5 862.5 c 128,-1,106
 797 823 797 823 819.5 774 c 128,-1,107
 842 725 842 725 842 656 c 0,24,25
EndSplineSet
EndChar

StartChar: bullet
Encoding: 8226 8226 135
Width: 569
Flags: W
LayerCount: 2
Fore
SplineSet
498 662 m 0,0,1
 498 601 498 601 480.5 551 c 128,-1,2
 463 501 463 501 431.5 465 c 128,-1,3
 400 429 400 429 356.5 409 c 128,-1,4
 313 389 313 389 260 389 c 0,5,6
 212 389 212 389 176.5 405.5 c 128,-1,7
 141 422 141 422 117.5 452 c 128,-1,8
 94 482 94 482 82 523 c 128,-1,9
 70 564 70 564 70 612 c 0,10,11
 70 672 70 672 88.5 722 c 128,-1,12
 107 772 107 772 139 808.5 c 128,-1,13
 171 845 171 845 214.5 865 c 128,-1,14
 258 885 258 885 309 885 c 0,15,16
 354 885 354 885 389.5 868.5 c 128,-1,17
 425 852 425 852 449 822.5 c 128,-1,18
 473 793 473 793 485.5 752 c 128,-1,19
 498 711 498 711 498 662 c 0,0,1
EndSplineSet
EndChar

StartChar: paragraph
Encoding: 182 182 136
Width: 1135
Flags: W
LayerCount: 2
Fore
SplineSet
444 -250 m 1,0,-1
 444 -207 l 1,1,2
 513 -193 513 -193 551.5 -176 c 128,-1,3
 590 -159 590 -159 590 -145 c 2,4,-1
 591 532 l 1,5,6
 573 529 573 529 552 527.5 c 128,-1,7
 531 526 531 526 504 526 c 0,8,9
 411 526 411 526 328.5 549.5 c 128,-1,10
 246 573 246 573 183.5 620.5 c 128,-1,11
 121 668 121 668 85 738.5 c 128,-1,12
 49 809 49 809 49 903 c 0,13,14
 49 988 49 988 82.5 1059 c 128,-1,15
 116 1130 116 1130 177 1181.5 c 128,-1,16
 238 1233 238 1233 322.5 1261.5 c 128,-1,17
 407 1290 407 1290 508 1290 c 0,18,19
 530 1290 530 1290 562 1288.5 c 128,-1,20
 594 1287 594 1287 631.5 1285 c 128,-1,21
 669 1283 669 1283 709.5 1280.5 c 128,-1,22
 750 1278 750 1278 789 1275 c 0,23,24
 881 1268 881 1268 983 1260 c 1,25,-1
 1055 1260 l 1,26,-1
 1055 1217 l 1,27,28
 987 1203 987 1203 948 1186 c 128,-1,29
 909 1169 909 1169 909 1155 c 2,30,-1
 909 -145 l 2,31,32
 909 -158 909 -158 945.5 -175.5 c 128,-1,33
 982 -193 982 -193 1055 -207 c 1,34,-1
 1055 -250 l 1,35,-1
 444 -250 l 1,0,-1
591 610 m 1,36,-1
 592 1200 l 1,37,38
 530 1206 530 1206 489 1206 c 0,39,40
 429 1206 429 1206 379 1185 c 128,-1,41
 329 1164 329 1164 292.5 1128 c 128,-1,42
 256 1092 256 1092 235.5 1043 c 128,-1,43
 215 994 215 994 215 938 c 0,44,45
 215 884 215 884 234 826 c 128,-1,46
 253 768 253 768 293.5 720 c 128,-1,47
 334 672 334 672 396.5 641 c 128,-1,48
 459 610 459 610 547 610 c 2,49,-1
 591 610 l 1,36,-1
791 1159 m 1,50,51
 771 1166 771 1166 751 1171 c 2,52,-1
 711 1181 l 1,53,-1
 711 -145 l 2,54,55
 711 -156 711 -156 725.5 -164.5 c 128,-1,56
 740 -173 740 -173 750 -176 c 1,57,58
 762 -173 762 -173 776.5 -164.5 c 128,-1,59
 791 -156 791 -156 791 -145 c 2,60,-1
 791 1159 l 1,50,51
EndSplineSet
EndChar

StartChar: germandbls
Encoding: 223 223 137
Width: 1157
GlyphClass: 2
Flags: W
AnchorPoint: "Anchor-4" 1157 900 basechar 0
AnchorPoint: "Anchor-3" 561 -100 basechar 0
AnchorPoint: "Anchor-2" 561 -100 basechar 0
AnchorPoint: "Anchor-1" 561 -100 basechar 0
AnchorPoint: "Anchor-0" 561 1690 basechar 0
LayerCount: 2
Fore
SplineSet
1067 283 m 0,0,1
 1067 224 1067 224 1048 168 c 128,-1,2
 1029 112 1029 112 988 68 c 128,-1,3
 947 24 947 24 883 -3 c 128,-1,4
 819 -30 819 -30 729 -30 c 0,5,6
 701 -30 701 -30 660 -22.5 c 128,-1,7
 619 -15 619 -15 579 -4 c 128,-1,8
 539 7 539 7 507.5 21 c 128,-1,9
 476 35 476 35 469 47 c 0,10,11
 466 52 466 52 464.5 69.5 c 128,-1,12
 463 87 463 87 463 111 c 128,-1,13
 463 135 463 135 464 162 c 128,-1,14
 465 189 465 189 467.5 214 c 128,-1,15
 470 239 470 239 474 257.5 c 128,-1,16
 478 276 478 276 483 283 c 1,17,-1
 522 270 l 1,18,19
 529 216 529 216 554 178 c 128,-1,20
 579 140 579 140 614 116 c 128,-1,21
 649 92 649 92 689.5 81 c 128,-1,22
 730 70 730 70 768 70 c 0,23,24
 803 70 803 70 834 80.5 c 128,-1,25
 865 91 865 91 888 110.5 c 128,-1,26
 911 130 911 130 924 157 c 128,-1,27
 937 184 937 184 937 217 c 0,28,29
 937 269 937 269 917.5 307.5 c 128,-1,30
 898 346 898 346 866 375.5 c 128,-1,31
 834 405 834 405 793.5 429 c 128,-1,32
 753 453 753 453 710 475 c 128,-1,33
 667 497 667 497 626.5 520.5 c 128,-1,34
 586 544 586 544 554 573.5 c 128,-1,35
 522 603 522 603 502.5 640.5 c 128,-1,36
 483 678 483 678 483 729 c 0,37,38
 483 796 483 796 507.5 838.5 c 128,-1,39
 532 881 532 881 569 908.5 c 128,-1,40
 606 936 606 936 649 955 c 128,-1,41
 692 974 692 974 729 995 c 128,-1,42
 766 1016 766 1016 790.5 1045 c 128,-1,43
 815 1074 815 1074 815 1122 c 0,44,45
 815 1173 815 1173 801 1226.5 c 128,-1,46
 787 1280 787 1280 757 1324 c 128,-1,47
 727 1368 727 1368 679.5 1396.5 c 128,-1,48
 632 1425 632 1425 565 1425 c 0,49,50
 517 1425 517 1425 476.5 1407.5 c 128,-1,51
 436 1390 436 1390 406.5 1344 c 128,-1,52
 377 1298 377 1298 361 1219 c 128,-1,53
 345 1140 345 1140 345 1016 c 2,54,-1
 345 0 l 1,55,-1
 55 0 l 1,56,-1
 55 43 l 1,57,58
 123 55 123 55 159 72.5 c 128,-1,59
 195 90 195 90 195 102 c 2,60,-1
 195 961 l 2,61,62
 195 1081 195 1081 211.5 1162 c 128,-1,63
 228 1243 228 1243 255 1298 c 128,-1,64
 282 1353 282 1353 318 1389.5 c 128,-1,65
 354 1426 354 1426 393 1458 c 0,66,67
 447 1502 447 1502 514 1526 c 128,-1,68
 581 1550 581 1550 653 1550 c 0,69,70
 739 1550 739 1550 799 1514.5 c 128,-1,71
 859 1479 859 1479 896.5 1425 c 128,-1,72
 934 1371 934 1371 950.5 1308 c 128,-1,73
 967 1245 967 1245 967 1190 c 0,74,75
 967 1108 967 1108 941.5 1056 c 128,-1,76
 916 1004 916 1004 878 971 c 128,-1,77
 840 938 840 938 795 917 c 128,-1,78
 750 896 750 896 712 877 c 128,-1,79
 674 858 674 858 648.5 834 c 128,-1,80
 623 810 623 810 623 770 c 0,81,82
 623 737 623 737 642 712.5 c 128,-1,83
 661 688 661 688 692.5 667 c 128,-1,84
 724 646 724 646 763.5 626.5 c 128,-1,85
 803 607 803 607 845 585 c 128,-1,86
 887 563 887 563 926.5 536.5 c 128,-1,87
 966 510 966 510 997.5 474.5 c 128,-1,88
 1029 439 1029 439 1048 392 c 128,-1,89
 1067 345 1067 345 1067 283 c 0,0,1
EndSplineSet
EndChar

StartChar: registered
Encoding: 174 174 138
Width: 730
Flags: W
LayerCount: 2
Fore
SplineSet
696 1084 m 256,0,1
 696 1012 696 1012 671 949 c 128,-1,2
 646 886 646 886 602 839 c 128,-1,3
 558 792 558 792 497 765 c 128,-1,4
 436 738 436 738 364 738 c 256,5,6
 292 738 292 738 232 765 c 128,-1,7
 172 792 172 792 128 839 c 128,-1,8
 84 886 84 886 59.5 949 c 128,-1,9
 35 1012 35 1012 35 1084 c 256,10,11
 35 1156 35 1156 59.5 1219 c 128,-1,12
 84 1282 84 1282 128 1329 c 128,-1,13
 172 1376 172 1376 232 1403 c 128,-1,14
 292 1430 292 1430 364 1430 c 256,15,16
 436 1430 436 1430 497 1403 c 128,-1,17
 558 1376 558 1376 602 1329 c 128,-1,18
 646 1282 646 1282 671 1219 c 128,-1,19
 696 1156 696 1156 696 1084 c 256,0,1
637 1084 m 0,20,21
 637 1143 637 1143 616.5 1195.5 c 128,-1,22
 596 1248 596 1248 560 1287 c 128,-1,23
 524 1326 524 1326 474 1348.5 c 128,-1,24
 424 1371 424 1371 364 1371 c 0,25,26
 305 1371 305 1371 255.5 1348.5 c 128,-1,27
 206 1326 206 1326 170 1287 c 128,-1,28
 134 1248 134 1248 113.5 1195.5 c 128,-1,29
 93 1143 93 1143 93 1084 c 0,30,31
 93 1024 93 1024 113.5 972 c 128,-1,32
 134 920 134 920 170 881 c 128,-1,33
 206 842 206 842 255.5 819.5 c 128,-1,34
 305 797 305 797 364 797 c 0,35,36
 424 797 424 797 474 819.5 c 128,-1,37
 524 842 524 842 560 881 c 128,-1,38
 596 920 596 920 616.5 972 c 128,-1,39
 637 1024 637 1024 637 1084 c 0,20,21
214 887 m 1,40,-1
 214 905 l 1,41,42
 258 914 258 914 258 924 c 2,43,-1
 258 1250 l 1,44,-1
 214 1244 l 1,45,-1
 212 1273 l 1,46,47
 241 1280 241 1280 273 1285.5 c 128,-1,48
 305 1291 305 1291 347 1291 c 0,49,50
 422 1291 422 1291 460.5 1264 c 128,-1,51
 499 1237 499 1237 499 1196 c 0,52,53
 499 1149 499 1149 471 1118.5 c 128,-1,54
 443 1088 443 1088 399 1077 c 1,55,-1
 502 934 l 2,56,57
 509 923 509 923 520.5 920 c 128,-1,58
 532 917 532 917 554 919 c 1,59,-1
 556 898 l 1,60,61
 536 892 536 892 514.5 886.5 c 128,-1,62
 493 881 493 881 482 881 c 0,63,64
 473 881 473 881 464 887 c 128,-1,65
 455 893 455 893 451 899 c 2,66,-1
 346 1070 l 1,67,-1
 344 1070 l 2,68,69
 329 1070 329 1070 313 1073 c 1,70,-1
 313 924 l 2,71,72
 313 914 313 914 356 905 c 1,73,-1
 356 887 l 1,74,-1
 214 887 l 1,40,-1
336 1256 m 2,75,-1
 324 1256 l 2,76,77
 319 1256 319 1256 313 1255 c 1,78,-1
 313 1109 l 1,79,80
 321 1107 321 1107 326 1107 c 2,81,-1
 340 1107 l 2,82,83
 391 1107 391 1107 414.5 1128 c 128,-1,84
 438 1149 438 1149 438 1187 c 0,85,86
 438 1216 438 1216 415.5 1236 c 128,-1,87
 393 1256 393 1256 336 1256 c 2,75,-1
EndSplineSet
EndChar

StartChar: copyright
Encoding: 169 169 139
Width: 1460
Flags: W
LayerCount: 2
Fore
SplineSet
1018 369 m 1,0,1
 973 326 973 326 932.5 297 c 128,-1,2
 892 268 892 268 854 250 c 128,-1,3
 816 232 816 232 779.5 224.5 c 128,-1,4
 743 217 743 217 707 217 c 0,5,6
 642 217 642 217 579.5 243 c 128,-1,7
 517 269 517 269 468 318.5 c 128,-1,8
 419 368 419 368 388.5 439.5 c 128,-1,9
 358 511 358 511 358 602 c 0,10,11
 358 702 358 702 391.5 784 c 128,-1,12
 425 866 425 866 483 923.5 c 128,-1,13
 541 981 541 981 617.5 1012.5 c 128,-1,14
 694 1044 694 1044 780 1044 c 0,15,16
 856 1044 856 1044 912 1025.5 c 128,-1,17
 968 1007 968 1007 1006 981 c 0,18,19
 1010 978 1010 978 1003.5 965 c 128,-1,20
 997 952 997 952 986.5 936 c 128,-1,21
 976 920 976 920 963.5 905 c 128,-1,22
 951 890 951 890 942 883 c 1,23,-1
 918 887 l 1,24,25
 882 915 882 915 837 939 c 128,-1,26
 792 963 792 963 731 963 c 0,27,28
 699 963 699 963 657 947 c 128,-1,29
 615 931 615 931 577.5 892.5 c 128,-1,30
 540 854 540 854 514.5 789 c 128,-1,31
 489 724 489 724 489 627 c 0,32,33
 489 547 489 547 518.5 487 c 128,-1,34
 548 427 548 427 592.5 386.5 c 128,-1,35
 637 346 637 346 687.5 325.5 c 128,-1,36
 738 305 738 305 780 305 c 0,37,38
 802 305 802 305 823 309 c 128,-1,39
 844 313 844 313 869 323 c 128,-1,40
 894 333 894 333 923.5 351 c 128,-1,41
 953 369 953 369 991 397 c 1,42,43
 999 394 999 394 1006 383 c 128,-1,44
 1013 372 1013 372 1018 369 c 1,0,1
1274 631 m 0,45,46
 1274 749 1274 749 1233.5 853.5 c 128,-1,47
 1193 958 1193 958 1120.5 1036 c 128,-1,48
 1048 1114 1048 1114 948 1159 c 128,-1,49
 848 1204 848 1204 729 1204 c 0,50,51
 611 1204 611 1204 511.5 1159 c 128,-1,52
 412 1114 412 1114 339.5 1036 c 128,-1,53
 267 958 267 958 226.5 853.5 c 128,-1,54
 186 749 186 749 186 631 c 0,55,56
 186 512 186 512 226.5 407 c 128,-1,57
 267 302 267 302 339.5 224 c 128,-1,58
 412 146 412 146 511.5 101 c 128,-1,59
 611 56 611 56 729 56 c 0,60,61
 848 56 848 56 948 101 c 128,-1,62
 1048 146 1048 146 1120.5 224 c 128,-1,63
 1193 302 1193 302 1233.5 407 c 128,-1,64
 1274 512 1274 512 1274 631 c 0,45,46
1360 631 m 256,65,66
 1360 540 1360 540 1338.5 455.5 c 128,-1,67
 1317 371 1317 371 1277.5 297.5 c 128,-1,68
 1238 224 1238 224 1181.5 163.5 c 128,-1,69
 1125 103 1125 103 1055 60 c 128,-1,70
 985 17 985 17 902.5 -6.5 c 128,-1,71
 820 -30 820 -30 729 -30 c 0,72,73
 592 -30 592 -30 477 22 c 128,-1,74
 362 74 362 74 278 163.5 c 128,-1,75
 194 253 194 253 147 373.5 c 128,-1,76
 100 494 100 494 100 631 c 0,77,78
 100 767 100 767 147 887.5 c 128,-1,79
 194 1008 194 1008 278 1097 c 128,-1,80
 362 1186 362 1186 477 1238 c 128,-1,81
 592 1290 592 1290 729 1290 c 0,82,83
 820 1290 820 1290 902.5 1266.5 c 128,-1,84
 985 1243 985 1243 1055 1200 c 128,-1,85
 1125 1157 1125 1157 1181.5 1097 c 128,-1,86
 1238 1037 1238 1037 1277.5 963.5 c 128,-1,87
 1317 890 1317 890 1338.5 806 c 128,-1,88
 1360 722 1360 722 1360 631 c 256,65,66
EndSplineSet
EndChar

StartChar: trademark
Encoding: 8482 8482 140
Width: 1145
Flags: W
LayerCount: 2
Fore
SplineSet
174 807 m 1,0,-1
 174 831 l 1,1,2
 209 839 209 839 221 845.5 c 128,-1,3
 233 852 233 852 233 858 c 2,4,-1
 233 1219 l 1,5,-1
 123 1219 l 2,6,7
 117 1219 117 1219 112 1216.5 c 128,-1,8
 107 1214 107 1214 102.5 1207.5 c 128,-1,9
 98 1201 98 1201 92 1188.5 c 128,-1,10
 86 1176 86 1176 78 1155 c 1,11,-1
 59 1161 l 1,12,13
 59 1169 59 1169 60 1182.5 c 128,-1,14
 61 1196 61 1196 63 1211 c 128,-1,15
 65 1226 65 1226 67.5 1239.5 c 128,-1,16
 70 1253 70 1253 72 1260 c 1,17,-1
 463 1260 l 1,18,-1
 475 1251 l 1,19,20
 474 1242 474 1242 473.5 1229 c 128,-1,21
 473 1216 473 1216 471.5 1202 c 128,-1,22
 470 1188 470 1188 468 1175.5 c 128,-1,23
 466 1163 466 1163 463 1155 c 1,24,-1
 446 1155 l 1,25,26
 438 1186 438 1186 432.5 1202.5 c 128,-1,27
 427 1219 427 1219 410 1219 c 2,28,-1
 305 1219 l 1,29,-1
 305 858 l 2,30,31
 305 853 305 853 316 846 c 128,-1,32
 327 839 327 839 365 831 c 1,33,-1
 365 807 l 1,34,-1
 174 807 l 1,0,-1
1077 1235 m 1,35,36
 1056 1235 1056 1235 1030 1227 c 1,37,-1
 1034 854 l 2,38,39
 1034 849 1034 849 1046 842.5 c 128,-1,40
 1058 836 1058 836 1085 831 c 1,41,-1
 1085 807 l 1,42,-1
 909 807 l 1,43,-1
 909 831 l 1,44,45
 935 836 935 836 950 842.5 c 128,-1,46
 965 849 965 849 965 854 c 2,47,-1
 961 1161 l 1,48,-1
 801 807 l 1,49,-1
 772 807 l 1,50,-1
 609 1159 l 1,51,-1
 606 854 l 2,52,53
 606 849 606 849 618 842.5 c 128,-1,54
 630 836 630 836 657 831 c 1,55,-1
 657 807 l 1,56,-1
 502 807 l 1,57,-1
 502 831 l 1,58,59
 528 836 528 836 540.5 842.5 c 128,-1,60
 553 849 553 849 553 854 c 2,61,-1
 557 1226 l 1,62,63
 543 1232 543 1232 530 1233.5 c 128,-1,64
 517 1235 517 1235 506 1235 c 1,65,-1
 506 1260 l 1,66,-1
 621 1260 l 2,67,68
 629 1260 629 1260 632.5 1254.5 c 128,-1,69
 636 1249 636 1249 645 1229 c 2,70,-1
 795 917 l 1,71,-1
 938 1229 l 2,72,73
 947 1250 947 1250 951 1255 c 128,-1,74
 955 1260 955 1260 963 1260 c 2,75,-1
 1077 1260 l 1,76,-1
 1077 1235 l 1,35,36
EndSplineSet
EndChar

StartChar: acute
Encoding: 180 180 141
Width: 653
Flags: W
LayerCount: 2
Fore
SplineSet
274 1047 m 1,0,1
 256 1051 256 1051 242.5 1058.5 c 128,-1,2
 229 1066 229 1066 217 1075 c 1,3,-1
 451 1489 l 1,4,5
 463 1488 463 1488 483 1485.5 c 128,-1,6
 503 1483 503 1483 524.5 1479.5 c 128,-1,7
 546 1476 546 1476 565.5 1472.5 c 128,-1,8
 585 1469 585 1469 596 1466 c 1,9,-1
 619 1427 l 1,10,-1
 274 1047 l 1,0,1
EndSplineSet
EndChar

StartChar: dieresis
Encoding: 168 168 142
Width: 801
Flags: W
LayerCount: 2
Fore
SplineSet
700 1261 m 0,0,1
 700 1233 700 1233 691 1208 c 128,-1,2
 682 1183 682 1183 666.5 1164.5 c 128,-1,3
 651 1146 651 1146 630 1135 c 128,-1,4
 609 1124 609 1124 584 1124 c 0,5,6
 539 1124 539 1124 519.5 1149 c 128,-1,7
 500 1174 500 1174 500 1220 c 0,8,9
 500 1248 500 1248 509 1273 c 128,-1,10
 518 1298 518 1298 534 1316.5 c 128,-1,11
 550 1335 550 1335 570.5 1345.5 c 128,-1,12
 591 1356 591 1356 615 1356 c 0,13,14
 700 1356 700 1356 700 1261 c 0,0,1
300 1261 m 0,15,16
 300 1233 300 1233 291 1208 c 128,-1,17
 282 1183 282 1183 266.5 1164.5 c 128,-1,18
 251 1146 251 1146 230 1135 c 128,-1,19
 209 1124 209 1124 184 1124 c 0,20,21
 139 1124 139 1124 119.5 1149 c 128,-1,22
 100 1174 100 1174 100 1220 c 0,23,24
 100 1248 100 1248 109 1273 c 128,-1,25
 118 1298 118 1298 134 1316.5 c 128,-1,26
 150 1335 150 1335 170.5 1345.5 c 128,-1,27
 191 1356 191 1356 215 1356 c 0,28,29
 300 1356 300 1356 300 1261 c 0,15,16
EndSplineSet
EndChar

StartChar: notequal
Encoding: 8800 8800 143
Width: 899
Flags: W
LayerCount: 2
Fore
SplineSet
652 765 m 1,0,-1
 813 765 l 1,1,-1
 838 740 l 1,2,3
 833 720 833 720 824 696 c 128,-1,4
 815 672 815 672 809 655 c 1,5,-1
 583 655 l 1,6,-1
 463 465 l 1,7,-1
 813 465 l 1,8,-1
 838 440 l 1,9,10
 833 419 833 419 824 396.5 c 128,-1,11
 815 374 815 374 809 355 c 1,12,-1
 394 355 l 1,13,-1
 265 150 l 1,14,15
 256 143 256 143 238.5 135.5 c 128,-1,16
 221 128 221 128 201 121.5 c 128,-1,17
 181 115 181 115 161.5 109 c 128,-1,18
 142 103 142 103 130 99 c 1,19,-1
 106 134 l 1,20,-1
 244 355 l 1,21,-1
 86 355 l 1,22,-1
 61 382 l 1,23,24
 66 402 66 402 74.5 423.5 c 128,-1,25
 83 445 83 445 92 465 c 1,26,-1
 313 465 l 1,27,-1
 432 655 l 1,28,-1
 86 655 l 1,29,-1
 61 680 l 1,30,31
 66 700 66 700 74.5 723 c 128,-1,32
 83 746 83 746 92 765 c 1,33,-1
 501 765 l 1,34,-1
 631 972 l 1,35,36
 659 989 659 989 696 1001 c 128,-1,37
 733 1013 733 1013 764 1021 c 1,38,-1
 793 988 l 1,39,-1
 652 765 l 1,0,-1
EndSplineSet
EndChar

StartChar: AE
Encoding: 198 198 144
Width: 1595
GlyphClass: 2
Flags: W
AnchorPoint: "Anchor-4" 1595 900 basechar 0
AnchorPoint: "Anchor-3" 854 -100 basechar 0
AnchorPoint: "Anchor-2" 854 -100 basechar 0
AnchorPoint: "Anchor-1" 854 -100 basechar 0
AnchorPoint: "Anchor-0" 924 1370 basechar 0
LayerCount: 2
Fore
SplineSet
774 1148 m 2,0,1
 774 1159 774 1159 764.5 1164 c 128,-1,2
 755 1169 755 1169 742 1167.5 c 128,-1,3
 729 1166 729 1166 716 1157 c 128,-1,4
 703 1148 703 1148 696 1131 c 2,5,-1
 539 735 l 1,6,-1
 774 735 l 1,7,-1
 774 1148 l 2,0,1
1536 244 m 1,8,9
 1527 157 1527 157 1514 93 c 128,-1,10
 1501 29 1501 29 1493 0 c 1,11,-1
 631 0 l 1,12,-1
 631 43 l 1,13,14
 699 57 699 57 736.5 73.5 c 128,-1,15
 774 90 774 90 774 104 c 2,16,-1
 774 651 l 1,17,-1
 505 651 l 1,18,-1
 285 111 l 1,19,20
 272 82 272 82 303 67 c 128,-1,21
 334 52 334 52 416 43 c 1,22,-1
 416 0 l 1,23,-1
 0 0 l 1,24,-1
 0 43 l 1,25,26
 68 55 68 55 106.5 68.5 c 128,-1,27
 145 82 145 82 158 111 c 1,28,-1
 571 1133 l 2,29,30
 578 1150 578 1150 567.5 1161.5 c 128,-1,31
 557 1173 557 1173 532 1182.5 c 128,-1,32
 507 1192 507 1192 468.5 1200 c 128,-1,33
 430 1208 430 1208 381 1217 c 1,34,-1
 381 1260 l 1,35,-1
 1438 1260 l 1,36,-1
 1468 1235 l 1,37,38
 1466 1209 1466 1209 1462.5 1178 c 128,-1,39
 1459 1147 1459 1147 1453.5 1116 c 128,-1,40
 1448 1085 1448 1085 1441 1057 c 128,-1,41
 1434 1029 1434 1029 1427 1010 c 1,42,-1
 1382 1010 l 1,43,44
 1380 1056 1380 1056 1374 1087 c 128,-1,45
 1368 1118 1368 1118 1358 1136.5 c 128,-1,46
 1348 1155 1348 1155 1333.5 1162.5 c 128,-1,47
 1319 1170 1319 1170 1300 1170 c 2,48,-1
 934 1170 l 1,49,-1
 934 735 l 1,50,-1
 1339 735 l 1,51,-1
 1366 707 l 1,52,53
 1357 693 1357 693 1346 677 c 128,-1,54
 1335 661 1335 661 1322.5 645.5 c 128,-1,55
 1310 630 1310 630 1297.5 617 c 128,-1,56
 1285 604 1285 604 1274 596 c 1,57,58
 1259 611 1259 611 1242 621 c 128,-1,59
 1225 631 1225 631 1202 638 c 128,-1,60
 1179 645 1179 645 1148 648 c 128,-1,61
 1117 651 1117 651 1075 651 c 2,62,-1
 934 651 l 1,63,-1
 934 154 l 2,64,65
 934 139 934 139 941.5 127.5 c 128,-1,66
 949 116 949 116 971.5 107.5 c 128,-1,67
 994 99 994 99 1034.5 94.5 c 128,-1,68
 1075 90 1075 90 1141 90 c 2,69,-1
 1270 90 l 2,70,71
 1316 90 1316 90 1348.5 95 c 128,-1,72
 1381 100 1381 100 1405.5 117.5 c 128,-1,73
 1430 135 1430 135 1450 169 c 128,-1,74
 1470 203 1470 203 1491 262 c 1,75,-1
 1536 244 l 1,8,9
EndSplineSet
EndChar

StartChar: Oslash
Encoding: 216 216 145
Width: 1229
GlyphClass: 2
Flags: W
AnchorPoint: "Anchor-4" 1229 900 basechar 0
AnchorPoint: "Anchor-3" 604 -100 basechar 0
AnchorPoint: "Anchor-2" 604 -100 basechar 0
AnchorPoint: "Anchor-1" 604 -100 basechar 0
AnchorPoint: "Anchor-0" 604 1370 basechar 0
LayerCount: 2
Fore
SplineSet
983 629 m 0,0,1
 983 718 983 718 963 802.5 c 128,-1,2
 943 887 943 887 905 959 c 1,3,-1
 377 203 l 1,4,5
 425 149 425 149 483 119.5 c 128,-1,6
 541 90 541 90 604 90 c 0,7,8
 687 90 687 90 756.5 124.5 c 128,-1,9
 826 159 826 159 876.5 227 c 128,-1,10
 927 295 927 295 955 396 c 128,-1,11
 983 497 983 497 983 629 c 0,0,1
225 641 m 0,12,13
 225 547 225 547 246 462 c 128,-1,14
 267 377 267 377 305 307 c 1,15,-1
 834 1063 l 1,16,17
 788 1115 788 1115 730 1145 c 128,-1,18
 672 1175 672 1175 604 1175 c 0,19,20
 515 1175 515 1175 444.5 1137.5 c 128,-1,21
 374 1100 374 1100 325.5 1030.5 c 128,-1,22
 277 961 277 961 251 862 c 128,-1,23
 225 763 225 763 225 641 c 0,12,13
1003 1099 m 1,24,25
 1070 1008 1070 1008 1104 890 c 128,-1,26
 1138 772 1138 772 1138 647 c 0,27,28
 1138 511 1138 511 1093 388.5 c 128,-1,29
 1048 266 1048 266 970.5 173 c 128,-1,30
 893 80 893 80 791 25 c 128,-1,31
 689 -30 689 -30 575 -30 c 0,32,33
 488 -30 488 -30 416.5 -2.5 c 128,-1,34
 345 25 345 25 286 74 c 1,35,-1
 233 -2 l 1,36,37
 224 -10 224 -10 207.5 -17.5 c 128,-1,38
 191 -25 191 -25 172 -31.5 c 128,-1,39
 153 -38 153 -38 134.5 -43.5 c 128,-1,40
 116 -49 116 -49 104 -53 c 1,41,-1
 76 -20 l 1,42,-1
 204 162 l 1,43,44
 138 252 138 252 104 368 c 128,-1,45
 70 484 70 484 70 612 c 0,46,47
 70 748 70 748 114 871 c 128,-1,48
 158 994 158 994 234 1087 c 128,-1,49
 310 1180 310 1180 412.5 1235 c 128,-1,50
 515 1290 515 1290 633 1290 c 0,51,52
 720 1290 720 1290 791.5 1262.5 c 128,-1,53
 863 1235 863 1235 921 1187 c 1,54,-1
 975 1264 l 1,55,56
 1003 1281 1003 1281 1037 1293 c 128,-1,57
 1071 1305 1071 1305 1102 1313 c 1,58,-1
 1130 1280 l 1,59,-1
 1003 1099 l 1,24,25
EndSplineSet
EndChar

StartChar: infinity
Encoding: 8734 8734 146
Width: 1354
Flags: W
LayerCount: 2
Fore
SplineSet
344 426 m 0,0,1
 377 426 377 426 403 430 c 128,-1,2
 429 434 429 434 456 447.5 c 128,-1,3
 483 461 483 461 515.5 486 c 128,-1,4
 548 511 548 511 593 552 c 1,5,6
 573 579 573 579 548 608 c 128,-1,7
 523 637 523 637 492 660 c 128,-1,8
 461 683 461 683 423 698 c 128,-1,9
 385 713 385 713 339 713 c 0,10,11
 292 713 292 713 263 699 c 128,-1,12
 234 685 234 685 218 664 c 128,-1,13
 202 643 202 643 196.5 619.5 c 128,-1,14
 191 596 191 596 191 577 c 0,15,16
 191 557 191 557 200.5 531 c 128,-1,17
 210 505 210 505 229 481.5 c 128,-1,18
 248 458 248 458 277 442 c 128,-1,19
 306 426 306 426 344 426 c 0,0,1
1010 729 m 0,20,21
 978 729 978 729 950 723 c 128,-1,22
 922 717 922 717 893 702 c 128,-1,23
 864 687 864 687 831.5 662.5 c 128,-1,24
 799 638 799 638 757 601 c 1,25,26
 777 574 777 574 803 545.5 c 128,-1,27
 829 517 829 517 861 494 c 128,-1,28
 893 471 893 471 931.5 456.5 c 128,-1,29
 970 442 970 442 1015 442 c 0,30,31
 1062 442 1062 442 1091 456 c 128,-1,32
 1120 470 1120 470 1136 491 c 128,-1,33
 1152 512 1152 512 1157.5 535.5 c 128,-1,34
 1163 559 1163 559 1163 578 c 0,35,36
 1163 598 1163 598 1153.5 624 c 128,-1,37
 1144 650 1144 650 1125 673.5 c 128,-1,38
 1106 697 1106 697 1077 713 c 128,-1,39
 1048 729 1048 729 1010 729 c 0,20,21
411 845 m 0,40,41
 462 845 462 845 506 829 c 128,-1,42
 550 813 550 813 587.5 786.5 c 128,-1,43
 625 760 625 760 656 727.5 c 128,-1,44
 687 695 687 695 712 662 c 1,45,46
 770 714 770 714 817.5 749 c 128,-1,47
 865 784 865 784 907 805.5 c 128,-1,48
 949 827 949 827 987 836 c 128,-1,49
 1025 845 1025 845 1065 845 c 0,50,51
 1104 845 1104 845 1141.5 827.5 c 128,-1,52
 1179 810 1179 810 1208.5 780 c 128,-1,53
 1238 750 1238 750 1256 708.5 c 128,-1,54
 1274 667 1274 667 1274 619 c 0,55,56
 1274 562 1274 562 1247 506.5 c 128,-1,57
 1220 451 1220 451 1174 407.5 c 128,-1,58
 1128 364 1128 364 1068.5 337 c 128,-1,59
 1009 310 1009 310 943 310 c 0,60,61
 892 310 892 310 847.5 326 c 128,-1,62
 803 342 803 342 764.5 368 c 128,-1,63
 726 394 726 394 694 426.5 c 128,-1,64
 662 459 662 459 636 492 c 1,65,66
 572 435 572 435 525 399.5 c 128,-1,67
 478 364 478 364 439 344 c 128,-1,68
 400 324 400 324 364.5 317 c 128,-1,69
 329 310 329 310 289 310 c 0,70,71
 250 310 250 310 212.5 327.5 c 128,-1,72
 175 345 175 345 145.5 375 c 128,-1,73
 116 405 116 405 98 446.5 c 128,-1,74
 80 488 80 488 80 536 c 0,75,76
 80 593 80 593 107 648.5 c 128,-1,77
 134 704 134 704 180 747.5 c 128,-1,78
 226 791 226 791 285.5 818 c 128,-1,79
 345 845 345 845 411 845 c 0,40,41
EndSplineSet
EndChar

StartChar: plusminus
Encoding: 177 177 147
Width: 840
Flags: W
LayerCount: 2
Fore
SplineSet
778 216 m 1,0,1
 773 196 773 196 764.5 171.5 c 128,-1,2
 756 147 756 147 748 130 c 1,3,-1
 86 130 l 1,4,-1
 61 154 l 1,5,6
 66 174 66 174 74.5 197 c 128,-1,7
 83 220 83 220 92 240 c 1,8,-1
 754 240 l 1,9,-1
 778 216 l 1,0,1
477 366 m 1,10,11
 457 356 457 356 433 348 c 128,-1,12
 409 340 409 340 387 335 c 1,13,-1
 362 357 l 1,14,-1
 362 637 l 1,15,-1
 86 637 l 1,16,-1
 61 661 l 1,17,18
 66 681 66 681 74.5 704 c 128,-1,19
 83 727 83 727 92 747 c 1,20,-1
 362 747 l 1,21,-1
 362 1021 l 1,22,23
 381 1027 381 1027 406 1036 c 128,-1,24
 431 1045 431 1045 453 1050 c 1,25,-1
 477 1026 l 1,26,-1
 477 747 l 1,27,-1
 754 747 l 1,28,-1
 778 723 l 1,29,30
 773 703 773 703 764.5 678.5 c 128,-1,31
 756 654 756 654 748 637 c 1,32,-1
 477 637 l 1,33,-1
 477 366 l 1,10,11
EndSplineSet
EndChar

StartChar: lessequal
Encoding: 8804 8804 148
Width: 899
Flags: W
LayerCount: 2
Fore
SplineSet
838 442 m 1,0,1
 827 432 827 432 818.5 424 c 128,-1,2
 810 416 810 416 800.5 408.5 c 128,-1,3
 791 401 791 401 780 393 c 128,-1,4
 769 385 769 385 754 376 c 1,5,-1
 86 626 l 1,6,7
 77 636 77 636 72 641.5 c 128,-1,8
 67 647 67 647 64.5 650 c 128,-1,9
 62 653 62 653 62 654 c 2,10,-1
 62 656 l 1,11,12
 67 679 67 679 74 702.5 c 128,-1,13
 81 726 81 726 92 749 c 1,14,-1
 813 1019 l 1,15,-1
 838 994 l 1,16,17
 835 983 835 983 831.5 970 c 128,-1,18
 828 957 828 957 824 943 c 128,-1,19
 820 929 820 929 816 916 c 128,-1,20
 812 903 812 903 809 894 c 1,21,-1
 254 688 l 1,22,-1
 821 478 l 1,23,-1
 838 442 l 1,0,1
838 285 m 1,24,25
 833 264 833 264 824 241.5 c 128,-1,26
 815 219 815 219 809 200 c 1,27,-1
 86 200 l 1,28,-1
 61 227 l 1,29,30
 66 247 66 247 74.5 268.5 c 128,-1,31
 83 290 83 290 92 310 c 1,32,-1
 813 310 l 1,33,-1
 838 285 l 1,24,25
EndSplineSet
EndChar

StartChar: greaterequal
Encoding: 8805 8805 149
Width: 899
Flags: W
LayerCount: 2
Fore
SplineSet
838 285 m 1,0,1
 833 264 833 264 824 241.5 c 128,-1,2
 815 219 815 219 809 200 c 1,3,-1
 86 200 l 1,4,-1
 61 227 l 1,5,6
 66 247 66 247 74.5 268.5 c 128,-1,7
 83 290 83 290 92 310 c 1,8,-1
 813 310 l 1,9,-1
 838 285 l 1,0,1
61 954 m 1,10,11
 84 972 84 972 105.5 988 c 128,-1,12
 127 1004 127 1004 145 1019 c 1,13,-1
 815 769 l 1,14,-1
 838 745 l 1,15,16
 833 722 833 722 825.5 694.5 c 128,-1,17
 818 667 818 667 807 644 c 1,18,-1
 86 376 l 1,19,-1
 61 401 l 1,20,21
 64 411 64 411 68 424 c 128,-1,22
 72 437 72 437 76 451 c 128,-1,23
 80 465 80 465 84 477.5 c 128,-1,24
 88 490 88 490 92 499 c 1,25,-1
 643 705 l 1,26,-1
 78 915 l 1,27,-1
 61 954 l 1,10,11
EndSplineSet
EndChar

StartChar: yen
Encoding: 165 165 150
Width: 961
Flags: W
LayerCount: 2
Fore
SplineSet
236 0 m 1,0,-1
 236 43 l 1,1,2
 327 62 327 62 363.5 81.5 c 128,-1,3
 400 101 400 101 400 115 c 2,4,-1
 400 436 l 1,5,-1
 128 436 l 1,6,-1
 106 461 l 1,7,8
 111 476 111 476 116.5 493.5 c 128,-1,9
 122 511 122 511 128 527 c 1,10,-1
 400 527 l 1,11,-1
 400 580 l 1,12,13
 365 653 365 653 327 726.5 c 128,-1,14
 289 800 289 800 250 867.5 c 128,-1,15
 211 935 211 935 173 993.5 c 128,-1,16
 135 1052 135 1052 101 1095 c 0,17,18
 92 1106 92 1106 81 1116 c 128,-1,19
 70 1126 70 1126 52 1133.5 c 128,-1,20
 34 1141 34 1141 6.5 1145.5 c 128,-1,21
 -21 1150 -21 1150 -63 1150 c 1,22,-1
 -67 1193 l 1,23,24
 -8 1201 -8 1201 51 1207.5 c 128,-1,25
 110 1214 110 1214 152 1214 c 0,26,27
 198 1214 198 1214 230 1175 c 1,28,29
 267 1127 267 1127 301 1076 c 128,-1,30
 335 1025 335 1025 367 969 c 128,-1,31
 399 913 399 913 431.5 850.5 c 128,-1,32
 464 788 464 788 499 716 c 1,33,-1
 713 1095 l 2,34,35
 728 1121 728 1121 703.5 1136 c 128,-1,36
 679 1151 679 1151 602 1161 c 1,37,-1
 602 1204 l 1,38,-1
 998 1204 l 1,39,-1
 998 1161 l 1,40,41
 930 1148 930 1148 893 1134.5 c 128,-1,42
 856 1121 856 1121 842 1095 c 2,43,-1
 560 578 l 1,44,-1
 560 527 l 1,45,-1
 831 527 l 1,46,-1
 856 504 l 1,47,-1
 831 436 l 1,48,-1
 560 436 l 1,49,-1
 560 115 l 2,50,51
 560 109 560 109 568.5 100.5 c 128,-1,52
 577 92 577 92 596.5 82 c 128,-1,53
 616 72 616 72 647.5 62 c 128,-1,54
 679 52 679 52 726 43 c 1,55,-1
 726 0 l 1,56,-1
 236 0 l 1,0,-1
EndSplineSet
EndChar

StartChar: mu
Encoding: 181 181 151
Width: 1105
Flags: W
LayerCount: 2
Fore
SplineSet
1085 82 m 1,0,1
 1055 63 1055 63 1023 43 c 128,-1,2
 991 23 991 23 961 6.5 c 128,-1,3
 931 -10 931 -10 905.5 -20.5 c 128,-1,4
 880 -31 880 -31 863 -31 c 0,5,6
 842 -31 842 -31 827 -14 c 128,-1,7
 812 3 812 3 802 32 c 128,-1,8
 792 61 792 61 786.5 99 c 128,-1,9
 781 137 781 137 780 180 c 1,10,11
 699 75 699 75 623.5 22 c 128,-1,12
 548 -31 548 -31 490 -31 c 0,13,14
 431 -31 431 -31 374 9.5 c 128,-1,15
 317 50 317 50 273 122 c 1,16,-1
 273 116 l 1,17,18
 272 5 272 5 283.5 -82 c 128,-1,19
 295 -169 295 -169 314.5 -236 c 128,-1,20
 334 -303 334 -303 359.5 -350.5 c 128,-1,21
 385 -398 385 -398 411 -429 c 1,22,23
 396 -434 396 -434 370.5 -443.5 c 128,-1,24
 345 -453 345 -453 317.5 -463.5 c 128,-1,25
 290 -474 290 -474 265.5 -484 c 128,-1,26
 241 -494 241 -494 229 -500 c 1,27,-1
 190 -471 l 1,28,-1
 190 731 l 2,29,30
 190 770 190 770 187.5 792 c 128,-1,31
 185 814 185 814 172.5 826 c 128,-1,32
 160 838 160 838 134 843.5 c 128,-1,33
 108 849 108 849 61 854 c 1,34,-1
 61 894 l 1,35,36
 100 901 100 901 132.5 907 c 128,-1,37
 165 913 165 913 194 920.5 c 128,-1,38
 223 928 223 928 249.5 937 c 128,-1,39
 276 946 276 946 302 960 c 1,40,-1
 306 955 l 2,41,42
 311 950 311 950 317 943.5 c 128,-1,43
 323 937 323 937 329.5 929.5 c 128,-1,44
 336 922 336 922 340 917 c 1,45,-1
 340 366 l 2,46,47
 340 331 340 331 353 290 c 128,-1,48
 366 249 366 249 389.5 214 c 128,-1,49
 413 179 413 179 447 155 c 128,-1,50
 481 131 481 131 523 131 c 0,51,52
 550 131 550 131 578.5 136 c 128,-1,53
 607 141 607 141 638.5 157.5 c 128,-1,54
 670 174 670 174 705 204.5 c 128,-1,55
 740 235 740 235 780 287 c 1,56,-1
 780 748 l 2,57,58
 780 764 780 764 776.5 786.5 c 128,-1,59
 773 809 773 809 767.5 831 c 128,-1,60
 762 853 762 853 755.5 872 c 128,-1,61
 749 891 749 891 742 900 c 1,62,63
 786 912 786 912 831.5 927.5 c 128,-1,64
 877 943 877 943 918 960 c 1,65,-1
 946 921 l 1,66,67
 942 895 942 895 937 858.5 c 128,-1,68
 932 822 932 822 930 759 c 1,69,-1
 930 268 l 2,70,71
 930 175 930 175 939 137 c 128,-1,72
 948 99 948 99 969 99 c 0,73,74
 991 99 991 99 1016.5 106.5 c 128,-1,75
 1042 114 1042 114 1075 127 c 1,76,-1
 1085 82 l 1,0,1
EndSplineSet
EndChar

StartChar: partialdiff
Encoding: 8706 8706 152
Width: 1024
Flags: W
LayerCount: 2
Fore
SplineSet
785 586 m 1,0,1
 769 642 769 642 735 690 c 128,-1,2
 701 738 701 738 657.5 773.5 c 128,-1,3
 614 809 614 809 566 829.5 c 128,-1,4
 518 850 518 850 475 850 c 0,5,6
 416 850 416 850 370.5 821 c 128,-1,7
 325 792 325 792 294.5 741.5 c 128,-1,8
 264 691 264 691 248.5 622 c 128,-1,9
 233 553 233 553 233 473 c 0,10,11
 233 394 233 394 259.5 322.5 c 128,-1,12
 286 251 286 251 326.5 197 c 128,-1,13
 367 143 367 143 415 111.5 c 128,-1,14
 463 80 463 80 506 80 c 0,15,16
 564 80 564 80 615 115 c 128,-1,17
 666 150 666 150 704 214.5 c 128,-1,18
 742 279 742 279 763.5 370.5 c 128,-1,19
 785 462 785 462 785 575 c 2,20,-1
 785 586 l 1,0,1
944 722 m 256,21,22
 944 570 944 570 921.5 455.5 c 128,-1,23
 899 341 899 341 861.5 257.5 c 128,-1,24
 824 174 824 174 776.5 118.5 c 128,-1,25
 729 63 729 63 679 30 c 128,-1,26
 629 -3 629 -3 581.5 -16.5 c 128,-1,27
 534 -30 534 -30 496 -30 c 0,28,29
 398 -30 398 -30 321 6 c 128,-1,30
 244 42 244 42 190.5 105 c 128,-1,31
 137 168 137 168 108.5 255 c 128,-1,32
 80 342 80 342 80 444 c 0,33,34
 80 543 80 543 116 636.5 c 128,-1,35
 152 730 152 730 211.5 802 c 128,-1,36
 271 874 271 874 348 917.5 c 128,-1,37
 425 961 425 961 506 961 c 0,38,39
 536 961 536 961 574.5 946 c 128,-1,40
 613 931 613 931 652.5 907 c 128,-1,41
 692 883 692 883 727 852 c 128,-1,42
 762 821 762 821 785 789 c 1,43,44
 780 938 780 938 747 1040 c 128,-1,45
 714 1142 714 1142 664.5 1205 c 128,-1,46
 615 1268 615 1268 555 1295.5 c 128,-1,47
 495 1323 495 1323 438 1323 c 0,48,49
 408 1323 408 1323 380.5 1320 c 128,-1,50
 353 1317 353 1317 323.5 1306.5 c 128,-1,51
 294 1296 294 1296 259.5 1275.5 c 128,-1,52
 225 1255 225 1255 180 1221 c 1,53,-1
 135 1254 l 1,54,-1
 253 1398 l 1,55,56
 311 1421 311 1421 362.5 1434 c 128,-1,57
 414 1447 414 1447 465 1447 c 0,58,59
 520 1447 520 1447 577.5 1435.5 c 128,-1,60
 635 1424 635 1424 688 1394 c 128,-1,61
 741 1364 741 1364 787.5 1312.5 c 128,-1,62
 834 1261 834 1261 869 1180.5 c 128,-1,63
 904 1100 904 1100 924 987 c 128,-1,64
 944 874 944 874 944 722 c 256,21,22
EndSplineSet
EndChar

StartChar: pi
Encoding: 960 960 155
Width: 1078
GlyphClass: 2
Flags: W
AnchorPoint: "Anchor-4" 1078 900 basechar 0
AnchorPoint: "Anchor-3" 577 -100 basechar 0
AnchorPoint: "Anchor-2" 577 -100 basechar 0
AnchorPoint: "Anchor-1" 577 -100 basechar 0
AnchorPoint: "Anchor-0" 577 1050 basechar 0
LayerCount: 2
Fore
SplineSet
1046 110 m 1,0,1
 995 67 995 67 957 39.5 c 128,-1,2
 919 12 919 12 889.5 -3.5 c 128,-1,3
 860 -19 860 -19 836.5 -25 c 128,-1,4
 813 -31 813 -31 791 -31 c 0,5,6
 756 -31 756 -31 730 -10 c 128,-1,7
 704 11 704 11 686.5 49.5 c 128,-1,8
 669 88 669 88 660.5 143 c 128,-1,9
 652 198 652 198 652 267 c 0,10,11
 652 299 652 299 654 344.5 c 128,-1,12
 656 390 656 390 660 453 c 128,-1,13
 664 516 664 516 670.5 597.5 c 128,-1,14
 677 679 677 679 686 784 c 1,15,16
 615 785 615 785 546.5 787.5 c 128,-1,17
 478 790 478 790 396 792 c 1,18,19
 387 678 387 678 382 553 c 128,-1,20
 377 428 377 428 377 300 c 0,21,22
 377 228 377 228 379.5 166.5 c 128,-1,23
 382 105 382 105 387 50 c 1,24,25
 373 41 373 41 344.5 29.5 c 128,-1,26
 316 18 316 18 282 6.5 c 128,-1,27
 248 -5 248 -5 214.5 -15.5 c 128,-1,28
 181 -26 181 -26 159 -32 c 1,29,30
 156 -29 156 -29 151.5 -23 c 128,-1,31
 147 -17 147 -17 142 -11 c 0,32,33
 137 -4 137 -4 130 4 c 1,34,35
 157 42 157 42 177 76 c 128,-1,36
 197 110 197 110 212 150 c 128,-1,37
 227 190 227 190 238 242.5 c 128,-1,38
 249 295 249 295 259 369.5 c 128,-1,39
 269 444 269 444 278 547.5 c 128,-1,40
 287 651 287 651 298 793 c 1,41,-1
 247 793 l 2,42,43
 215 793 215 793 190 790.5 c 128,-1,44
 165 788 165 788 141.5 781.5 c 128,-1,45
 118 775 118 775 94.5 762.5 c 128,-1,46
 71 750 71 750 43 730 c 1,47,-1
 20 766 l 1,48,49
 49 801 49 801 77 831 c 128,-1,50
 105 861 105 861 133.5 883 c 128,-1,51
 162 905 162 905 191 917.5 c 128,-1,52
 220 930 220 930 252 930 c 2,53,-1
 885 930 l 2,54,55
 927 930 927 930 963 934 c 128,-1,56
 999 938 999 938 1030 960 c 1,57,-1
 1058 931 l 1,58,59
 1006 859 1006 859 953.5 820.5 c 128,-1,60
 901 782 901 782 853 782 c 2,61,-1
 788 782 l 1,62,63
 780 701 780 701 777 618 c 128,-1,64
 774 535 774 535 774 457 c 0,65,66
 774 366 774 366 779 301 c 128,-1,67
 784 236 784 236 794.5 194 c 128,-1,68
 805 152 805 152 822 132.5 c 128,-1,69
 839 113 839 113 862 113 c 0,70,71
 877 113 877 113 891.5 114.5 c 128,-1,72
 906 116 906 116 924 120.5 c 128,-1,73
 942 125 942 125 966 133 c 128,-1,74
 990 141 990 141 1024 154 c 1,75,-1
 1046 110 l 1,0,1
EndSplineSet
EndChar

StartChar: integral
Encoding: 8747 8747 156
Width: 555
Flags: W
LayerCount: 2
Fore
SplineSet
727 1423 m 0,0,1
 727 1415 727 1415 712.5 1399.5 c 128,-1,2
 698 1384 698 1384 678 1367.5 c 128,-1,3
 658 1351 658 1351 636.5 1336.5 c 128,-1,4
 615 1322 615 1322 600 1315 c 1,5,6
 579 1349 579 1349 558.5 1371 c 128,-1,7
 538 1393 538 1393 518.5 1405.5 c 128,-1,8
 499 1418 499 1418 482 1422.5 c 128,-1,9
 465 1427 465 1427 451 1427 c 0,10,11
 419 1427 419 1427 396.5 1411 c 128,-1,12
 374 1395 374 1395 359 1357.5 c 128,-1,13
 344 1320 344 1320 337 1258.5 c 128,-1,14
 330 1197 330 1197 330 1106 c 0,15,16
 330 1044 330 1044 333.5 959 c 128,-1,17
 337 874 337 874 343 776.5 c 128,-1,18
 349 679 349 679 355 575.5 c 128,-1,19
 361 472 361 472 367 373 c 128,-1,20
 373 274 373 274 376.5 185.5 c 128,-1,21
 380 97 380 97 380 30 c 0,22,23
 380 -57 380 -57 362 -124.5 c 128,-1,24
 344 -192 344 -192 315.5 -244 c 128,-1,25
 287 -296 287 -296 251 -334 c 128,-1,26
 215 -372 215 -372 180 -400 c 0,27,28
 153 -421 153 -421 122.5 -439.5 c 128,-1,29
 92 -458 92 -458 62.5 -471.5 c 128,-1,30
 33 -485 33 -485 6 -492.5 c 128,-1,31
 -21 -500 -21 -500 -40 -500 c 0,32,33
 -71 -500 -71 -500 -100.5 -492.5 c 128,-1,34
 -130 -485 -130 -485 -153.5 -474 c 128,-1,35
 -177 -463 -177 -463 -191.5 -451 c 128,-1,36
 -206 -439 -206 -439 -206 -431 c 0,37,38
 -206 -422 -206 -422 -191.5 -406.5 c 128,-1,39
 -177 -391 -177 -391 -157 -374 c 128,-1,40
 -137 -357 -137 -357 -115.5 -342 c 128,-1,41
 -94 -327 -94 -327 -79 -320 c 1,42,43
 -47 -348 -47 -348 -13 -356.5 c 128,-1,44
 21 -365 21 -365 59 -365 c 0,45,46
 86 -365 86 -365 115 -348.5 c 128,-1,47
 144 -332 144 -332 167 -290.5 c 128,-1,48
 190 -249 190 -249 205 -178.5 c 128,-1,49
 220 -108 220 -108 220 0 c 0,50,51
 220 55 220 55 216.5 138 c 128,-1,52
 213 221 213 221 207 318.5 c 128,-1,53
 201 416 201 416 195 520 c 128,-1,54
 189 624 189 624 183 722.5 c 128,-1,55
 177 821 177 821 173.5 906.5 c 128,-1,56
 170 992 170 992 170 1051 c 0,57,58
 170 1136 170 1136 180 1197.5 c 128,-1,59
 190 1259 190 1259 209.5 1305.5 c 128,-1,60
 229 1352 229 1352 259 1388 c 128,-1,61
 289 1424 289 1424 328 1458 c 0,62,63
 379 1503 379 1503 434.5 1526.5 c 128,-1,64
 490 1550 490 1550 529 1550 c 0,65,66
 572 1550 572 1550 608.5 1533.5 c 128,-1,67
 645 1517 645 1517 671.5 1495.5 c 128,-1,68
 698 1474 698 1474 712.5 1453 c 128,-1,69
 727 1432 727 1432 727 1423 c 0,0,1
EndSplineSet
EndChar

StartChar: ordfeminine
Encoding: 170 170 157
Width: 524
Flags: W
LayerCount: 2
Fore
SplineSet
514 768 m 1,0,1
 468 737 468 737 437.5 724 c 128,-1,2
 407 711 407 711 391 711 c 0,3,4
 377 711 377 711 362.5 731 c 128,-1,5
 348 751 348 751 341 794 c 1,6,7
 293 749 293 749 246.5 730 c 128,-1,8
 200 711 200 711 166 711 c 0,9,10
 146 711 146 711 125.5 717 c 128,-1,11
 105 723 105 723 88 736.5 c 128,-1,12
 71 750 71 750 60 771.5 c 128,-1,13
 49 793 49 793 49 825 c 0,14,15
 49 887 49 887 96.5 934.5 c 128,-1,16
 144 982 144 982 246 1010 c 1,17,-1
 338 1034 l 1,18,-1
 338 1051 l 2,19,20
 338 1082 338 1082 334.5 1105.5 c 128,-1,21
 331 1129 331 1129 322 1145 c 128,-1,22
 313 1161 313 1161 296 1169.5 c 128,-1,23
 279 1178 279 1178 252 1178 c 0,24,25
 237 1178 237 1178 221 1171 c 128,-1,26
 205 1164 205 1164 193 1151.5 c 128,-1,27
 181 1139 181 1139 175.5 1121.5 c 128,-1,28
 170 1104 170 1104 178 1083 c 0,29,30
 179 1078 179 1078 165.5 1072.5 c 128,-1,31
 152 1067 152 1067 134 1062.5 c 128,-1,32
 116 1058 116 1058 98.5 1055.5 c 128,-1,33
 81 1053 81 1053 74 1055 c 1,34,-1
 66 1075 l 1,35,36
 70 1106 70 1106 97.5 1135 c 128,-1,37
 125 1164 125 1164 161 1186.5 c 128,-1,38
 197 1209 197 1209 235 1222 c 128,-1,39
 273 1235 273 1235 299 1235 c 0,40,41
 335 1235 335 1235 360 1225 c 128,-1,42
 385 1215 385 1215 400.5 1192 c 128,-1,43
 416 1169 416 1169 423 1131 c 128,-1,44
 430 1093 430 1093 430 1038 c 2,45,-1
 430 842 l 2,46,47
 430 814 430 814 434 801.5 c 128,-1,48
 438 789 438 789 444 782 c 1,49,50
 449 779 449 779 464.5 780.5 c 128,-1,51
 480 782 480 782 508 793 c 1,52,-1
 514 768 l 1,0,1
51 586 m 1,53,-1
 51 659 l 1,54,-1
 485 659 l 1,55,-1
 485 586 l 1,56,-1
 51 586 l 1,53,-1
338 840 m 1,57,-1
 338 992 l 1,58,-1
 295 981 l 2,59,60
 251 969 251 969 222.5 954.5 c 128,-1,61
 194 940 194 940 177 923.5 c 128,-1,62
 160 907 160 907 153.5 888 c 128,-1,63
 147 869 147 869 147 848 c 256,64,65
 147 827 147 827 152.5 814 c 128,-1,66
 158 801 158 801 166 793.5 c 128,-1,67
 174 786 174 786 183 783 c 128,-1,68
 192 780 192 780 199 780 c 0,69,70
 230 780 230 780 265 794.5 c 128,-1,71
 300 809 300 809 338 840 c 1,57,-1
EndSplineSet
EndChar

